<?xml version="1.0" encoding="utf-8" ?>
<svg xmlns="http://www.w3.org/2000/svg" xmlns:ev="http://www.w3.org/2001/xml-events" xmlns:xlink="http://www.w3.org/1999/xlink" baseProfile="full" height="100%" preserveAspectRatio="xMidYMid meet" version="1.1" viewBox="-50 -50 1694 1176" width="100%">
  <defs/>
  <g>
    <line opacity="0.85" stroke="black" stroke-linecap="round" stroke-linejoin="round" stroke-width="6.089814163386771" x1="98" x2="107" y1="217" y2="220"/>
    <line opacity="0.85" stroke="black" stroke-linecap="round" stroke-linejoin="round" stroke-width="7.354725227454123" x1="107" x2="160" y1="220" y2="204"/>
    <line opacity="0.85" stroke="black" stroke-linecap="round" stroke-linejoin="round" stroke-width="8.954725227454123" x1="160" x2="256" y1="204" y2="185"/>
    <line opacity="0.85" stroke="black" stroke-linecap="round" stroke-linejoin="round" stroke-width="7.329822128134703" x1="256" x2="406" y1="185" y2="165"/>
    <line opacity="0.85" stroke="black" stroke-linecap="round" stroke-linejoin="round" stroke-width="7.329822128134703" x1="406" x2="641" y1="165" y2="145"/>
    <line opacity="0.85" stroke="black" stroke-linecap="round" stroke-linejoin="round" stroke-width="7.664911064067352" x1="641" x2="824" y1="145" y2="141"/>
    <line opacity="0.85" stroke="black" stroke-linecap="round" stroke-linejoin="round" stroke-width="8.0" x1="824" x2="1049" y1="141" y2="152"/>
    <line opacity="0.85" stroke="black" stroke-linecap="round" stroke-linejoin="round" stroke-width="8.0" x1="1049" x2="1278" y1="152" y2="177"/>
    <line opacity="0.85" stroke="black" stroke-linecap="round" stroke-linejoin="round" stroke-width="8.097056274847715" x1="1278" x2="1419" y1="177" y2="200"/>
    <line opacity="0.85" stroke="black" stroke-linecap="round" stroke-linejoin="round" stroke-width="8.097056274847715" x1="1419" x2="1433" y1="200" y2="208"/>
    <line opacity="0.85" stroke="black" stroke-linecap="round" stroke-linejoin="round" stroke-width="9.914657772974728" x1="1433" x2="1438" y1="208" y2="216"/>
    <line opacity="0.85" stroke="black" stroke-linecap="round" stroke-linejoin="round" stroke-width="11.73225927110174" x1="1438" x2="1437" y1="216" y2="224"/>
    <line opacity="0.85" stroke="black" stroke-linecap="round" stroke-linejoin="round" stroke-width="13.709968035101404" x1="1437" x2="1437" y1="224" y2="224"/>
    <line opacity="0.85" stroke="black" stroke-linecap="round" stroke-linejoin="round" stroke-width="15.0" x1="1437" x2="1454" y1="224" y2="225"/>
    <line opacity="0.85" stroke="black" stroke-linecap="round" stroke-linejoin="round" stroke-width="15.0" x1="1454" x2="1462" y1="225" y2="222"/>
    <line opacity="0.85" stroke="black" stroke-linecap="round" stroke-linejoin="round" stroke-width="15.0" x1="1462" x2="1468" y1="222" y2="213"/>
    <line opacity="0.85" stroke="black" stroke-linecap="round" stroke-linejoin="round" stroke-width="15.0" x1="1468" x2="1468" y1="213" y2="201"/>
    <line opacity="0.85" stroke="black" stroke-linecap="round" stroke-linejoin="round" stroke-width="15.0" x1="1468" x2="1462" y1="201" y2="189"/>
    <line opacity="0.85" stroke="black" stroke-linecap="round" stroke-linejoin="round" stroke-width="15.0" x1="1462" x2="1455" y1="189" y2="183"/>
    <line opacity="0.85" stroke="black" stroke-linecap="round" stroke-linejoin="round" stroke-width="15.0" x1="1455" x2="1440" y1="183" y2="178"/>
    <line opacity="0.85" stroke="black" stroke-linecap="round" stroke-linejoin="round" stroke-width="15.0" x1="1440" x2="1439" y1="178" y2="178"/>
    <line opacity="0.85" stroke="black" stroke-linecap="round" stroke-linejoin="round" stroke-width="15.0" x1="1439" x2="1278" y1="178" y2="152"/>
    <line opacity="0.85" stroke="black" stroke-linecap="round" stroke-linejoin="round" stroke-width="15.0" x1="1278" x2="1108" y1="152" y2="133"/>
    <line opacity="0.85" stroke="black" stroke-linecap="round" stroke-linejoin="round" stroke-width="15.0" x1="1108" x2="905" y1="133" y2="121"/>
    <line opacity="0.85" stroke="black" stroke-linecap="round" stroke-linejoin="round" stroke-width="15.0" x1="905" x2="755" y1="121" y2="120"/>
    <line opacity="0.85" stroke="black" stroke-linecap="round" stroke-linejoin="round" stroke-width="15.0" x1="755" x2="640" y1="120" y2="125"/>
    <line opacity="0.85" stroke="black" stroke-linecap="round" stroke-linejoin="round" stroke-width="15.0" x1="640" x2="495" y1="125" y2="136"/>
    <line opacity="0.85" stroke="black" stroke-linecap="round" stroke-linejoin="round" stroke-width="15.0" x1="495" x2="272" y1="136" y2="161"/>
    <line opacity="0.85" stroke="black" stroke-linecap="round" stroke-linejoin="round" stroke-width="15.0" x1="272" x2="189" y1="161" y2="175"/>
    <line opacity="0.85" stroke="black" stroke-linecap="round" stroke-linejoin="round" stroke-width="15.0" x1="189" x2="134" y1="175" y2="188"/>
    <line opacity="0.85" stroke="black" stroke-linecap="round" stroke-linejoin="round" stroke-width="15.0" x1="134" x2="106" y1="188" y2="201"/>
    <line opacity="0.85" stroke="black" stroke-linecap="round" stroke-linejoin="round" stroke-width="15.0" x1="106" x2="98" y1="201" y2="211"/>
    <line opacity="0.85" stroke="black" stroke-linecap="round" stroke-linejoin="round" stroke-width="15.0" x1="98" x2="98" y1="211" y2="217"/>
    <line opacity="0.85" stroke="black" stroke-linecap="round" stroke-linejoin="round" stroke-width="15.0" x1="98" x2="98" y1="217" y2="217"/>
    <line opacity="0.85" stroke="black" stroke-linecap="round" stroke-linejoin="round" stroke-width="15.0" x1="98" x2="94" y1="217" y2="227"/>
    <line opacity="0.85" stroke="black" stroke-linecap="round" stroke-linejoin="round" stroke-width="15.0" x1="94" x2="96" y1="227" y2="239"/>
    <line opacity="0.85" stroke="black" stroke-linecap="round" stroke-linejoin="round" stroke-width="15.0" x1="96" x2="107" y1="239" y2="246"/>
    <line opacity="0.85" stroke="black" stroke-linecap="round" stroke-linejoin="round" stroke-width="15.0" x1="107" x2="128" y1="246" y2="250"/>
    <line opacity="0.85" stroke="black" stroke-linecap="round" stroke-linejoin="round" stroke-width="15.0" x1="128" x2="167" y1="250" y2="248"/>
    <line opacity="0.85" stroke="black" stroke-linecap="round" stroke-linejoin="round" stroke-width="15.0" x1="167" x2="308" y1="248" y2="221"/>
    <line opacity="0.85" stroke="black" stroke-linecap="round" stroke-linejoin="round" stroke-width="15.0" x1="308" x2="481" y1="221" y2="200"/>
    <line opacity="0.85" stroke="black" stroke-linecap="round" stroke-linejoin="round" stroke-width="15.0" x1="481" x2="511" y1="200" y2="200"/>
    <line opacity="0.85" stroke="black" stroke-linecap="round" stroke-linejoin="round" stroke-width="15.0" x1="511" x2="526" y1="200" y2="204"/>
    <line opacity="0.85" stroke="black" stroke-linecap="round" stroke-linejoin="round" stroke-width="15.0" x1="526" x2="540" y1="204" y2="213"/>
    <line opacity="0.85" stroke="black" stroke-linecap="round" stroke-linejoin="round" stroke-width="15.0" x1="540" x2="556" y1="213" y2="229"/>
    <line opacity="0.85" stroke="black" stroke-linecap="round" stroke-linejoin="round" stroke-width="15.0" x1="556" x2="577" y1="229" y2="269"/>
    <line opacity="0.85" stroke="black" stroke-linecap="round" stroke-linejoin="round" stroke-width="15.0" x1="577" x2="585" y1="269" y2="306"/>
    <line opacity="0.85" stroke="black" stroke-linecap="round" stroke-linejoin="round" stroke-width="15.0" x1="585" x2="659" y1="306" y2="988"/>
    <line opacity="0.85" stroke="black" stroke-linecap="round" stroke-linejoin="round" stroke-width="15.0" x1="659" x2="666" y1="988" y2="1010"/>
    <line opacity="0.85" stroke="black" stroke-linecap="round" stroke-linejoin="round" stroke-width="15.0" x1="666" x2="680" y1="1010" y2="1026"/>
    <line opacity="0.85" stroke="black" stroke-linecap="round" stroke-linejoin="round" stroke-width="15.0" x1="680" x2="699" y1="1026" y2="1034"/>
    <line opacity="0.85" stroke="black" stroke-linecap="round" stroke-linejoin="round" stroke-width="15.0" x1="699" x2="717" y1="1034" y2="1034"/>
    <line opacity="0.85" stroke="black" stroke-linecap="round" stroke-linejoin="round" stroke-width="14.195310262126677" x1="717" x2="717" y1="1034" y2="1034"/>
    <line opacity="0.85" stroke="black" stroke-linecap="round" stroke-linejoin="round" stroke-width="12.217601498127012" x1="717" x2="719" y1="1034" y2="1021"/>
    <line opacity="0.85" stroke="black" stroke-linecap="round" stroke-linejoin="round" stroke-width="10.4" x1="719" x2="713" y1="1021" y2="978"/>
    <line opacity="0.85" stroke="black" stroke-linecap="round" stroke-linejoin="round" stroke-width="9.2" x1="713" x2="717" y1="978" y2="972"/>
    <line opacity="0.85" stroke="black" stroke-linecap="round" stroke-linejoin="round" stroke-width="9.977708763999665" x1="717" x2="760" y1="972" y2="972"/>
    <line opacity="0.85" stroke="black" stroke-linecap="round" stroke-linejoin="round" stroke-width="11.955417527999327" x1="760" x2="771" y1="972" y2="1036"/>
    <line opacity="0.85" stroke="black" stroke-linecap="round" stroke-linejoin="round" stroke-width="13.15541752799933" x1="771" x2="771" y1="1036" y2="1036"/>
    <line opacity="0.85" stroke="black" stroke-linecap="round" stroke-linejoin="round" stroke-width="11.555417527999328" x1="771" x2="717" y1="1036" y2="1034"/>
    <line opacity="0.85" stroke="black" stroke-linecap="round" stroke-linejoin="round" stroke-width="10.31608599862114" x1="1437" x2="1171" y1="224" y2="199"/>
    <line opacity="0.85" stroke="black" stroke-linecap="round" stroke-linejoin="round" stroke-width="13.516085998621142" x1="1171" x2="1001" y1="199" y2="192"/>
    <line opacity="0.85" stroke="black" stroke-linecap="round" stroke-linejoin="round" stroke-width="15.0" x1="1001" x2="872" y1="192" y2="197"/>
    <line opacity="0.85" stroke="black" stroke-linecap="round" stroke-linejoin="round" stroke-width="15.0" x1="872" x2="798" y1="197" y2="211"/>
    <line opacity="0.85" stroke="black" stroke-linecap="round" stroke-linejoin="round" stroke-width="15.0" x1="798" x2="798" y1="211" y2="211"/>
    <line opacity="0.85" stroke="black" stroke-linecap="round" stroke-linejoin="round" stroke-width="13.886528620695529" x1="798" x2="792" y1="211" y2="206"/>
    <line opacity="0.85" stroke="black" stroke-linecap="round" stroke-linejoin="round" stroke-width="12.335770870942595" x1="792" x2="778" y1="206" y2="209"/>
    <line opacity="0.85" stroke="black" stroke-linecap="round" stroke-linejoin="round" stroke-width="9.97852787975498" x1="778" x2="756" y1="209" y2="228"/>
    <line opacity="0.85" stroke="black" stroke-linecap="round" stroke-linejoin="round" stroke-width="7.956373824500012" x1="756" x2="747" y1="228" y2="248"/>
    <line opacity="0.85" stroke="black" stroke-linecap="round" stroke-linejoin="round" stroke-width="7.556373824500012" x1="747" x2="746" y1="248" y2="283"/>
    <line opacity="0.85" stroke="black" stroke-linecap="round" stroke-linejoin="round" stroke-width="7.714153314314416" x1="746" x2="767" y1="283" y2="550"/>
    <line opacity="0.85" stroke="black" stroke-linecap="round" stroke-linejoin="round" stroke-width="7.664911064067352" x1="767" x2="809" y1="550" y2="994"/>
    <line opacity="0.85" stroke="black" stroke-linecap="round" stroke-linejoin="round" stroke-width="10.4" x1="809" x2="808" y1="994" y2="1017"/>
    <line opacity="0.85" stroke="black" stroke-linecap="round" stroke-linejoin="round" stroke-width="12.8" x1="808" x2="803" y1="1017" y2="1035"/>
    <line opacity="0.85" stroke="black" stroke-linecap="round" stroke-linejoin="round" stroke-width="14.777708763999662" x1="803" x2="803" y1="1035" y2="1035"/>
    <line opacity="0.85" stroke="black" stroke-linecap="round" stroke-linejoin="round" stroke-width="15.0" x1="803" x2="814" y1="1035" y2="1035"/>
    <line opacity="0.85" stroke="black" stroke-linecap="round" stroke-linejoin="round" stroke-width="15.0" x1="814" x2="833" y1="1035" y2="1026"/>
    <line opacity="0.85" stroke="black" stroke-linecap="round" stroke-linejoin="round" stroke-width="15.0" x1="833" x2="837" y1="1026" y2="1017"/>
    <line opacity="0.85" stroke="black" stroke-linecap="round" stroke-linejoin="round" stroke-width="15.0" x1="837" x2="839" y1="1017" y2="995"/>
    <line opacity="0.85" stroke="black" stroke-linecap="round" stroke-linejoin="round" stroke-width="15.0" x1="839" x2="797" y1="995" y2="549"/>
    <line opacity="0.85" stroke="black" stroke-linecap="round" stroke-linejoin="round" stroke-width="15.0" x1="797" x2="776" y1="549" y2="283"/>
    <line opacity="0.85" stroke="black" stroke-linecap="round" stroke-linejoin="round" stroke-width="15.0" x1="776" x2="776" y1="283" y2="254"/>
    <line opacity="0.85" stroke="black" stroke-linecap="round" stroke-linejoin="round" stroke-width="15.0" x1="776" x2="779" y1="254" y2="240"/>
    <line opacity="0.85" stroke="black" stroke-linecap="round" stroke-linejoin="round" stroke-width="14.217464317381644" x1="779" x2="798" y1="240" y2="211"/>
    <line opacity="0.85" stroke="black" stroke-linecap="round" stroke-linejoin="round" stroke-width="4.0" x1="803" x2="771" y1="1035" y2="1036"/>
    <line opacity="0.85" stroke="black" stroke-linecap="round" stroke-linejoin="round" stroke-width="3.126935119922378" x1="1522" x2="1511" y1="1075" y2="1071"/>
    <line opacity="0.85" stroke="black" stroke-linecap="round" stroke-linejoin="round" stroke-width="3.692620544871616" x1="1511" x2="1498" y1="1071" y2="1075"/>
  </g>
</svg>
