<?xml version="1.0" encoding="utf-8" ?>
<svg xmlns="http://www.w3.org/2000/svg" xmlns:ev="http://www.w3.org/2001/xml-events" xmlns:xlink="http://www.w3.org/1999/xlink" baseProfile="full" height="100%" preserveAspectRatio="xMidYMid meet" version="1.1" viewBox="-50 -50 1202 870" width="100%">
  <defs/>
  <g>
    <line opacity="0.85" stroke="black" stroke-linecap="round" stroke-linejoin="round" stroke-width="10.4" x1="393" x2="375" y1="189" y2="185"/>
    <line opacity="0.85" stroke="black" stroke-linecap="round" stroke-linejoin="round" stroke-width="14.4" x1="375" x2="345" y1="185" y2="188"/>
    <line opacity="0.85" stroke="black" stroke-linecap="round" stroke-linejoin="round" stroke-width="15.0" x1="345" x2="345" y1="188" y2="188"/>
    <line opacity="0.85" stroke="black" stroke-linecap="round" stroke-linejoin="round" stroke-width="15.0" x1="345" x2="187" y1="188" y2="182"/>
    <line opacity="0.85" stroke="black" stroke-linecap="round" stroke-linejoin="round" stroke-width="15.0" x1="187" x2="170" y1="182" y2="188"/>
    <line opacity="0.85" stroke="black" stroke-linecap="round" stroke-linejoin="round" stroke-width="15.0" x1="170" x2="161" y1="188" y2="200"/>
    <line opacity="0.85" stroke="black" stroke-linecap="round" stroke-linejoin="round" stroke-width="15.0" x1="161" x2="128" y1="200" y2="529"/>
    <line opacity="0.85" stroke="black" stroke-linecap="round" stroke-linejoin="round" stroke-width="15.0" x1="128" x2="130" y1="529" y2="554"/>
    <line opacity="0.85" stroke="black" stroke-linecap="round" stroke-linejoin="round" stroke-width="15.0" x1="130" x2="137" y1="554" y2="563"/>
    <line opacity="0.85" stroke="black" stroke-linecap="round" stroke-linejoin="round" stroke-width="15.0" x1="137" x2="148" y1="563" y2="570"/>
    <line opacity="0.85" stroke="black" stroke-linecap="round" stroke-linejoin="round" stroke-width="15.0" x1="148" x2="148" y1="570" y2="570"/>
    <line opacity="0.85" stroke="black" stroke-linecap="round" stroke-linejoin="round" stroke-width="13.337623981555993" x1="148" x2="155" y1="570" y2="564"/>
    <line opacity="0.85" stroke="black" stroke-linecap="round" stroke-linejoin="round" stroke-width="11.249806198638838" x1="155" x2="745" y1="564" y2="584"/>
    <line opacity="0.85" stroke="black" stroke-linecap="round" stroke-linejoin="round" stroke-width="9.674145349566484" x1="745" x2="765" y1="584" y2="582"/>
    <line opacity="0.85" stroke="black" stroke-linecap="round" stroke-linejoin="round" stroke-width="8.049242250247065" x1="765" x2="776" y1="582" y2="572"/>
    <line opacity="0.85" stroke="black" stroke-linecap="round" stroke-linejoin="round" stroke-width="8.049242250247064" x1="776" x2="780" y1="572" y2="558"/>
    <line opacity="0.85" stroke="black" stroke-linecap="round" stroke-linejoin="round" stroke-width="10.049242250247064" x1="780" x2="810" y1="558" y2="230"/>
    <line opacity="0.85" stroke="black" stroke-linecap="round" stroke-linejoin="round" stroke-width="12.049242250247064" x1="810" x2="815" y1="230" y2="220"/>
    <line opacity="0.85" stroke="black" stroke-linecap="round" stroke-linejoin="round" stroke-width="13.840930106817051" x1="815" x2="815" y1="220" y2="220"/>
    <line opacity="0.85" stroke="black" stroke-linecap="round" stroke-linejoin="round" stroke-width="15.0" x1="815" x2="806" y1="220" y2="207"/>
    <line opacity="0.85" stroke="black" stroke-linecap="round" stroke-linejoin="round" stroke-width="15.0" x1="806" x2="785" y1="207" y2="201"/>
    <line opacity="0.85" stroke="black" stroke-linecap="round" stroke-linejoin="round" stroke-width="15.0" x1="785" x2="393" y1="201" y2="189"/>
    <line opacity="0.85" stroke="black" stroke-linecap="round" stroke-linejoin="round" stroke-width="15.0" x1="393" x2="393" y1="189" y2="189"/>
    <line opacity="0.85" stroke="black" stroke-linecap="round" stroke-linejoin="round" stroke-width="15.0" x1="393" x2="399" y1="189" y2="211"/>
    <line opacity="0.85" stroke="black" stroke-linecap="round" stroke-linejoin="round" stroke-width="15.0" x1="399" x2="399" y1="211" y2="211"/>
    <line opacity="0.85" stroke="black" stroke-linecap="round" stroke-linejoin="round" stroke-width="14.016807622650756" x1="399" x2="396" y1="211" y2="224"/>
    <line opacity="0.85" stroke="black" stroke-linecap="round" stroke-linejoin="round" stroke-width="12.170873545504556" x1="396" x2="387" y1="224" y2="239"/>
    <line opacity="0.85" stroke="black" stroke-linecap="round" stroke-linejoin="round" stroke-width="12.170873545504557" x1="387" x2="373" y1="239" y2="247"/>
    <line opacity="0.85" stroke="black" stroke-linecap="round" stroke-linejoin="round" stroke-width="12.170873545504557" x1="373" x2="359" y1="247" y2="249"/>
    <line opacity="0.85" stroke="black" stroke-linecap="round" stroke-linejoin="round" stroke-width="12.578057317623895" x1="359" x2="359" y1="249" y2="249"/>
    <line opacity="0.85" stroke="black" stroke-linecap="round" stroke-linejoin="round" stroke-width="12.578057317623896" x1="359" x2="348" y1="249" y2="245"/>
    <line opacity="0.85" stroke="black" stroke-linecap="round" stroke-linejoin="round" stroke-width="12.857096406889381" x1="348" x2="341" y1="245" y2="238"/>
    <line opacity="0.85" stroke="black" stroke-linecap="round" stroke-linejoin="round" stroke-width="12.490201419008669" x1="341" x2="335" y1="238" y2="225"/>
    <line opacity="0.85" stroke="black" stroke-linecap="round" stroke-linejoin="round" stroke-width="11.290201419008667" x1="335" x2="335" y1="225" y2="225"/>
    <line opacity="0.85" stroke="black" stroke-linecap="round" stroke-linejoin="round" stroke-width="10.171172234221125" x1="335" x2="226" y1="225" y2="221"/>
    <line opacity="0.85" stroke="black" stroke-linecap="round" stroke-linejoin="round" stroke-width="9.557672784671237" x1="226" x2="212" y1="221" y2="225"/>
    <line opacity="0.85" stroke="black" stroke-linecap="round" stroke-linejoin="round" stroke-width="8.724567772551948" x1="212" x2="204" y1="225" y2="233"/>
    <line opacity="0.85" stroke="black" stroke-linecap="round" stroke-linejoin="round" stroke-width="8.8527124554058" x1="204" x2="201" y1="233" y2="240"/>
    <line opacity="0.85" stroke="black" stroke-linecap="round" stroke-linejoin="round" stroke-width="9.81396215037894" x1="201" x2="172" y1="240" y2="544"/>
    <line opacity="0.85" stroke="black" stroke-linecap="round" stroke-linejoin="round" stroke-width="10.634483339990297" x1="172" x2="172" y1="544" y2="544"/>
    <line opacity="0.85" stroke="black" stroke-linecap="round" stroke-linejoin="round" stroke-width="11.139307012597033" x1="172" x2="164" y1="544" y2="542"/>
    <line opacity="0.85" stroke="black" stroke-linecap="round" stroke-linejoin="round" stroke-width="11.539307012597034" x1="164" x2="159" y1="542" y2="535"/>
    <line opacity="0.85" stroke="black" stroke-linecap="round" stroke-linejoin="round" stroke-width="11.132123240477695" x1="159" x2="158" y1="535" y2="515"/>
    <line opacity="0.85" stroke="black" stroke-linecap="round" stroke-linejoin="round" stroke-width="10.724939468358357" x1="158" x2="187" y1="515" y2="220"/>
    <line opacity="0.85" stroke="black" stroke-linecap="round" stroke-linejoin="round" stroke-width="10.862197768561405" x1="187" x2="197" y1="220" y2="210"/>
    <line opacity="0.85" stroke="black" stroke-linecap="round" stroke-linejoin="round" stroke-width="11.391413418707351" x1="197" x2="203" y1="210" y2="209"/>
    <line opacity="0.85" stroke="black" stroke-linecap="round" stroke-linejoin="round" stroke-width="12.0746949917071" x1="203" x2="335" y1="209" y2="213"/>
    <line opacity="0.85" stroke="black" stroke-linecap="round" stroke-linejoin="round" stroke-width="12.183370768650251" x1="335" x2="335" y1="213" y2="213"/>
    <line opacity="0.85" stroke="black" stroke-linecap="round" stroke-linejoin="round" stroke-width="14.02930484579645" x1="335" x2="342" y1="213" y2="201"/>
    <line opacity="0.85" stroke="black" stroke-linecap="round" stroke-linejoin="round" stroke-width="11.62930484579645" x1="342" x2="345" y1="201" y2="188"/>
    <line opacity="0.85" stroke="black" stroke-linecap="round" stroke-linejoin="round" stroke-width="7.36124969497314" x1="172" x2="196" y1="544" y2="547"/>
    <line opacity="0.85" stroke="black" stroke-linecap="round" stroke-linejoin="round" stroke-width="10.407558937318704" x1="196" x2="437" y1="547" y2="555"/>
    <line opacity="0.85" stroke="black" stroke-linecap="round" stroke-linejoin="round" stroke-width="13.453868179664267" x1="437" x2="447" y1="555" y2="552"/>
    <line opacity="0.85" stroke="black" stroke-linecap="round" stroke-linejoin="round" stroke-width="12.892618484691127" x1="447" x2="447" y1="552" y2="552"/>
    <line opacity="0.85" stroke="black" stroke-linecap="round" stroke-linejoin="round" stroke-width="13.321045609437316" x1="447" x2="430" y1="552" y2="529"/>
    <line opacity="0.85" stroke="black" stroke-linecap="round" stroke-linejoin="round" stroke-width="13.749472734183506" x1="430" x2="428" y1="529" y2="521"/>
    <line opacity="0.85" stroke="black" stroke-linecap="round" stroke-linejoin="round" stroke-width="13.264413186811083" x1="428" x2="428" y1="521" y2="521"/>
    <line opacity="0.85" stroke="black" stroke-linecap="round" stroke-linejoin="round" stroke-width="12.37216986731932" x1="428" x2="418" y1="521" y2="517"/>
    <line opacity="0.85" stroke="black" stroke-linecap="round" stroke-linejoin="round" stroke-width="12.526235790173123" x1="418" x2="409" y1="517" y2="508"/>
    <line opacity="0.85" stroke="black" stroke-linecap="round" stroke-linejoin="round" stroke-width="12.030189423365053" x1="409" x2="405" y1="508" y2="498"/>
    <line opacity="0.85" stroke="black" stroke-linecap="round" stroke-linejoin="round" stroke-width="11.464503998415816" x1="405" x2="407" y1="498" y2="480"/>
    <line opacity="0.85" stroke="black" stroke-linecap="round" stroke-linejoin="round" stroke-width="11.057320226296477" x1="407" x2="420" y1="480" y2="464"/>
    <line opacity="0.85" stroke="black" stroke-linecap="round" stroke-linejoin="round" stroke-width="11.057320226296477" x1="420" x2="435" y1="464" y2="458"/>
    <line opacity="0.85" stroke="black" stroke-linecap="round" stroke-linejoin="round" stroke-width="11.165996003239629" x1="435" x2="455" y1="458" y2="462"/>
    <line opacity="0.85" stroke="black" stroke-linecap="round" stroke-linejoin="round" stroke-width="11.63361524530151" x1="455" x2="462" y1="462" y2="469"/>
    <line opacity="0.85" stroke="black" stroke-linecap="round" stroke-linejoin="round" stroke-width="12.170873545504557" x1="462" x2="468" y1="469" y2="482"/>
    <line opacity="0.85" stroke="black" stroke-linecap="round" stroke-linejoin="round" stroke-width="12.170873545504557" x1="468" x2="468" y1="482" y2="482"/>
    <line opacity="0.85" stroke="black" stroke-linecap="round" stroke-linejoin="round" stroke-width="12.279549322447707" x1="468" x2="465" y1="482" y2="497"/>
    <line opacity="0.85" stroke="black" stroke-linecap="round" stroke-linejoin="round" stroke-width="12.170873545504556" x1="465" x2="454" y1="497" y2="512"/>
    <line opacity="0.85" stroke="black" stroke-linecap="round" stroke-linejoin="round" stroke-width="12.199300670250746" x1="454" x2="443" y1="512" y2="518"/>
    <line opacity="0.85" stroke="black" stroke-linecap="round" stroke-linejoin="round" stroke-width="9.399300670250746" x1="443" x2="428" y1="518" y2="521"/>
    <line opacity="0.85" stroke="black" stroke-linecap="round" stroke-linejoin="round" stroke-width="2.433105012119288" x1="335" x2="335" y1="225" y2="213"/>
    <line opacity="0.85" stroke="black" stroke-linecap="round" stroke-linejoin="round" stroke-width="10.196724413014511" x1="148" x2="154" y1="570" y2="580"/>
    <line opacity="0.85" stroke="black" stroke-linecap="round" stroke-linejoin="round" stroke-width="13.796724413014513" x1="154" x2="172" y1="580" y2="597"/>
    <line opacity="0.85" stroke="black" stroke-linecap="round" stroke-linejoin="round" stroke-width="15.0" x1="172" x2="194" y1="597" y2="604"/>
    <line opacity="0.85" stroke="black" stroke-linecap="round" stroke-linejoin="round" stroke-width="15.0" x1="194" x2="759" y1="604" y2="623"/>
    <line opacity="0.85" stroke="black" stroke-linecap="round" stroke-linejoin="round" stroke-width="15.0" x1="759" x2="791" y1="623" y2="623"/>
    <line opacity="0.85" stroke="black" stroke-linecap="round" stroke-linejoin="round" stroke-width="15.0" x1="791" x2="811" y1="623" y2="616"/>
    <line opacity="0.85" stroke="black" stroke-linecap="round" stroke-linejoin="round" stroke-width="15.0" x1="811" x2="820" y1="616" y2="601"/>
    <line opacity="0.85" stroke="black" stroke-linecap="round" stroke-linejoin="round" stroke-width="15.0" x1="820" x2="821" y1="601" y2="586"/>
    <line opacity="0.85" stroke="black" stroke-linecap="round" stroke-linejoin="round" stroke-width="15.0" x1="821" x2="822" y1="586" y2="585"/>
    <line opacity="0.85" stroke="black" stroke-linecap="round" stroke-linejoin="round" stroke-width="15.0" x1="822" x2="851" y1="585" y2="263"/>
    <line opacity="0.85" stroke="black" stroke-linecap="round" stroke-linejoin="round" stroke-width="15.0" x1="851" x2="849" y1="263" y2="254"/>
    <line opacity="0.85" stroke="black" stroke-linecap="round" stroke-linejoin="round" stroke-width="15.0" x1="849" x2="841" y1="254" y2="242"/>
    <line opacity="0.85" stroke="black" stroke-linecap="round" stroke-linejoin="round" stroke-width="15.0" x1="841" x2="823" y1="242" y2="224"/>
    <line opacity="0.85" stroke="black" stroke-linecap="round" stroke-linejoin="round" stroke-width="14.393237063961323" x1="823" x2="815" y1="224" y2="220"/>
    <line opacity="0.85" stroke="black" stroke-linecap="round" stroke-linejoin="round" stroke-width="4.897056274847714" x1="366" x2="356" y1="200" y2="205"/>
    <line opacity="0.85" stroke="black" stroke-linecap="round" stroke-linejoin="round" stroke-width="6.5462985250947785" x1="356" x2="349" y1="205" y2="219"/>
    <line opacity="0.85" stroke="black" stroke-linecap="round" stroke-linejoin="round" stroke-width="8.146298525094778" x1="349" x2="356" y1="219" y2="232"/>
    <line opacity="0.85" stroke="black" stroke-linecap="round" stroke-linejoin="round" stroke-width="7.988519035280374" x1="356" x2="366" y1="232" y2="234"/>
    <line opacity="0.85" stroke="black" stroke-linecap="round" stroke-linejoin="round" stroke-width="7.89146276043266" x1="366" x2="376" y1="234" y2="231"/>
    <line opacity="0.85" stroke="black" stroke-linecap="round" stroke-linejoin="round" stroke-width="7.940705010679724" x1="376" x2="384" y1="231" y2="218"/>
    <line opacity="0.85" stroke="black" stroke-linecap="round" stroke-linejoin="round" stroke-width="7.733683270618256" x1="384" x2="382" y1="218" y2="208"/>
    <line opacity="0.85" stroke="black" stroke-linecap="round" stroke-linejoin="round" stroke-width="7.733683270618256" x1="382" x2="375" y1="208" y2="201"/>
    <line opacity="0.85" stroke="black" stroke-linecap="round" stroke-linejoin="round" stroke-width="6.29146276043266" x1="375" x2="367" y1="201" y2="200"/>
    <line opacity="0.85" stroke="black" stroke-linecap="round" stroke-linejoin="round" stroke-width="5.684441020371192" x1="399" x2="421" y1="211" y2="219"/>
    <line opacity="0.85" stroke="black" stroke-linecap="round" stroke-linejoin="round" stroke-width="8.084441020371193" x1="421" x2="421" y1="219" y2="219"/>
    <line opacity="0.85" stroke="black" stroke-linecap="round" stroke-linejoin="round" stroke-width="10.084441020371193" x1="421" x2="428" y1="219" y2="216"/>
    <line opacity="0.85" stroke="black" stroke-linecap="round" stroke-linejoin="round" stroke-width="9.284441020371192" x1="428" x2="459" y1="216" y2="216"/>
    <line opacity="0.85" stroke="black" stroke-linecap="round" stroke-linejoin="round" stroke-width="10.174601268123716" x1="459" x2="768" y1="216" y2="225"/>
    <line opacity="0.85" stroke="black" stroke-linecap="round" stroke-linejoin="round" stroke-width="11.06476151587624" x1="768" x2="782" y1="225" y2="227"/>
    <line opacity="0.85" stroke="black" stroke-linecap="round" stroke-linejoin="round" stroke-width="10.99714227381436" x1="782" x2="788" y1="227" y2="232"/>
    <line opacity="0.85" stroke="black" stroke-linecap="round" stroke-linejoin="round" stroke-width="11.32952303175248" x1="788" x2="788" y1="232" y2="238"/>
    <line opacity="0.85" stroke="black" stroke-linecap="round" stroke-linejoin="round" stroke-width="10.929523031752481" x1="788" x2="788" y1="238" y2="238"/>
    <line opacity="0.85" stroke="black" stroke-linecap="round" stroke-linejoin="round" stroke-width="10.929523031752481" x1="788" x2="439" y1="238" y2="228"/>
    <line opacity="0.85" stroke="black" stroke-linecap="round" stroke-linejoin="round" stroke-width="10.929523031752481" x1="439" x2="429" y1="228" y2="230"/>
    <line opacity="0.85" stroke="black" stroke-linecap="round" stroke-linejoin="round" stroke-width="10.751208196668163" x1="429" x2="429" y1="230" y2="230"/>
    <line opacity="0.85" stroke="black" stroke-linecap="round" stroke-linejoin="round" stroke-width="10.681569138526996" x1="429" x2="431" y1="230" y2="260"/>
    <line opacity="0.85" stroke="black" stroke-linecap="round" stroke-linejoin="round" stroke-width="11.235635061380796" x1="431" x2="425" y1="260" y2="271"/>
    <line opacity="0.85" stroke="black" stroke-linecap="round" stroke-linejoin="round" stroke-width="11.057320226296477" x1="425" x2="410" y1="271" y2="282"/>
    <line opacity="0.85" stroke="black" stroke-linecap="round" stroke-linejoin="round" stroke-width="10.98768116815531" x1="410" x2="389" y1="282" y2="283"/>
    <line opacity="0.85" stroke="black" stroke-linecap="round" stroke-linejoin="round" stroke-width="11.096356945098462" x1="389" x2="381" y1="283" y2="279"/>
    <line opacity="0.85" stroke="black" stroke-linecap="round" stroke-linejoin="round" stroke-width="11.63361524530151" x1="381" x2="363" y1="279" y2="261"/>
    <line opacity="0.85" stroke="black" stroke-linecap="round" stroke-linejoin="round" stroke-width="9.479549322447706" x1="363" x2="359" y1="261" y2="249"/>
    <line opacity="0.85" stroke="black" stroke-linecap="round" stroke-linejoin="round" stroke-width="4.33238075793812" x1="429" x2="420" y1="230" y2="224"/>
    <line opacity="0.85" stroke="black" stroke-linecap="round" stroke-linejoin="round" stroke-width="5.774601268123716" x1="420" x2="421" y1="224" y2="219"/>
    <line opacity="0.85" stroke="black" stroke-linecap="round" stroke-linejoin="round" stroke-width="7.132380757938121" x1="788" x2="788" y1="238" y2="268"/>
    <line opacity="0.85" stroke="black" stroke-linecap="round" stroke-linejoin="round" stroke-width="9.395122457735074" x1="788" x2="762" y1="268" y2="540"/>
    <line opacity="0.85" stroke="black" stroke-linecap="round" stroke-linejoin="round" stroke-width="11.434730263172188" x1="762" x2="757" y1="540" y2="556"/>
    <line opacity="0.85" stroke="black" stroke-linecap="round" stroke-linejoin="round" stroke-width="11.502349505234069" x1="757" x2="742" y1="556" y2="564"/>
    <line opacity="0.85" stroke="black" stroke-linecap="round" stroke-linejoin="round" stroke-width="11.502349505234069" x1="742" x2="713" y1="564" y2="564"/>
    <line opacity="0.85" stroke="black" stroke-linecap="round" stroke-linejoin="round" stroke-width="11.502349505234067" x1="713" x2="489" y1="564" y2="556"/>
    <line opacity="0.85" stroke="black" stroke-linecap="round" stroke-linejoin="round" stroke-width="11.27921561087423" x1="489" x2="489" y1="556" y2="556"/>
    <line opacity="0.85" stroke="black" stroke-linecap="round" stroke-linejoin="round" stroke-width="11.393673728290917" x1="489" x2="489" y1="556" y2="550"/>
    <line opacity="0.85" stroke="black" stroke-linecap="round" stroke-linejoin="round" stroke-width="11.147739651144718" x1="489" x2="501" y1="550" y2="530"/>
    <line opacity="0.85" stroke="black" stroke-linecap="round" stroke-linejoin="round" stroke-width="11.01048135094167" x1="501" x2="500" y1="530" y2="511"/>
    <line opacity="0.85" stroke="black" stroke-linecap="round" stroke-linejoin="round" stroke-width="11.410481350941671" x1="500" x2="477" y1="511" y2="484"/>
    <line opacity="0.85" stroke="black" stroke-linecap="round" stroke-linejoin="round" stroke-width="9.370873545504557" x1="477" x2="468" y1="484" y2="482"/>
    <line opacity="0.85" stroke="black" stroke-linecap="round" stroke-linejoin="round" stroke-width="4.849242250247064" x1="435" x2="427" y1="472" y2="475"/>
    <line opacity="0.85" stroke="black" stroke-linecap="round" stroke-linejoin="round" stroke-width="6.29146276043266" x1="427" x2="419" y1="475" y2="488"/>
    <line opacity="0.85" stroke="black" stroke-linecap="round" stroke-linejoin="round" stroke-width="7.940705010679724" x1="419" x2="420" y1="488" y2="498"/>
    <line opacity="0.85" stroke="black" stroke-linecap="round" stroke-linejoin="round" stroke-width="7.940705010679725" x1="420" x2="426" y1="498" y2="504"/>
    <line opacity="0.85" stroke="black" stroke-linecap="round" stroke-linejoin="round" stroke-width="7.940705010679724" x1="426" x2="435" y1="504" y2="506"/>
    <line opacity="0.85" stroke="black" stroke-linecap="round" stroke-linejoin="round" stroke-width="7.9899472609267885" x1="435" x2="444" y1="506" y2="503"/>
    <line opacity="0.85" stroke="black" stroke-linecap="round" stroke-linejoin="round" stroke-width="8.147726750741192" x1="444" x2="451" y1="503" y2="496"/>
    <line opacity="0.85" stroke="black" stroke-linecap="round" stroke-linejoin="round" stroke-width="8.147726750741194" x1="451" x2="453" y1="496" y2="489"/>
    <line opacity="0.85" stroke="black" stroke-linecap="round" stroke-linejoin="round" stroke-width="7.9899472609267885" x1="453" x2="451" y1="489" y2="479"/>
    <line opacity="0.85" stroke="black" stroke-linecap="round" stroke-linejoin="round" stroke-width="7.940705010679725" x1="451" x2="445" y1="479" y2="473"/>
    <line opacity="0.85" stroke="black" stroke-linecap="round" stroke-linejoin="round" stroke-width="6.29146276043266" x1="445" x2="436" y1="473" y2="472"/>
    <line opacity="0.85" stroke="black" stroke-linecap="round" stroke-linejoin="round" stroke-width="2.4000000000000004" x1="489" x2="447" y1="556" y2="552"/>
  </g>
</svg>
