<?xml version="1.0" encoding="utf-8" ?>
<svg xmlns="http://www.w3.org/2000/svg" xmlns:ev="http://www.w3.org/2001/xml-events" xmlns:xlink="http://www.w3.org/1999/xlink" baseProfile="full" height="100%" preserveAspectRatio="xMidYMid meet" version="1.1" viewBox="-50 -50 1486 1258" width="100%">
  <defs/>
  <g>
    <polyline fill="none" opacity="0.85" points="94,212 91,217 93,224 93,224 104,224 104,224 102,217 94,212 94,212 101,193 113,186 113,186 126,174 151,165 191,159 237,157 438,164 637,181 769,200 861,219 937,243 986,265 1016,283 1017,283 1053,310 1071,328 1093,357 1113,401 1124,452 1132,557 1132,636 1128,700 1118,782 1112,807 1103,830 1091,847 1066,866 1023,877 724,864 490,860 490,860 316,859 316,859 287,859 287,859 169,860 137,857 92,845 81,834 81,834 191,609 205,567 216,506 215,451 202,393 172,319 125,233 119,217 117,190 113,186" stroke="black" stroke-linecap="round" stroke-linejoin="round" stroke-width="5.720000000000001"/>
    <polyline fill="none" opacity="0.85" points="93,224 98,250 131,319 150,369 151,373 164,420 170,471 170,513 166,543 156,584 141,625 117,673 89,719 77,746 65,791 67,811 67,811 76,807 83,796 166,630 187,575 200,506 199,451 180,375 146,299 104,224" stroke="black" stroke-linecap="round" stroke-linejoin="round" stroke-width="5.661538461538462"/>
    <polyline fill="none" opacity="0.85" points="395,247 396,414 393,417 393,417 387,414 354,412 324,414 324,414 309,416 299,421 292,427 289,438 289,438 282,442 284,445 284,445 281,444 277,452 272,477 280,752 280,752 198,754 191,753 184,747 186,729 212,655 236,574 247,524 249,490 244,454 232,412 210,352 174,270 173,253 180,249 240,242 310,242 395,247 395,247 424,248 424,248 540,252 567,255 571,258 571,258 588,257 650,266 811,298 882,324 937,357 967,388 984,422 1008,521 1015,604 1009,660 1001,688 989,714 969,736 941,750 919,756 873,760 728,753 575,751 571,748 571,748 562,751 423,750 423,750 424,497 419,491 419,491 404,492 395,499 395,499 386,498 386,498 381,489 387,453 386,431 393,420 393,420 393,417 393,420 404,425 419,426 419,426 424,419 424,248" stroke="black" stroke-linecap="round" stroke-linejoin="round" stroke-width="5.763636363636365"/>
    <polyline fill="none" opacity="0.85" points="81,834 73,830 67,811" stroke="black" stroke-linecap="round" stroke-linejoin="round" stroke-width="5.866666666666667"/>
    <polyline fill="none" opacity="0.85" points="284,445 291,449 291,449 292,442 289,438 289,438 298,439 299,439 304,441 308,456 303,473 298,475 293,471 291,449" stroke="black" stroke-linecap="round" stroke-linejoin="round" stroke-width="5.828571428571429"/>
    <polyline fill="none" opacity="0.85" points="324,414 331,436 330,461 324,477 306,506 303,517 308,752 308,752 280,752" stroke="black" stroke-linecap="round" stroke-linejoin="round" stroke-width="5.777777777777778"/>
    <polyline fill="none" opacity="0.85" points="308,752 395,750 395,750 395,665 395,665 381,664 368,650 361,631 356,601 356,551 361,515 366,506 386,498" stroke="black" stroke-linecap="round" stroke-linejoin="round" stroke-width="5.7846153846153845"/>
    <polyline fill="none" opacity="0.85" points="395,665 395,499" stroke="black" stroke-linecap="round" stroke-linejoin="round" stroke-width="6.0"/>
    <polyline fill="none" opacity="0.85" points="419,491 424,467 424,450 419,426" stroke="black" stroke-linecap="round" stroke-linejoin="round" stroke-width="5.800000000000001"/>
    <polyline fill="none" opacity="0.85" points="423,750 395,750" stroke="black" stroke-linecap="round" stroke-linejoin="round" stroke-width="6.0"/>
    <polyline fill="none" opacity="0.85" points="571,258 572,431 572,431 592,430 603,433 603,433 623,433 624,433 651,436 665,440 672,446 677,464 667,507 655,520 617,536 589,554 572,558 572,558 572,515 572,515 572,502 572,502 572,431" stroke="black" stroke-linecap="round" stroke-linejoin="round" stroke-width="5.808695652173912"/>
    <polyline fill="none" opacity="0.85" points="572,502 586,503 595,499 597,503 597,503 596,497 601,487 601,487 602,442 603,438 603,433" stroke="black" stroke-linecap="round" stroke-linejoin="round" stroke-width="5.963636363636363"/>
    <polyline fill="none" opacity="0.85" points="608,445 603,438 603,438 602,442 602,442 608,445 608,445 612,471 608,488 608,488 601,487" stroke="black" stroke-linecap="round" stroke-linejoin="round" stroke-width="5.963636363636363"/>
    <polyline fill="none" opacity="0.85" points="608,488 603,502 597,503 597,503 599,507 593,511 572,515" stroke="black" stroke-linecap="round" stroke-linejoin="round" stroke-width="5.942857142857143"/>
    <polyline fill="none" opacity="0.85" points="595,502 597,503" stroke="black" stroke-linecap="round" stroke-linejoin="round" stroke-width="6.0"/>
    <polyline fill="none" opacity="0.85" points="571,748 572,558" stroke="black" stroke-linecap="round" stroke-linejoin="round" stroke-width="6.0"/>
    <polyline fill="none" opacity="0.85" points="287,859 296,1096 298,1100 307,1102 329,1101 329,1101 328,983 345,980 345,980 342,935 338,929 326,924 321,918 315,872 316,859" stroke="black" stroke-linecap="round" stroke-linejoin="round" stroke-width="5.786666666666667"/>
    <polyline fill="none" opacity="0.85" points="490,860 489,894 494,918 512,929 519,952 515,983 498,986 498,986 493,980 345,980" stroke="black" stroke-linecap="round" stroke-linejoin="round" stroke-width="5.8"/>
    <polyline fill="none" opacity="0.85" points="498,986 497,1084 496,1094 491,1101 329,1101" stroke="black" stroke-linecap="round" stroke-linejoin="round" stroke-width="5.76"/>
    <polyline fill="none" opacity="0.85" points="371,1027 360,1035 361,1047 371,1054 379,1051 383,1041 379,1030 372,1027" stroke="black" stroke-linecap="round" stroke-linejoin="round" stroke-width="5.6000000000000005"/>
    <polyline fill="none" opacity="0.85" points="450,1027 439,1035 440,1047 450,1054 457,1052 462,1041 460,1032 451,1027" stroke="black" stroke-linecap="round" stroke-linejoin="round" stroke-width="5.6000000000000005"/>
  </g>
</svg>
