<?xml version="1.0" encoding="utf-8" ?>
<svg xmlns="http://www.w3.org/2000/svg" xmlns:ev="http://www.w3.org/2001/xml-events" xmlns:xlink="http://www.w3.org/1999/xlink" baseProfile="full" height="100%" version="1.1" width="100%">
  <defs/>
  <polyline fill="none" opacity="0.85" points="393,189 375,185 345,188 345,188 187,182 170,188 161,200 128,529 130,554 137,563 148,570 148,570 155,564 745,584 765,582 776,572 780,558 810,230 815,220 815,220 806,207 785,201 393,189 393,189 399,211 399,211 396,224 387,239 373,247 359,249 359,249 348,245 341,238 335,225 335,225 226,221 212,225 204,233 201,240 172,544 172,544 164,542 159,535 158,515 187,220 197,210 203,209 335,213 335,213 342,201 345,188" stroke="black" stroke-linecap="round" stroke-linejoin="round" stroke-width="5.75686274509804"/>
  <polyline fill="none" opacity="0.85" points="172,544 196,547 437,555 447,552 447,552 430,529 428,521 428,521 418,517 409,508 405,498 407,480 420,464 435,458 455,462 462,469 468,482 468,482 465,497 454,512 443,518 428,521" stroke="black" stroke-linecap="round" stroke-linejoin="round" stroke-width="5.745454545454546"/>
  <polyline fill="none" opacity="0.85" points="335,225 335,213" stroke="black" stroke-linecap="round" stroke-linejoin="round" stroke-width="6.0"/>
  <polyline fill="none" opacity="0.85" points="148,570 154,580 172,597 194,604 759,623 791,623 811,616 820,601 821,586 822,585 851,263 849,254 841,242 823,224 815,220" stroke="black" stroke-linecap="round" stroke-linejoin="round" stroke-width="5.653333333333334"/>
  <polyline fill="none" opacity="0.85" points="366,200 356,205 349,219 356,232 366,234 376,231 384,218 382,208 375,201 367,200" stroke="black" stroke-linecap="round" stroke-linejoin="round" stroke-width="5.6000000000000005"/>
  <polyline fill="none" opacity="0.85" points="399,211 421,219 421,219 428,216 459,216 768,225 782,227 788,232 788,238 788,238 439,228 429,230 429,230 431,260 425,271 410,282 389,283 381,279 363,261 359,249" stroke="black" stroke-linecap="round" stroke-linejoin="round" stroke-width="5.76"/>
  <polyline fill="none" opacity="0.85" points="429,230 420,224 421,219" stroke="black" stroke-linecap="round" stroke-linejoin="round" stroke-width="6.0"/>
  <polyline fill="none" opacity="0.85" points="788,238 788,268 762,540 757,556 742,564 713,564 489,556 489,556 489,550 501,530 500,511 477,484 468,482" stroke="black" stroke-linecap="round" stroke-linejoin="round" stroke-width="5.723076923076923"/>
  <polyline fill="none" opacity="0.85" points="435,472 427,475 419,488 420,498 426,504 435,506 444,503 451,496 453,489 451,479 445,473 436,472" stroke="black" stroke-linecap="round" stroke-linejoin="round" stroke-width="5.6000000000000005"/>
  <polyline fill="none" opacity="0.85" points="489,556 447,552" stroke="black" stroke-linecap="round" stroke-linejoin="round" stroke-width="6.0"/>
</svg>
