<?xml version="1.0" encoding="utf-8" ?>
<svg xmlns="http://www.w3.org/2000/svg" xmlns:ev="http://www.w3.org/2001/xml-events" xmlns:xlink="http://www.w3.org/1999/xlink" baseProfile="tiny" height="100%" version="1.2" viewBox="77,103,1456,982" width="100%">
  <defs/>
  <path d="M1499.0,1075.0 L1505.0,1075.0 L1507.0,1072.0 L1510.0,1070.0 L1512.0,1070.0 L1514.0,1072.0 L1515.0,1072.0 L1516.0,1075.0 L1523.0,1075.0 L1512.0,1064.0 L1510.0,1064.0" fill="none" stroke="black" stroke-linecap="round" stroke-linejoin="round" stroke-width="3.0"/>
  <path d="M111.0,201.0 L97.0,233.0 L127.0,249.0 L493.0,198.0 L528.0,203.0 L559.0,230.0 L588.0,304.0 L664.0,998.0 L692.0,1031.0 L822.0,1032.0 L838.0,1006.0 L775.0,252.0 L796.0,210.0 L786.0,207.0 L1060.0,192.0 L1424.0,224.0 L1467.0,213.0 L1456.0,186.0 L1382.0,170.0 L873.0,123.0 L411.0,147.0" fill="none" stroke="black" stroke-linecap="round" stroke-linejoin="round" stroke-width="3.0"/>
  <path d="M716.0,977.0 L719.0,975.0 L760.0,977.0 L761.0,981.0 L765.0,1017.0 L769.0,1030.0 L747.0,1030.0 L727.0,1029.0 L725.0,1027.0 L721.0,1017.0" fill="none" stroke="black" stroke-linecap="round" stroke-linejoin="round" stroke-width="3.0"/>
  <path d="M789.0,209.0 L792.0,212.0 L780.0,223.0 L770.0,248.0 L770.0,298.0 L833.0,1000.0 L829.0,1021.0 L808.0,1029.0 L813.0,995.0 L750.0,289.0 L750.0,257.0 L756.0,236.0 L770.0,219.0" fill="none" stroke="black" stroke-linecap="round" stroke-linejoin="round" stroke-width="3.0"/>
  <path d="M1430.0,209.0 L1432.0,219.0 L1167.0,192.0 L943.0,186.0 L801.0,201.0 L759.0,221.0 L744.0,286.0 L807.0,994.0 L795.0,1030.0 L775.0,1027.0 L764.0,970.0 L711.0,970.0 L718.0,1029.0 L690.0,1024.0 L670.0,998.0 L593.0,294.0 L561.0,222.0 L500.0,192.0 L148.0,244.0 L102.0,230.0 L332.0,178.0 L763.0,145.0 L1129.0,163.0" fill="none" stroke="black" stroke-linecap="round" stroke-linejoin="round" stroke-width="3.0"/>
  <path d="M104.0,218.0 L143.0,195.0 L302.0,166.0 L752.0,129.0 L960.0,132.0 L1168.0,148.0 L1433.0,185.0 L1462.0,203.0 L1458.0,217.0 L1442.0,219.0 L1432.0,203.0 L1193.0,164.0 L945.0,143.0 L773.0,139.0 L372.0,167.0 L224.0,189.0" fill="none" stroke="black" stroke-linecap="round" stroke-linejoin="round" stroke-width="3.0"/>
  <path d="M103.0,195.0 L88.0,241.0 L122.0,259.0 L497.0,208.0 L551.0,235.0 L577.0,293.0 L655.0,1003.0 L689.0,1041.0 L761.0,1046.0 L827.0,1041.0 L848.0,1013.0 L789.0,345.0 L793.0,232.0 L829.0,213.0 L934.0,202.0 L1156.0,207.0 L1464.0,232.0 L1478.0,214.0 L1456.0,175.0 L1104.0,126.0 L859.0,113.0 L387.0,140.0 L185.0,169.0" fill="none" stroke="black" stroke-linecap="round" stroke-linejoin="round" stroke-width="3.0"/>
  <path d="M107.0,200.0 L194.0,173.0 L373.0,147.0 L873.0,119.0 L1382.0,166.0 L1456.0,182.0 L1471.0,213.0 L1455.0,228.0 L1060.0,196.0 L909.0,197.0 L800.0,213.0 L779.0,252.0 L842.0,1006.0 L822.0,1036.0 L692.0,1035.0 L660.0,998.0 L584.0,304.0 L555.0,230.0 L528.0,207.0 L493.0,202.0 L127.0,253.0 L93.0,233.0" fill="none" stroke="black" stroke-linecap="round" stroke-linejoin="round" stroke-width="3.0"/>
</svg>
