<?xml version="1.0" encoding="utf-8" ?>
<svg xmlns="http://www.w3.org/2000/svg" xmlns:ev="http://www.w3.org/2001/xml-events" xmlns:xlink="http://www.w3.org/1999/xlink" baseProfile="tiny" height="100%" version="1.2" viewBox="48,141,1103,980" width="100%">
  <defs/>
  <path d="M448.0,1025.0 L444.0,1027.0 L439.0,1032.0 L437.0,1037.0 L437.0,1046.0 L440.0,1052.0 L444.0,1056.0 L449.0,1058.0 L455.0,1058.0 L459.0,1056.0 L464.0,1051.0 L466.0,1047.0 L466.0,1036.0 L464.0,1032.0 L462.0,1030.0 L462.0,1029.0 L461.0,1028.0 L460.0,1028.0 L458.0,1026.0 L455.0,1025.0" fill="none" stroke="black" stroke-linecap="round" stroke-linejoin="round" stroke-width="3.0"/>
  <path d="M449.0,1031.0 L455.0,1031.0 L459.0,1035.0 L460.0,1037.0 L461.0,1040.0 L461.0,1043.0 L460.0,1046.0 L459.0,1048.0 L456.0,1051.0 L454.0,1052.0 L449.0,1052.0 L447.0,1051.0 L445.0,1049.0 L443.0,1045.0 L443.0,1038.0 L445.0,1034.0 L447.0,1032.0" fill="none" stroke="black" stroke-linecap="round" stroke-linejoin="round" stroke-width="3.0"/>
  <path d="M369.0,1025.0 L365.0,1027.0 L360.0,1032.0 L358.0,1037.0 L358.0,1046.0 L360.0,1051.0 L365.0,1056.0 L370.0,1058.0 L376.0,1058.0 L380.0,1056.0 L385.0,1051.0 L387.0,1046.0 L387.0,1037.0 L385.0,1032.0 L379.0,1026.0 L376.0,1025.0" fill="none" stroke="black" stroke-linecap="round" stroke-linejoin="round" stroke-width="3.0"/>
  <path d="M370.0,1031.0 L376.0,1031.0 L380.0,1035.0 L381.0,1037.0 L382.0,1042.0 L381.0,1046.0 L380.0,1048.0 L377.0,1051.0 L375.0,1052.0 L370.0,1052.0 L368.0,1051.0 L365.0,1048.0 L364.0,1046.0 L364.0,1037.0 L365.0,1035.0 L368.0,1032.0" fill="none" stroke="black" stroke-linecap="round" stroke-linejoin="round" stroke-width="3.0"/>
  <path d="M668.0,508.0 L665.0,512.0 L658.0,519.0 L655.0,521.0 L648.0,525.0 L651.0,524.0 L657.0,521.0 L660.0,519.0 L665.0,514.0 L667.0,511.0" fill="none" stroke="black" stroke-linecap="round" stroke-linejoin="round" stroke-width="3.0"/>
  <path d="M385.0,505.0 L382.0,507.0 L375.0,508.0 L371.0,510.0 L367.0,516.0 L364.0,534.0 L361.0,568.0 L361.0,595.0 L364.0,621.0 L370.0,642.0 L374.0,650.0 L379.0,657.0 L385.0,661.0 L389.0,661.0 L391.0,659.0 L391.0,508.0 L390.0,506.0" fill="none" stroke="black" stroke-linecap="round" stroke-linejoin="round" stroke-width="3.0"/>
  <path d="M387.0,507.0 L389.0,509.0 L389.0,658.0 L387.0,660.0 L379.0,652.0 L372.0,639.0 L367.0,621.0 L364.0,593.0 L365.0,553.0 L370.0,516.0 L373.0,512.0 L379.0,510.0 L383.0,510.0" fill="none" stroke="black" stroke-linecap="round" stroke-linejoin="round" stroke-width="3.0"/>
  <path d="M313.0,415.0 L282.0,441.0 L271.0,489.0 L281.0,750.0 L275.0,471.0 L289.0,436.0 L291.0,472.0 L306.0,477.0 L311.0,447.0 L294.0,437.0 L321.0,422.0 L329.0,460.0 L301.0,520.0 L307.0,746.0 L290.0,745.0 L280.0,504.0 L290.0,443.0 L278.0,480.0 L287.0,745.0 L386.0,748.0 L391.0,677.0 L358.0,637.0 L354.0,536.0 L360.0,508.0 L386.0,498.0 L361.0,516.0 L355.0,596.0 L368.0,651.0 L396.0,667.0 L397.0,499.0 L420.0,490.0 L395.0,501.0 L394.0,667.0 L373.0,656.0 L360.0,623.0 L359.0,544.0 L366.0,510.0 L385.0,501.0 L385.0,491.0 L415.0,483.0 L418.0,442.0 L391.0,430.0 L413.0,438.0 L411.0,483.0 L388.0,490.0 L392.0,423.0 L317.0,420.0 L292.0,437.0 L303.0,421.0 L326.0,415.0" fill="none" stroke="black" stroke-linecap="round" stroke-linejoin="round" stroke-width="3.0"/>
  <path d="M302.0,442.0 L304.0,444.0 L306.0,450.0 L306.0,462.0 L304.0,469.0 L302.0,473.0 L299.0,474.0 L297.0,472.0 L296.0,470.0 L295.0,466.0 L295.0,454.0 L296.0,450.0 L297.0,447.0 L298.0,445.0" fill="none" stroke="black" stroke-linecap="round" stroke-linejoin="round" stroke-width="3.0"/>
  <path d="M331.0,421.0 L379.0,422.0 L384.0,432.0 L385.0,460.0 L378.0,493.0 L364.0,499.0 L358.0,505.0 L354.0,515.0 L349.0,558.0 L349.0,604.0 L354.0,634.0 L364.0,658.0 L377.0,672.0 L388.0,677.0 L387.0,745.0 L313.0,745.0 L307.0,587.0 L307.0,518.0 L311.0,505.0 L327.0,481.0 L334.0,464.0 L335.0,434.0" fill="none" stroke="black" stroke-linecap="round" stroke-linejoin="round" stroke-width="3.0"/>
  <path d="M219.0,378.0 L244.0,454.0 L249.0,510.0 L231.0,596.0 L185.0,732.0 L183.0,748.0 L196.0,756.0 L395.0,752.0 L398.0,749.0 L397.0,669.0 L395.0,751.0 L196.0,754.0 L185.0,748.0 L187.0,732.0 L233.0,596.0 L251.0,510.0 L251.0,482.0 L243.0,441.0" fill="none" stroke="black" stroke-linecap="round" stroke-linejoin="round" stroke-width="3.0"/>
  <path d="M580.0,264.0 L580.0,424.0 L666.0,436.0 L680.0,449.0 L683.0,468.0 L670.0,514.0 L658.0,525.0 L604.0,550.0 L579.0,573.0 L579.0,745.0 L883.0,756.0 L933.0,749.0 L974.0,728.0 L986.0,713.0 L1001.0,677.0 L1010.0,630.0 L1011.0,587.0 L989.0,454.0 L977.0,414.0 L955.0,380.0 L900.0,339.0 L828.0,309.0 L687.0,278.0" fill="none" stroke="black" stroke-linecap="round" stroke-linejoin="round" stroke-width="3.0"/>
  <path d="M581.0,267.0 L703.0,284.0 L831.0,313.0 L908.0,347.0 L956.0,386.0 L973.0,412.0 L986.0,454.0 L1008.0,582.0 L1000.0,670.0 L987.0,705.0 L969.0,728.0 L933.0,746.0 L889.0,753.0 L581.0,743.0 L581.0,576.0 L607.0,552.0 L663.0,526.0 L676.0,510.0 L686.0,471.0 L681.0,444.0 L665.0,432.0 L581.0,421.0" fill="none" stroke="black" stroke-linecap="round" stroke-linejoin="round" stroke-width="3.0"/>
  <path d="M571.0,261.0 L571.0,513.0 L574.0,504.0 L590.0,507.0 L602.0,494.0 L606.0,461.0 L599.0,435.0 L608.0,434.0 L611.0,477.0 L605.0,498.0 L595.0,510.0 L571.0,517.0 L574.0,561.0 L574.0,516.0 L584.0,518.0 L578.0,523.0 L581.0,553.0 L654.0,517.0 L665.0,504.0 L674.0,461.0 L670.0,450.0 L659.0,443.0 L612.0,440.0 L664.0,449.0 L671.0,462.0 L666.0,490.0 L654.0,513.0 L581.0,550.0 L581.0,522.0 L605.0,507.0 L614.0,486.0 L616.0,461.0 L609.0,436.0 L624.0,433.0 L572.0,429.0" fill="none" stroke="black" stroke-linecap="round" stroke-linejoin="round" stroke-width="3.0"/>
  <path d="M576.0,431.0 L594.0,432.0 L598.0,435.0 L597.0,442.0 L595.0,439.0 L592.0,437.0 L581.0,437.0 L578.0,441.0 L578.0,498.0 L579.0,500.0 L581.0,500.0 L581.0,497.0 L582.0,496.0 L581.0,441.0 L584.0,439.0 L593.0,440.0 L599.0,447.0 L602.0,459.0 L602.0,474.0 L600.0,485.0 L595.0,497.0 L592.0,501.0 L588.0,503.0 L574.0,502.0 L573.0,500.0 L573.0,433.0" fill="none" stroke="black" stroke-linecap="round" stroke-linejoin="round" stroke-width="3.0"/>
  <path d="M424.0,248.0 L419.0,429.0 L432.0,464.0 L425.0,496.0 L404.0,504.0 L405.0,746.0 L566.0,743.0 L566.0,265.0 L429.0,254.0 L563.0,264.0 L563.0,743.0 L428.0,744.0 L426.0,249.0 L732.0,282.0 L920.0,346.0 L982.0,416.0 L1014.0,629.0 L986.0,720.0 L930.0,754.0 L424.0,752.0 L901.0,761.0 L985.0,724.0 L1013.0,650.0 L1013.0,544.0 L984.0,416.0 L942.0,360.0 L779.0,290.0" fill="none" stroke="black" stroke-linecap="round" stroke-linejoin="round" stroke-width="3.0"/>
  <path d="M387.0,251.0 L237.0,248.0 L178.0,258.0 L179.0,269.0 L231.0,391.0 L255.0,481.0 L255.0,512.0 L247.0,557.0 L226.0,633.0 L189.0,746.0 L194.0,750.0 L274.0,749.0 L277.0,746.0 L267.0,504.0 L271.0,460.0 L282.0,433.0 L307.0,413.0 L333.0,408.0 L391.0,408.0 L391.0,254.0" fill="none" stroke="black" stroke-linecap="round" stroke-linejoin="round" stroke-width="3.0"/>
  <path d="M388.0,255.0 L387.0,408.0 L332.0,405.0 L306.0,410.0 L282.0,428.0 L268.0,460.0 L265.0,525.0 L275.0,745.0 L195.0,748.0 L191.0,742.0 L222.0,655.0 L249.0,561.0 L257.0,520.0 L258.0,482.0 L241.0,411.0 L181.0,258.0 L240.0,251.0" fill="none" stroke="black" stroke-linecap="round" stroke-linejoin="round" stroke-width="3.0"/>
  <path d="M172.0,256.0 L174.0,272.0 L219.0,374.0 L176.0,273.0 L175.0,255.0 L180.0,251.0 L265.0,243.0 L397.0,249.0 L396.0,415.0 L332.0,412.0 L328.0,415.0 L388.0,416.0 L400.0,426.0 L416.0,428.0 L400.0,424.0 L395.0,419.0 L398.0,415.0 L399.0,249.0 L390.0,245.0 L267.0,241.0 L190.0,247.0" fill="none" stroke="black" stroke-linecap="round" stroke-linejoin="round" stroke-width="3.0"/>
  <path d="M166.0,250.0 L167.0,273.0 L228.0,422.0 L243.0,489.0 L227.0,584.0 L176.0,738.0 L183.0,760.0 L898.0,768.0 L963.0,751.0 L1000.0,714.0 L1016.0,671.0 L1024.0,609.0 L1009.0,482.0 L980.0,392.0 L948.0,356.0 L910.0,330.0 L804.0,289.0 L561.0,247.0 L250.0,235.0 L187.0,241.0" fill="none" stroke="black" stroke-linecap="round" stroke-linejoin="round" stroke-width="3.0"/>
  <path d="M168.0,254.0 L187.0,244.0 L250.0,238.0 L564.0,250.0 L791.0,289.0 L900.0,328.0 L943.0,356.0 L972.0,386.0 L987.0,413.0 L1006.0,482.0 L1020.0,571.0 L1020.0,628.0 L1010.0,681.0 L994.0,718.0 L960.0,749.0 L900.0,765.0 L651.0,757.0 L185.0,757.0 L179.0,739.0 L232.0,576.0 L245.0,482.0 L223.0,398.0" fill="none" stroke="black" stroke-linecap="round" stroke-linejoin="round" stroke-width="3.0"/>
  <path d="M91.0,195.0 L86.0,237.0 L148.0,385.0 L164.0,506.0 L142.0,606.0 L69.0,749.0 L59.0,816.0 L76.0,845.0 L120.0,863.0 L280.0,868.0 L293.0,1108.0 L503.0,1106.0 L508.0,993.0 L527.0,985.0 L528.0,949.0 L501.0,913.0 L499.0,868.0 L1029.0,886.0 L1075.0,872.0 L1107.0,842.0 L1126.0,789.0 L1139.0,679.0 L1132.0,443.0 L1101.0,354.0 L1025.0,279.0 L939.0,236.0 L841.0,207.0 L543.0,165.0 L197.0,152.0 L127.0,166.0" fill="none" stroke="black" stroke-linecap="round" stroke-linejoin="round" stroke-width="3.0"/>
  <path d="M320.0,867.0 L415.0,867.0 L482.0,869.0 L482.0,893.0 L487.0,921.0 L492.0,930.0 L499.0,930.0 L505.0,933.0 L511.0,942.0 L511.0,978.0 L348.0,977.0 L348.0,940.0 L341.0,927.0 L335.0,923.0 L326.0,921.0 L319.0,875.0" fill="none" stroke="black" stroke-linecap="round" stroke-linejoin="round" stroke-width="3.0"/>
  <path d="M296.0,867.0 L313.0,868.0 L315.0,893.0 L322.0,927.0 L328.0,927.0 L335.0,930.0 L339.0,934.0 L343.0,946.0 L342.0,978.0 L326.0,979.0 L325.0,1095.0 L304.0,1094.0 L299.0,937.0 L295.0,871.0" fill="none" stroke="black" stroke-linecap="round" stroke-linejoin="round" stroke-width="3.0"/>
  <path d="M99.0,195.0 L120.0,189.0 L99.0,211.0 L178.0,376.0 L199.0,492.0 L172.0,613.0 L73.0,806.0 L180.0,498.0 L163.0,380.0 L94.0,215.0 L174.0,498.0 L72.0,823.0 L204.0,507.0 L190.0,393.0 L107.0,200.0 L193.0,373.0 L215.0,493.0 L89.0,842.0 L1006.0,876.0 L1079.0,858.0 L1126.0,715.0 L1124.0,458.0 L1092.0,358.0 L1018.0,282.0 L1096.0,358.0 L1125.0,437.0 L1132.0,690.0 L1100.0,841.0 L1020.0,880.0 L494.0,863.0 L523.0,983.0 L501.0,987.0 L487.0,1105.0 L327.0,1096.0 L494.0,1097.0 L489.0,981.0 L515.0,982.0 L489.0,862.0 L292.0,861.0 L300.0,1091.0 L328.0,1107.0 L298.0,1106.0 L289.0,861.0 L130.0,859.0 L64.0,809.0 L170.0,498.0" fill="none" stroke="black" stroke-linecap="round" stroke-linejoin="round" stroke-width="3.0"/>
  <path d="M124.0,187.0 L175.0,170.0 L284.0,166.0 L627.0,189.0 L865.0,229.0 L1008.0,287.0 L1084.0,357.0 L1116.0,442.0 L1124.0,666.0 L1097.0,828.0 L1069.0,857.0 L1030.0,870.0 L556.0,853.0 L163.0,853.0 L92.0,837.0 L92.0,818.0 L202.0,593.0 L221.0,487.0 L205.0,390.0 L126.0,226.0" fill="none" stroke="black" stroke-linecap="round" stroke-linejoin="round" stroke-width="3.0"/>
  <path d="M113.0,179.0 L152.0,162.0 L236.0,154.0 L438.0,161.0 L644.0,179.0 L765.0,196.0 L870.0,218.0 L958.0,248.0 L1017.0,280.0 L1011.0,285.0 L932.0,246.0 L853.0,222.0 L643.0,187.0 L496.0,173.0 L281.0,162.0 L185.0,165.0 L145.0,172.0 L120.0,185.0" fill="none" stroke="black" stroke-linecap="round" stroke-linejoin="round" stroke-width="3.0"/>
  <path d="M624.0,534.0 L620.0,536.0 L617.0,537.0 L598.0,548.0 L592.0,553.0 L589.0,555.0 L581.0,559.0 L591.0,555.0 L594.0,553.0 L600.0,548.0" fill="none" stroke="black" stroke-linecap="round" stroke-linejoin="round" stroke-width="2.0"/>
  <path d="M421.0,431.0 L420.0,436.0 L421.0,439.0 L423.0,441.0 L424.0,452.0 L424.0,463.0 L422.0,477.0 L420.0,482.0 L421.0,488.0 L422.0,486.0 L422.0,482.0 L424.0,477.0 L426.0,463.0 L426.0,452.0 L425.0,442.0 L422.0,436.0 L422.0,433.0" fill="none" stroke="black" stroke-linecap="round" stroke-linejoin="round" stroke-width="2.0"/>
  <path d="M408.0,252.0 L404.0,255.0 L404.0,416.0 L408.0,420.0 L420.0,421.0 L419.0,418.0 L417.0,417.0 L407.0,416.0 L408.0,255.0 L422.0,256.0 L420.0,253.0" fill="none" stroke="black" stroke-linecap="round" stroke-linejoin="round" stroke-width="2.0"/>
</svg>
