<?xml version="1.0" encoding="utf-8" ?>
<svg xmlns="http://www.w3.org/2000/svg" xmlns:ev="http://www.w3.org/2001/xml-events" xmlns:xlink="http://www.w3.org/1999/xlink" baseProfile="tiny" height="100%" version="1.2" viewBox="118,113,2116,858" width="100%">
  <defs/>
  <path d="M1586.0,296.0 L1586.0,301.0 L1588.0,303.0 L1589.0,306.0 L1591.0,307.0 L1594.0,308.0 L1601.0,308.0 L1602.0,307.0 L1605.0,307.0 L1605.0,304.0 L1604.0,300.0 L1601.0,294.0 L1593.0,294.0 L1588.0,295.0" fill="none" stroke="black" stroke-linecap="round" stroke-linejoin="round" stroke-width="3.0"/>
  <path d="M677.0,298.0 L675.0,296.0 L673.0,295.0 L669.0,294.0 L661.0,294.0 L659.0,296.0 L658.0,299.0 L657.0,305.0 L655.0,308.0 L655.0,310.0 L662.0,310.0 L672.0,307.0 L674.0,305.0 L677.0,300.0" fill="none" stroke="black" stroke-linecap="round" stroke-linejoin="round" stroke-width="3.0"/>
  <path d="M1028.0,166.0 L1028.0,169.0 L1031.0,175.0 L1039.0,181.0 L1046.0,184.0 L1080.0,192.0 L1115.0,195.0 L1161.0,194.0 L1195.0,189.0 L1221.0,180.0 L1228.0,174.0 L1230.0,170.0 L1229.0,163.0 L1223.0,157.0 L1212.0,152.0 L1179.0,145.0 L1145.0,142.0 L1097.0,143.0 L1067.0,147.0 L1046.0,152.0 L1034.0,158.0" fill="none" stroke="black" stroke-linecap="round" stroke-linejoin="round" stroke-width="3.0"/>
  <path d="M1034.0,166.0 L1038.0,162.0 L1045.0,158.0 L1069.0,151.0 L1099.0,147.0 L1141.0,146.0 L1177.0,149.0 L1205.0,155.0 L1219.0,161.0 L1224.0,166.0 L1224.0,169.0 L1222.0,172.0 L1212.0,178.0 L1180.0,186.0 L1149.0,189.0 L1109.0,189.0 L1079.0,186.0 L1055.0,181.0 L1039.0,174.0 L1034.0,169.0" fill="none" stroke="black" stroke-linecap="round" stroke-linejoin="round" stroke-width="3.0"/>
  <path d="M1213.0,141.0 L1634.0,189.0 L1654.0,190.0 L1656.0,186.0 L1236.0,137.0 L1215.0,136.0" fill="none" stroke="black" stroke-linecap="round" stroke-linejoin="round" stroke-width="3.0"/>
  <path d="M1056.0,137.0 L1027.0,137.0 L607.0,186.0 L608.0,189.0 L619.0,190.0 L1020.0,145.0 L1053.0,140.0" fill="none" stroke="black" stroke-linecap="round" stroke-linejoin="round" stroke-width="3.0"/>
  <path d="M128.0,658.0 L153.0,684.0 L216.0,683.0 L244.0,634.0 L1034.0,412.0 L1053.0,436.0 L1067.0,874.0 L1089.0,914.0 L1133.0,929.0 L1171.0,916.0 L1196.0,872.0 L1210.0,433.0 L1229.0,412.0 L2019.0,634.0 L2025.0,667.0 L2050.0,684.0 L2116.0,682.0 L2134.0,650.0 L2110.0,528.0 L1636.0,321.0 L1698.0,299.0 L1686.0,204.0 L1666.0,178.0 L1097.0,123.0 L595.0,179.0 L564.0,297.0 L627.0,320.0 L151.0,529.0" fill="none" stroke="black" stroke-linecap="round" stroke-linejoin="round" stroke-width="3.0"/>
  <path d="M661.0,317.0 L659.0,319.0 L641.0,327.0 L639.0,327.0 L634.0,328.0 L636.0,326.0 L636.0,325.0 L639.0,322.0 L639.0,321.0 L641.0,319.0 L643.0,318.0 L650.0,316.0 L653.0,316.0 L654.0,315.0 L656.0,315.0 L657.0,316.0" fill="none" stroke="black" stroke-linecap="round" stroke-linejoin="round" stroke-width="3.0"/>
  <path d="M1597.0,315.0 L1607.0,314.0 L1609.0,315.0 L1611.0,317.0 L1614.0,318.0 L1622.0,320.0 L1624.0,322.0 L1626.0,325.0 L1627.0,327.0 L1624.0,328.0 L1601.0,318.0 L1599.0,317.0" fill="none" stroke="black" stroke-linecap="round" stroke-linejoin="round" stroke-width="3.0"/>
  <path d="M695.0,302.0 L693.0,304.0 L689.0,306.0 L682.0,309.0 L677.0,309.0 L679.0,307.0 L679.0,306.0 L683.0,302.0 L687.0,301.0" fill="none" stroke="black" stroke-linecap="round" stroke-linejoin="round" stroke-width="3.0"/>
  <path d="M650.0,300.0 L651.0,303.0 L650.0,306.0 L649.0,308.0 L648.0,309.0 L646.0,310.0 L643.0,311.0 L639.0,311.0 L638.0,310.0 L636.0,309.0 L638.0,307.0 L642.0,306.0 L644.0,305.0 L647.0,303.0" fill="none" stroke="black" stroke-linecap="round" stroke-linejoin="round" stroke-width="3.0"/>
  <path d="M1610.0,301.0 L1612.0,299.0 L1617.0,304.0 L1620.0,306.0 L1625.0,307.0 L1627.0,309.0 L1625.0,310.0 L1622.0,310.0 L1619.0,309.0 L1616.0,309.0 L1614.0,308.0 L1611.0,305.0" fill="none" stroke="black" stroke-linecap="round" stroke-linejoin="round" stroke-width="3.0"/>
  <path d="M1673.0,296.0 L1648.0,302.0 L1636.0,304.0 L1626.0,304.0 L1623.0,303.0 L1620.0,301.0 L1613.0,294.0 L1609.0,289.0 L1610.0,286.0 L1618.0,286.0 L1631.0,284.0 L1651.0,280.0 L1660.0,280.0 L1666.0,283.0 L1670.0,287.0 L1673.0,292.0" fill="none" stroke="black" stroke-linecap="round" stroke-linejoin="round" stroke-width="3.0"/>
  <path d="M589.0,294.0 L591.0,291.0 L592.0,288.0 L597.0,283.0 L600.0,281.0 L603.0,280.0 L611.0,280.0 L644.0,286.0 L652.0,286.0 L654.0,288.0 L652.0,290.0 L652.0,291.0 L648.0,296.0 L644.0,300.0 L637.0,304.0 L627.0,304.0 L610.0,301.0 L594.0,297.0" fill="none" stroke="black" stroke-linecap="round" stroke-linejoin="round" stroke-width="3.0"/>
  <path d="M144.0,655.0 L154.0,555.0 L1040.0,224.0 L1078.0,272.0 L1100.0,760.0 L1115.0,788.0 L1143.0,791.0 L1164.0,750.0 L1184.0,276.0 L1199.0,238.0 L1236.0,224.0 L2111.0,556.0 L2119.0,660.0 L2055.0,669.0 L2039.0,630.0 L2069.0,648.0 L2042.0,625.0 L1246.0,395.0 L1195.0,427.0 L1181.0,866.0 L1143.0,912.0 L1105.0,906.0 L1083.0,874.0 L1068.0,429.0 L1039.0,397.0 L229.0,622.0 L194.0,647.0 L226.0,631.0 L208.0,669.0" fill="none" stroke="black" stroke-linecap="round" stroke-linejoin="round" stroke-width="3.0"/>
  <path d="M1274.0,165.0 L1287.0,163.0 L1638.0,199.0 L1663.0,195.0 L1671.0,209.0 L1683.0,292.0 L1678.0,293.0 L1675.0,284.0 L1669.0,278.0 L1659.0,274.0 L1551.0,291.0 L1303.0,183.0 L1280.0,171.0" fill="none" stroke="black" stroke-linecap="round" stroke-linejoin="round" stroke-width="3.0"/>
  <path d="M989.0,166.0 L955.0,185.0 L711.0,291.0 L603.0,274.0 L592.0,279.0 L585.0,292.0 L580.0,293.0 L592.0,208.0 L601.0,195.0 L607.0,198.0 L625.0,199.0 L987.0,163.0" fill="none" stroke="black" stroke-linecap="round" stroke-linejoin="round" stroke-width="3.0"/>
  <path d="M134.0,652.0 L156.0,534.0 L629.0,326.0 L571.0,292.0 L598.0,186.0 L1170.0,133.0 L1249.0,171.0 L1010.0,176.0 L1195.0,139.0 L1004.0,169.0 L1169.0,209.0 L1244.0,156.0 L1058.0,132.0 L1654.0,181.0 L1691.0,296.0 L1634.0,318.0 L1687.0,295.0 L1665.0,191.0 L1267.0,177.0 L2103.0,553.0 L1235.0,218.0 L1179.0,270.0 L1136.0,787.0 L1045.0,219.0 L160.0,553.0 L976.0,157.0 L593.0,193.0 L576.0,295.0 L643.0,313.0 L992.0,173.0 L156.0,538.0 L143.0,669.0 L1034.0,402.0 L1077.0,875.0 L1145.0,917.0 L1201.0,430.0 L1248.0,401.0 L2115.0,671.0 L2105.0,537.0 L1273.0,160.0 L2100.0,530.0 L2128.0,658.0 L2048.0,677.0 L1229.0,406.0 L1190.0,870.0 L1127.0,922.0 L1072.0,870.0 L1038.0,407.0 L207.0,679.0" fill="none" stroke="black" stroke-linecap="round" stroke-linejoin="round" stroke-width="3.0"/>
  <path d="M2214.0,944.0 L2207.0,949.0 L2146.0,949.0 L2143.0,948.0 L2139.0,945.0 L2141.0,948.0 L2146.0,950.0 L2207.0,950.0 L2212.0,947.0" fill="none" stroke="black" stroke-linecap="round" stroke-linejoin="round" stroke-width="2.0"/>
  <path d="M2141.0,941.0 L2143.0,944.0 L2146.0,945.0 L2207.0,945.0 L2209.0,943.0 L2210.0,943.0 L2211.0,941.0 L2208.0,942.0 L2205.0,944.0 L2147.0,944.0 L2144.0,943.0" fill="none" stroke="black" stroke-linecap="round" stroke-linejoin="round" stroke-width="2.0"/>
  <path d="M2130.0,932.0 L2131.0,961.0 L2135.0,961.0 L2136.0,941.0 L2133.0,937.0 L2135.0,936.0 L2137.0,938.0 L2140.0,939.0 L2141.0,937.0 L2211.0,937.0 L2212.0,939.0 L2215.0,938.0 L2217.0,936.0 L2220.0,937.0 L2217.0,940.0 L2218.0,961.0 L2222.0,961.0 L2222.0,944.0 L2224.0,932.0 L2204.0,934.0 L2150.0,934.0" fill="none" stroke="black" stroke-linecap="round" stroke-linejoin="round" stroke-width="2.0"/>
</svg>
