<?xml version="1.0" encoding="utf-8" ?>
<svg xmlns="http://www.w3.org/2000/svg" xmlns:ev="http://www.w3.org/2001/xml-events" xmlns:xlink="http://www.w3.org/1999/xlink" baseProfile="tiny" height="100%" version="1.2" viewBox="111,165,760,478" width="100%">
  <defs/>
  <path d="M444.0,470.0 L434.0,470.0 L431.0,471.0 L427.0,473.0 L422.0,477.0 L422.0,478.0 L420.0,480.0 L417.0,486.0 L417.0,497.0 L418.0,500.0 L420.0,503.0 L424.0,507.0 L428.0,509.0 L431.0,510.0 L439.0,510.0 L445.0,508.0 L448.0,506.0 L454.0,500.0 L456.0,496.0 L457.0,493.0 L457.0,483.0 L456.0,480.0 L455.0,478.0 L449.0,472.0" fill="none" stroke="black" stroke-linecap="round" stroke-linejoin="round" stroke-width="3.0"/>
  <path d="M434.0,476.0 L443.0,476.0 L447.0,478.0 L449.0,480.0 L451.0,484.0 L451.0,493.0 L450.0,495.0 L448.0,498.0 L445.0,501.0 L439.0,504.0 L432.0,504.0 L429.0,503.0 L424.0,498.0 L423.0,496.0 L423.0,487.0 L425.0,483.0 L430.0,478.0" fill="none" stroke="black" stroke-linecap="round" stroke-linejoin="round" stroke-width="3.0"/>
  <path d="M456.0,465.0 L446.0,461.0 L434.0,461.0 L430.0,462.0 L420.0,467.0 L414.0,473.0 L411.0,477.0 L407.0,490.0 L407.0,496.0 L408.0,501.0 L412.0,509.0 L417.0,514.0 L421.0,517.0 L425.0,519.0 L436.0,519.0 L446.0,517.0 L453.0,513.0 L460.0,506.0 L464.0,499.0 L466.0,487.0 L467.0,484.0 L467.0,479.0 L463.0,472.0" fill="none" stroke="black" stroke-linecap="round" stroke-linejoin="round" stroke-width="3.0"/>
  <path d="M450.0,465.0 L455.0,468.0 L460.0,473.0 L463.0,479.0 L464.0,483.0 L464.0,490.0 L462.0,497.0 L460.0,501.0 L458.0,504.0 L451.0,511.0 L446.0,514.0 L440.0,516.0 L428.0,516.0 L422.0,514.0 L415.0,508.0 L411.0,501.0 L410.0,497.0 L410.0,489.0 L412.0,483.0 L415.0,477.0 L423.0,469.0 L430.0,465.0 L438.0,463.0 L442.0,463.0" fill="none" stroke="black" stroke-linecap="round" stroke-linejoin="round" stroke-width="3.0"/>
  <path d="M403.0,213.0 L401.0,213.0 L401.0,215.0 L400.0,216.0 L398.0,227.0 L394.0,235.0 L385.0,244.0 L378.0,248.0 L372.0,250.0 L365.0,250.0 L364.0,251.0 L362.0,251.0 L362.0,256.0 L365.0,261.0 L383.0,279.0 L393.0,283.0 L404.0,283.0 L409.0,282.0 L420.0,276.0 L425.0,271.0 L430.0,262.0 L432.0,254.0 L432.0,247.0 L431.0,243.0 L429.0,240.0 L429.0,237.0 L427.0,232.0 L418.0,224.0 L417.0,219.0 L413.0,218.0 L406.0,214.0" fill="none" stroke="black" stroke-linecap="round" stroke-linejoin="round" stroke-width="3.0"/>
  <path d="M404.0,215.0 L425.0,237.0 L429.0,246.0 L429.0,256.0 L425.0,266.0 L419.0,273.0 L415.0,276.0 L409.0,279.0 L401.0,281.0 L397.0,281.0 L389.0,279.0 L384.0,276.0 L376.0,268.0 L376.0,267.0 L366.0,258.0 L364.0,253.0 L374.0,253.0 L379.0,251.0 L388.0,246.0 L395.0,239.0 L398.0,235.0 L401.0,229.0 L403.0,223.0" fill="none" stroke="black" stroke-linecap="round" stroke-linejoin="round" stroke-width="3.0"/>
  <path d="M192.0,217.0 L164.0,540.0 L172.0,541.0 L174.0,525.0 L174.0,544.0 L488.0,553.0 L501.0,518.0 L471.0,484.0 L466.0,503.0 L447.0,520.0 L425.0,523.0 L409.0,510.0 L404.0,498.0 L409.0,475.0 L440.0,457.0 L457.0,462.0 L500.0,507.0 L504.0,529.0 L492.0,549.0 L495.0,556.0 L728.0,564.0 L757.0,556.0 L789.0,255.0 L784.0,230.0 L425.0,218.0 L421.0,222.0 L435.0,247.0 L432.0,265.0 L418.0,281.0 L392.0,286.0 L335.0,228.0 L322.0,226.0 L334.0,224.0 L335.0,215.0 L202.0,212.0" fill="none" stroke="black" stroke-linecap="round" stroke-linejoin="round" stroke-width="3.0"/>
  <path d="M474.0,487.0 L494.0,508.0 L496.0,511.0 L498.0,516.0 L499.0,523.0 L498.0,529.0 L494.0,538.0 L491.0,542.0 L488.0,545.0 L482.0,549.0 L474.0,552.0 L463.0,552.0 L457.0,550.0 L454.0,548.0 L432.0,526.0 L445.0,524.0 L450.0,522.0 L457.0,518.0 L465.0,510.0 L467.0,507.0 L471.0,499.0" fill="none" stroke="black" stroke-linecap="round" stroke-linejoin="round" stroke-width="3.0"/>
  <path d="M207.0,236.0 L225.0,225.0 L333.0,230.0 L378.0,283.0 L395.0,290.0 L414.0,287.0 L432.0,272.0 L438.0,258.0 L434.0,232.0 L787.0,244.0 L756.0,552.0 L744.0,561.0 L495.0,554.0 L507.0,531.0 L503.0,505.0 L461.0,461.0 L444.0,454.0 L417.0,462.0 L401.0,489.0 L407.0,513.0 L443.0,552.0 L176.0,542.0" fill="none" stroke="black" stroke-linecap="round" stroke-linejoin="round" stroke-width="3.0"/>
  <path d="M423.0,222.0 L425.0,220.0 L442.0,222.0 L778.0,231.0 L787.0,237.0 L427.0,226.0" fill="none" stroke="black" stroke-linecap="round" stroke-linejoin="round" stroke-width="3.0"/>
  <path d="M332.0,219.0 L331.0,223.0 L219.0,220.0 L209.0,225.0 L202.0,233.0 L198.0,245.0 L169.0,541.0 L164.0,534.0 L163.0,527.0 L193.0,221.0 L200.0,215.0" fill="none" stroke="black" stroke-linecap="round" stroke-linejoin="round" stroke-width="3.0"/>
  <path d="M376.0,199.0 L373.0,198.0 L366.0,198.0 L360.0,200.0 L358.0,201.0 L354.0,204.0 L350.0,209.0 L349.0,211.0 L347.0,218.0 L347.0,223.0 L349.0,229.0 L351.0,232.0 L353.0,234.0 L360.0,238.0 L371.0,238.0 L374.0,237.0 L378.0,235.0 L384.0,229.0 L386.0,226.0 L388.0,220.0 L388.0,213.0 L387.0,209.0 L385.0,206.0 L380.0,201.0" fill="none" stroke="black" stroke-linecap="round" stroke-linejoin="round" stroke-width="3.0"/>
  <path d="M373.0,204.0 L377.0,206.0 L380.0,209.0 L382.0,213.0 L382.0,220.0 L381.0,223.0 L379.0,226.0 L376.0,229.0 L371.0,232.0 L368.0,232.0 L367.0,233.0 L365.0,233.0 L364.0,232.0 L361.0,232.0 L359.0,231.0 L354.0,226.0 L353.0,223.0 L353.0,217.0 L354.0,214.0 L356.0,211.0 L360.0,207.0 L363.0,205.0 L366.0,204.0" fill="none" stroke="black" stroke-linecap="round" stroke-linejoin="round" stroke-width="3.0"/>
  <path d="M166.0,197.0 L131.0,549.0 L140.0,564.0 L159.0,565.0 L152.0,575.0 L176.0,598.0 L757.0,622.0 L815.0,612.0 L850.0,263.0 L822.0,226.0 L812.0,231.0 L804.0,208.0 L398.0,192.0 L401.0,209.0 L418.0,216.0 L790.0,232.0 L764.0,548.0 L747.0,566.0 L163.0,543.0 L188.0,218.0 L206.0,208.0 L332.0,212.0 L345.0,192.0 L184.0,185.0" fill="none" stroke="black" stroke-linecap="round" stroke-linejoin="round" stroke-width="3.0"/>
  <path d="M844.0,259.0 L811.0,607.0 L800.0,616.0 L182.0,595.0 L154.0,569.0 L767.0,586.0 L783.0,567.0 L816.0,228.0" fill="none" stroke="black" stroke-linecap="round" stroke-linejoin="round" stroke-width="3.0"/>
  <path d="M170.0,202.0 L184.0,191.0 L342.0,196.0 L334.0,209.0 L199.0,206.0 L186.0,215.0 L154.0,526.0 L165.0,549.0 L749.0,569.0 L767.0,549.0 L793.0,230.0 L414.0,212.0 L401.0,197.0 L799.0,212.0 L809.0,232.0 L775.0,571.0 L739.0,582.0 L145.0,560.0 L136.0,543.0" fill="none" stroke="black" stroke-linecap="round" stroke-linejoin="round" stroke-width="3.0"/>
  <path d="M157.0,193.0 L121.0,551.0 L128.0,566.0 L173.0,608.0 L209.0,614.0 L789.0,633.0 L807.0,630.0 L824.0,616.0 L861.0,262.0 L851.0,241.0 L808.0,199.0 L176.0,177.0" fill="none" stroke="black" stroke-linecap="round" stroke-linejoin="round" stroke-width="3.0"/>
  <path d="M380.0,193.0 L385.0,196.0 L391.0,202.0 L394.0,209.0 L394.0,221.0 L391.0,229.0 L388.0,233.0 L382.0,239.0 L375.0,243.0 L367.0,245.0 L361.0,245.0 L352.0,242.0 L348.0,239.0 L344.0,234.0 L341.0,227.0 L341.0,216.0 L344.0,208.0 L346.0,205.0 L354.0,197.0 L359.0,194.0 L365.0,192.0 L376.0,192.0" fill="none" stroke="black" stroke-linecap="round" stroke-linejoin="round" stroke-width="3.0"/>
  <path d="M349.0,187.0 L350.0,184.0 L386.0,185.0 L395.0,187.0 L394.0,189.0 L392.0,191.0 L390.0,195.0 L385.0,191.0 L381.0,189.0 L378.0,188.0 L364.0,188.0 L351.0,192.0 L351.0,189.0" fill="none" stroke="black" stroke-linecap="round" stroke-linejoin="round" stroke-width="3.0"/>
  <path d="M162.0,196.0 L184.0,181.0 L347.0,187.0 L337.0,225.0 L358.0,248.0 L380.0,244.0 L391.0,234.0 L398.0,188.0 L804.0,204.0 L849.0,249.0 L854.0,263.0 L819.0,612.0 L799.0,626.0 L207.0,608.0 L176.0,602.0 L130.0,559.0 L127.0,549.0" fill="none" stroke="black" stroke-linecap="round" stroke-linejoin="round" stroke-width="3.0"/>
</svg>
