<?xml version="1.0" encoding="utf-8" ?>
<svg xmlns="http://www.w3.org/2000/svg" xmlns:ev="http://www.w3.org/2001/xml-events" xmlns:xlink="http://www.w3.org/1999/xlink" baseProfile="full" height="100%" version="1.1" width="100%">
  <defs/>
  <polyline fill="none" opacity="0.85" points="199,646 198,643 203,638 220,627 233,629 233,629 230,658 222,670 205,676 173,678 157,676 141,669 137,662 136,639 142,562 148,548 148,548 153,537 162,531 626,328 636,315 636,315 630,310 605,307 583,300 583,300 572,294 572,287 583,208 592,190 607,186 607,186 612,181 629,179 1017,135 1041,135 1041,135 1050,133 1057,137 1057,137 1048,148 1048,148 1042,146 1042,146 1023,153 1010,162 1006,176 1011,182 1044,197 1103,206 1166,205 1228,192 1245,182 1250,172 1245,161 1228,151 1227,150 1216,148 1216,148 1215,155 1225,163 1222,174 1197,184 1143,191 1086,189 1044,179 1031,170 1033,161 1041,154 1041,154 1042,146 1042,146 1041,135" stroke="black" stroke-linecap="round" stroke-linejoin="round" stroke-width="5.72054794520548"/>
  <polyline fill="none" opacity="0.85" points="148,548 154,553 164,555 177,551 995,228 1018,221 1045,221 1058,228 1070,243 1080,274 1101,752 1105,770 1111,780 1120,787 1131,789 1141,787 1151,778 1160,749 1175,401 1175,400 1180,277 1184,257 1193,239 1203,228 1213,222 1242,221 1296,240 2089,553 2107,553 2112,548 2112,548 2109,538 2098,531 1657,338 1633,327 1626,315 1626,315 1607,310 1607,310 1589,308 1583,298 1583,298 1549,295 1501,275 1296,186 1276,175 1268,167 1269,162 1296,160 1636,195 1648,194 1654,187 1654,187 1649,181 1235,134 1206,133 1200,137 1200,137 1128,133 1057,137" stroke="black" stroke-linecap="round" stroke-linejoin="round" stroke-width="5.7"/>
  <polyline fill="none" opacity="0.85" points="233,629 984,408 1015,402 1031,403 1046,408 1053,415 1060,442 1072,858 1076,880 1082,893 1093,906 1113,917 1144,918 1166,908 1177,895 1186,874 1190,791 1190,790 1201,435 1203,423 1213,409 1235,402 1284,410 2026,628 2026,628 2045,629 2059,639 2062,647" stroke="black" stroke-linecap="round" stroke-linejoin="round" stroke-width="5.585714285714286"/>
  <polyline fill="none" opacity="0.85" points="607,186 612,193 624,195 945,162 989,160 992,163 992,169 988,173 969,184 716,294 678,298 678,298 673,292 659,292 659,292 653,283 606,276 595,279 590,284 583,300" stroke="black" stroke-linecap="round" stroke-linejoin="round" stroke-width="5.78"/>
  <polyline fill="none" opacity="0.85" points="636,315 654,310 654,310 659,292" stroke="black" stroke-linecap="round" stroke-linejoin="round" stroke-width="6.0"/>
  <polyline fill="none" opacity="0.85" points="678,298 673,307 654,310" stroke="black" stroke-linecap="round" stroke-linejoin="round" stroke-width="5.866666666666667"/>
  <polyline fill="none" opacity="0.85" points="1048,148 1041,154" stroke="black" stroke-linecap="round" stroke-linejoin="round" stroke-width="6.0"/>
  <polyline fill="none" opacity="0.85" points="1200,137 1211,150 1211,150 1213,147 1216,148 1213,150 1211,150 1211,150 1214,154 1216,148" stroke="black" stroke-linecap="round" stroke-linejoin="round" stroke-width="6.0"/>
  <polyline fill="none" opacity="0.85" points="1654,187 1668,189 1677,207 1688,287 1688,294 1678,300 1678,300 1670,283 1658,276 1607,283 1602,292 1602,292 1588,292 1583,298" stroke="black" stroke-linecap="round" stroke-linejoin="round" stroke-width="5.771428571428572"/>
  <polyline fill="none" opacity="0.85" points="1607,310 1602,292" stroke="black" stroke-linecap="round" stroke-linejoin="round" stroke-width="6.0"/>
  <polyline fill="none" opacity="0.85" points="1678,300 1655,307 1631,310 1626,315" stroke="black" stroke-linecap="round" stroke-linejoin="round" stroke-width="5.800000000000001"/>
  <polyline fill="none" opacity="0.85" points="2026,628 2029,634 2031,660 2037,669 2043,672 2064,677 2087,678 2103,676 2120,669 2125,657 2115,549 2114,548 2112,548" stroke="black" stroke-linecap="round" stroke-linejoin="round" stroke-width="5.723076923076923"/>
  <polyline fill="none" opacity="0.85" points="2220,935 2205,946 2144,946 2129,932" stroke="black" stroke-linecap="round" stroke-linejoin="round" stroke-width="4.800000000000001"/>
</svg>
