<?xml version="1.0" encoding="utf-8" ?>
<svg xmlns="http://www.w3.org/2000/svg" xmlns:ev="http://www.w3.org/2001/xml-events" xmlns:xlink="http://www.w3.org/1999/xlink" baseProfile="full" height="100%" preserveAspectRatio="xMidYMid meet" version="1.1" viewBox="-50 -50 2350 1062" width="100%">
  <defs/>
  <g>
    <line opacity="0.85" stroke="black" stroke-linecap="round" stroke-linejoin="round" stroke-width="4.033703976033226" x1="199" x2="198" y1="646" y2="643"/>
    <line opacity="0.85" stroke="black" stroke-linecap="round" stroke-linejoin="round" stroke-width="5.475924486218822" x1="198" x2="203" y1="643" y2="638"/>
    <line opacity="0.85" stroke="black" stroke-linecap="round" stroke-linejoin="round" stroke-width="9.415467606937263" x1="203" x2="220" y1="638" y2="627"/>
    <line opacity="0.85" stroke="black" stroke-linecap="round" stroke-linejoin="round" stroke-width="12.46058353665579" x1="220" x2="233" y1="627" y2="629"/>
    <line opacity="0.85" stroke="black" stroke-linecap="round" stroke-linejoin="round" stroke-width="14.243266125789614" x1="233" x2="233" y1="629" y2="629"/>
    <line opacity="0.85" stroke="black" stroke-linecap="round" stroke-linejoin="round" stroke-width="15.0" x1="233" x2="230" y1="629" y2="658"/>
    <line opacity="0.85" stroke="black" stroke-linecap="round" stroke-linejoin="round" stroke-width="15.0" x1="230" x2="222" y1="658" y2="670"/>
    <line opacity="0.85" stroke="black" stroke-linecap="round" stroke-linejoin="round" stroke-width="15.0" x1="222" x2="205" y1="670" y2="676"/>
    <line opacity="0.85" stroke="black" stroke-linecap="round" stroke-linejoin="round" stroke-width="15.0" x1="205" x2="173" y1="676" y2="678"/>
    <line opacity="0.85" stroke="black" stroke-linecap="round" stroke-linejoin="round" stroke-width="15.0" x1="173" x2="157" y1="678" y2="676"/>
    <line opacity="0.85" stroke="black" stroke-linecap="round" stroke-linejoin="round" stroke-width="15.0" x1="157" x2="141" y1="676" y2="669"/>
    <line opacity="0.85" stroke="black" stroke-linecap="round" stroke-linejoin="round" stroke-width="15.0" x1="141" x2="137" y1="669" y2="662"/>
    <line opacity="0.85" stroke="black" stroke-linecap="round" stroke-linejoin="round" stroke-width="15.0" x1="137" x2="136" y1="662" y2="639"/>
    <line opacity="0.85" stroke="black" stroke-linecap="round" stroke-linejoin="round" stroke-width="15.0" x1="136" x2="142" y1="639" y2="562"/>
    <line opacity="0.85" stroke="black" stroke-linecap="round" stroke-linejoin="round" stroke-width="15.0" x1="142" x2="148" y1="562" y2="548"/>
    <line opacity="0.85" stroke="black" stroke-linecap="round" stroke-linejoin="round" stroke-width="15.0" x1="148" x2="148" y1="548" y2="548"/>
    <line opacity="0.85" stroke="black" stroke-linecap="round" stroke-linejoin="round" stroke-width="15.0" x1="148" x2="153" y1="548" y2="537"/>
    <line opacity="0.85" stroke="black" stroke-linecap="round" stroke-linejoin="round" stroke-width="15.0" x1="153" x2="162" y1="537" y2="531"/>
    <line opacity="0.85" stroke="black" stroke-linecap="round" stroke-linejoin="round" stroke-width="15.0" x1="162" x2="626" y1="531" y2="328"/>
    <line opacity="0.85" stroke="black" stroke-linecap="round" stroke-linejoin="round" stroke-width="15.0" x1="626" x2="636" y1="328" y2="315"/>
    <line opacity="0.85" stroke="black" stroke-linecap="round" stroke-linejoin="round" stroke-width="15.0" x1="636" x2="636" y1="315" y2="315"/>
    <line opacity="0.85" stroke="black" stroke-linecap="round" stroke-linejoin="round" stroke-width="15.0" x1="636" x2="630" y1="315" y2="310"/>
    <line opacity="0.85" stroke="black" stroke-linecap="round" stroke-linejoin="round" stroke-width="15.0" x1="630" x2="605" y1="310" y2="307"/>
    <line opacity="0.85" stroke="black" stroke-linecap="round" stroke-linejoin="round" stroke-width="15.0" x1="605" x2="583" y1="307" y2="300"/>
    <line opacity="0.85" stroke="black" stroke-linecap="round" stroke-linejoin="round" stroke-width="15.0" x1="583" x2="583" y1="300" y2="300"/>
    <line opacity="0.85" stroke="black" stroke-linecap="round" stroke-linejoin="round" stroke-width="15.0" x1="583" x2="572" y1="300" y2="294"/>
    <line opacity="0.85" stroke="black" stroke-linecap="round" stroke-linejoin="round" stroke-width="15.0" x1="572" x2="572" y1="294" y2="287"/>
    <line opacity="0.85" stroke="black" stroke-linecap="round" stroke-linejoin="round" stroke-width="15.0" x1="572" x2="583" y1="287" y2="208"/>
    <line opacity="0.85" stroke="black" stroke-linecap="round" stroke-linejoin="round" stroke-width="15.0" x1="583" x2="592" y1="208" y2="190"/>
    <line opacity="0.85" stroke="black" stroke-linecap="round" stroke-linejoin="round" stroke-width="15.0" x1="592" x2="607" y1="190" y2="186"/>
    <line opacity="0.85" stroke="black" stroke-linecap="round" stroke-linejoin="round" stroke-width="15.0" x1="607" x2="607" y1="186" y2="186"/>
    <line opacity="0.85" stroke="black" stroke-linecap="round" stroke-linejoin="round" stroke-width="15.0" x1="607" x2="612" y1="186" y2="181"/>
    <line opacity="0.85" stroke="black" stroke-linecap="round" stroke-linejoin="round" stroke-width="15.0" x1="612" x2="629" y1="181" y2="179"/>
    <line opacity="0.85" stroke="black" stroke-linecap="round" stroke-linejoin="round" stroke-width="15.0" x1="629" x2="1017" y1="179" y2="135"/>
    <line opacity="0.85" stroke="black" stroke-linecap="round" stroke-linejoin="round" stroke-width="15.0" x1="1017" x2="1041" y1="135" y2="135"/>
    <line opacity="0.85" stroke="black" stroke-linecap="round" stroke-linejoin="round" stroke-width="15.0" x1="1041" x2="1041" y1="135" y2="135"/>
    <line opacity="0.85" stroke="black" stroke-linecap="round" stroke-linejoin="round" stroke-width="15.0" x1="1041" x2="1050" y1="135" y2="133"/>
    <line opacity="0.85" stroke="black" stroke-linecap="round" stroke-linejoin="round" stroke-width="15.0" x1="1050" x2="1057" y1="133" y2="137"/>
    <line opacity="0.85" stroke="black" stroke-linecap="round" stroke-linejoin="round" stroke-width="15.0" x1="1057" x2="1057" y1="137" y2="137"/>
    <line opacity="0.85" stroke="black" stroke-linecap="round" stroke-linejoin="round" stroke-width="15.0" x1="1057" x2="1048" y1="137" y2="148"/>
    <line opacity="0.85" stroke="black" stroke-linecap="round" stroke-linejoin="round" stroke-width="15.0" x1="1048" x2="1048" y1="148" y2="148"/>
    <line opacity="0.85" stroke="black" stroke-linecap="round" stroke-linejoin="round" stroke-width="13.822359477244335" x1="1048" x2="1042" y1="148" y2="146"/>
    <line opacity="0.85" stroke="black" stroke-linecap="round" stroke-linejoin="round" stroke-width="9.693224676556284" x1="1042" x2="1042" y1="146" y2="146"/>
    <line opacity="0.85" stroke="black" stroke-linecap="round" stroke-linejoin="round" stroke-width="8.70699937840425" x1="1042" x2="1023" y1="146" y2="153"/>
    <line opacity="0.85" stroke="black" stroke-linecap="round" stroke-linejoin="round" stroke-width="7.288628869471854" x1="1023" x2="1010" y1="153" y2="162"/>
    <line opacity="0.85" stroke="black" stroke-linecap="round" stroke-linejoin="round" stroke-width="7.288628869471854" x1="1010" x2="1006" y1="162" y2="176"/>
    <line opacity="0.85" stroke="black" stroke-linecap="round" stroke-linejoin="round" stroke-width="7.4464083592862576" x1="1006" x2="1011" y1="176" y2="182"/>
    <line opacity="0.85" stroke="black" stroke-linecap="round" stroke-linejoin="round" stroke-width="7.604187849100661" x1="1011" x2="1044" y1="182" y2="197"/>
    <line opacity="0.85" stroke="black" stroke-linecap="round" stroke-linejoin="round" stroke-width="7.507131574252947" x1="1044" x2="1103" y1="197" y2="206"/>
    <line opacity="0.85" stroke="black" stroke-linecap="round" stroke-linejoin="round" stroke-width="7.842220510185596" x1="1103" x2="1166" y1="206" y2="205"/>
    <line opacity="0.85" stroke="black" stroke-linecap="round" stroke-linejoin="round" stroke-width="8.097056274847715" x1="1166" x2="1228" y1="205" y2="192"/>
    <line opacity="0.85" stroke="black" stroke-linecap="round" stroke-linejoin="round" stroke-width="8.097056274847715" x1="1228" x2="1245" y1="192" y2="182"/>
    <line opacity="0.85" stroke="black" stroke-linecap="round" stroke-linejoin="round" stroke-width="8.19411254969543" x1="1245" x2="1250" y1="182" y2="172"/>
    <line opacity="0.85" stroke="black" stroke-linecap="round" stroke-linejoin="round" stroke-width="8.194112549695427" x1="1250" x2="1245" y1="172" y2="161"/>
    <line opacity="0.85" stroke="black" stroke-linecap="round" stroke-linejoin="round" stroke-width="7.85902361376278" x1="1245" x2="1228" y1="161" y2="151"/>
    <line opacity="0.85" stroke="black" stroke-linecap="round" stroke-linejoin="round" stroke-width="7.361967338915066" x1="1228" x2="1227" y1="151" y2="150"/>
    <line opacity="0.85" stroke="black" stroke-linecap="round" stroke-linejoin="round" stroke-width="6.961967338915066" x1="1227" x2="1216" y1="150" y2="148"/>
    <line opacity="0.85" stroke="black" stroke-linecap="round" stroke-linejoin="round" stroke-width="6.707131574252949" x1="1216" x2="1216" y1="148" y2="148"/>
    <line opacity="0.85" stroke="black" stroke-linecap="round" stroke-linejoin="round" stroke-width="6.756373824500012" x1="1216" x2="1215" y1="148" y2="155"/>
    <line opacity="0.85" stroke="black" stroke-linecap="round" stroke-linejoin="round" stroke-width="6.933683270618256" x1="1215" x2="1225" y1="155" y2="163"/>
    <line opacity="0.85" stroke="black" stroke-linecap="round" stroke-linejoin="round" stroke-width="7.3336832706182555" x1="1225" x2="1222" y1="163" y2="174"/>
    <line opacity="0.85" stroke="black" stroke-linecap="round" stroke-linejoin="round" stroke-width="7.733683270618256" x1="1222" x2="1197" y1="174" y2="184"/>
    <line opacity="0.85" stroke="black" stroke-linecap="round" stroke-linejoin="round" stroke-width="7.89146276043266" x1="1197" x2="1143" y1="184" y2="191"/>
    <line opacity="0.85" stroke="black" stroke-linecap="round" stroke-linejoin="round" stroke-width="7.891462760432661" x1="1143" x2="1086" y1="191" y2="189"/>
    <line opacity="0.85" stroke="black" stroke-linecap="round" stroke-linejoin="round" stroke-width="8.049242250247065" x1="1086" x2="1044" y1="189" y2="179"/>
    <line opacity="0.85" stroke="black" stroke-linecap="round" stroke-linejoin="round" stroke-width="8.146298525094778" x1="1044" x2="1031" y1="179" y2="170"/>
    <line opacity="0.85" stroke="black" stroke-linecap="round" stroke-linejoin="round" stroke-width="7.677669374993255" x1="1031" x2="1033" y1="170" y2="161"/>
    <line opacity="0.85" stroke="black" stroke-linecap="round" stroke-linejoin="round" stroke-width="7.209040224891732" x1="1033" x2="1041" y1="161" y2="154"/>
    <line opacity="0.85" stroke="black" stroke-linecap="round" stroke-linejoin="round" stroke-width="7.002018484830263" x1="1041" x2="1041" y1="154" y2="154"/>
    <line opacity="0.85" stroke="black" stroke-linecap="round" stroke-linejoin="round" stroke-width="6.844238995015858" x1="1041" x2="1042" y1="154" y2="146"/>
    <line opacity="0.85" stroke="black" stroke-linecap="round" stroke-linejoin="round" stroke-width="8.059226675880351" x1="1042" x2="1042" y1="146" y2="146"/>
    <line opacity="0.85" stroke="black" stroke-linecap="round" stroke-linejoin="round" stroke-width="6.927855825981875" x1="1042" x2="1041" y1="146" y2="135"/>
    <line opacity="0.85" stroke="black" stroke-linecap="round" stroke-linejoin="round" stroke-width="6.464911064067352" x1="148" x2="154" y1="548" y2="553"/>
    <line opacity="0.85" stroke="black" stroke-linecap="round" stroke-linejoin="round" stroke-width="8.064911064067351" x1="154" x2="164" y1="553" y2="555"/>
    <line opacity="0.85" stroke="black" stroke-linecap="round" stroke-linejoin="round" stroke-width="9.507131574252947" x1="164" x2="177" y1="555" y2="551"/>
    <line opacity="0.85" stroke="black" stroke-linecap="round" stroke-linejoin="round" stroke-width="7.1720426383203" x1="177" x2="995" y1="551" y2="228"/>
    <line opacity="0.85" stroke="black" stroke-linecap="round" stroke-linejoin="round" stroke-width="7.349352084438544" x1="995" x2="1018" y1="228" y2="221"/>
    <line opacity="0.85" stroke="black" stroke-linecap="round" stroke-linejoin="round" stroke-width="7.191572594624139" x1="1018" x2="1045" y1="221" y2="221"/>
    <line opacity="0.85" stroke="black" stroke-linecap="round" stroke-linejoin="round" stroke-width="7.2408148448712035" x1="1045" x2="1058" y1="221" y2="228"/>
    <line opacity="0.85" stroke="black" stroke-linecap="round" stroke-linejoin="round" stroke-width="7.398594334685608" x1="1058" x2="1070" y1="228" y2="243"/>
    <line opacity="0.85" stroke="black" stroke-linecap="round" stroke-linejoin="round" stroke-width="7.733683270618256" x1="1070" x2="1080" y1="243" y2="274"/>
    <line opacity="0.85" stroke="black" stroke-linecap="round" stroke-linejoin="round" stroke-width="7.733683270618256" x1="1080" x2="1101" y1="274" y2="752"/>
    <line opacity="0.85" stroke="black" stroke-linecap="round" stroke-linejoin="round" stroke-width="7.940705010679724" x1="1101" x2="1105" y1="752" y2="770"/>
    <line opacity="0.85" stroke="black" stroke-linecap="round" stroke-linejoin="round" stroke-width="7.89146276043266" x1="1105" x2="1111" y1="770" y2="780"/>
    <line opacity="0.85" stroke="black" stroke-linecap="round" stroke-linejoin="round" stroke-width="7.89146276043266" x1="1111" x2="1120" y1="780" y2="787"/>
    <line opacity="0.85" stroke="black" stroke-linecap="round" stroke-linejoin="round" stroke-width="7.89146276043266" x1="1120" x2="1131" y1="787" y2="789"/>
    <line opacity="0.85" stroke="black" stroke-linecap="round" stroke-linejoin="round" stroke-width="8.098484500494129" x1="1131" x2="1141" y1="789" y2="787"/>
    <line opacity="0.85" stroke="black" stroke-linecap="round" stroke-linejoin="round" stroke-width="8.049242250247065" x1="1141" x2="1151" y1="787" y2="778"/>
    <line opacity="0.85" stroke="black" stroke-linecap="round" stroke-linejoin="round" stroke-width="8.049242250247064" x1="1151" x2="1160" y1="778" y2="749"/>
    <line opacity="0.85" stroke="black" stroke-linecap="round" stroke-linejoin="round" stroke-width="8.049242250247064" x1="1160" x2="1175" y1="749" y2="401"/>
    <line opacity="0.85" stroke="black" stroke-linecap="round" stroke-linejoin="round" stroke-width="8.049242250247064" x1="1175" x2="1175" y1="401" y2="400"/>
    <line opacity="0.85" stroke="black" stroke-linecap="round" stroke-linejoin="round" stroke-width="7.842220510185596" x1="1175" x2="1180" y1="400" y2="277"/>
    <line opacity="0.85" stroke="black" stroke-linecap="round" stroke-linejoin="round" stroke-width="7.891462760432661" x1="1180" x2="1184" y1="277" y2="257"/>
    <line opacity="0.85" stroke="black" stroke-linecap="round" stroke-linejoin="round" stroke-width="7.940705010679724" x1="1184" x2="1193" y1="257" y2="239"/>
    <line opacity="0.85" stroke="black" stroke-linecap="round" stroke-linejoin="round" stroke-width="7.78292552086532" x1="1193" x2="1203" y1="239" y2="228"/>
    <line opacity="0.85" stroke="black" stroke-linecap="round" stroke-linejoin="round" stroke-width="7.625146031050916" x1="1203" x2="1213" y1="228" y2="222"/>
    <line opacity="0.85" stroke="black" stroke-linecap="round" stroke-linejoin="round" stroke-width="7.447836584932672" x1="1213" x2="1242" y1="222" y2="221"/>
    <line opacity="0.85" stroke="black" stroke-linecap="round" stroke-linejoin="round" stroke-width="7.398594334685608" x1="1242" x2="1296" y1="221" y2="240"/>
    <line opacity="0.85" stroke="black" stroke-linecap="round" stroke-linejoin="round" stroke-width="7.014263148505895" x1="1296" x2="2089" y1="240" y2="553"/>
    <line opacity="0.85" stroke="black" stroke-linecap="round" stroke-linejoin="round" stroke-width="8.7720426383203" x1="2089" x2="2107" y1="553" y2="553"/>
    <line opacity="0.85" stroke="black" stroke-linecap="round" stroke-linejoin="round" stroke-width="10.529822128134704" x1="2107" x2="2112" y1="553" y2="548"/>
    <line opacity="0.85" stroke="black" stroke-linecap="round" stroke-linejoin="round" stroke-width="13.204454184785794" x1="2112" x2="2112" y1="548" y2="548"/>
    <line opacity="0.85" stroke="black" stroke-linecap="round" stroke-linejoin="round" stroke-width="15.0" x1="2112" x2="2109" y1="548" y2="538"/>
    <line opacity="0.85" stroke="black" stroke-linecap="round" stroke-linejoin="round" stroke-width="15.0" x1="2109" x2="2098" y1="538" y2="531"/>
    <line opacity="0.85" stroke="black" stroke-linecap="round" stroke-linejoin="round" stroke-width="15.0" x1="2098" x2="1657" y1="531" y2="338"/>
    <line opacity="0.85" stroke="black" stroke-linecap="round" stroke-linejoin="round" stroke-width="15.0" x1="1657" x2="1633" y1="338" y2="327"/>
    <line opacity="0.85" stroke="black" stroke-linecap="round" stroke-linejoin="round" stroke-width="15.0" x1="1633" x2="1626" y1="327" y2="315"/>
    <line opacity="0.85" stroke="black" stroke-linecap="round" stroke-linejoin="round" stroke-width="15.0" x1="1626" x2="1626" y1="315" y2="315"/>
    <line opacity="0.85" stroke="black" stroke-linecap="round" stroke-linejoin="round" stroke-width="15.0" x1="1626" x2="1607" y1="315" y2="310"/>
    <line opacity="0.85" stroke="black" stroke-linecap="round" stroke-linejoin="round" stroke-width="15.0" x1="1607" x2="1607" y1="310" y2="310"/>
    <line opacity="0.85" stroke="black" stroke-linecap="round" stroke-linejoin="round" stroke-width="15.0" x1="1607" x2="1589" y1="310" y2="308"/>
    <line opacity="0.85" stroke="black" stroke-linecap="round" stroke-linejoin="round" stroke-width="15.0" x1="1589" x2="1583" y1="308" y2="298"/>
    <line opacity="0.85" stroke="black" stroke-linecap="round" stroke-linejoin="round" stroke-width="15.0" x1="1583" x2="1583" y1="298" y2="298"/>
    <line opacity="0.85" stroke="black" stroke-linecap="round" stroke-linejoin="round" stroke-width="15.0" x1="1583" x2="1549" y1="298" y2="295"/>
    <line opacity="0.85" stroke="black" stroke-linecap="round" stroke-linejoin="round" stroke-width="15.0" x1="1549" x2="1501" y1="295" y2="275"/>
    <line opacity="0.85" stroke="black" stroke-linecap="round" stroke-linejoin="round" stroke-width="15.0" x1="1501" x2="1296" y1="275" y2="186"/>
    <line opacity="0.85" stroke="black" stroke-linecap="round" stroke-linejoin="round" stroke-width="13.853339225575779" x1="1296" x2="1276" y1="186" y2="175"/>
    <line opacity="0.85" stroke="black" stroke-linecap="round" stroke-linejoin="round" stroke-width="13.853339225575779" x1="1276" x2="1268" y1="175" y2="167"/>
    <line opacity="0.85" stroke="black" stroke-linecap="round" stroke-linejoin="round" stroke-width="12.624912100829588" x1="1268" x2="1269" y1="167" y2="162"/>
    <line opacity="0.85" stroke="black" stroke-linecap="round" stroke-linejoin="round" stroke-width="11.396484976083398" x1="1269" x2="1296" y1="162" y2="160"/>
    <line opacity="0.85" stroke="black" stroke-linecap="round" stroke-linejoin="round" stroke-width="10.20910023055992" x1="1296" x2="1636" y1="160" y2="195"/>
    <line opacity="0.85" stroke="black" stroke-linecap="round" stroke-linejoin="round" stroke-width="11.236599395566156" x1="1636" x2="1648" y1="195" y2="194"/>
    <line opacity="0.85" stroke="black" stroke-linecap="round" stroke-linejoin="round" stroke-width="12.7761425162846" x1="1648" x2="1654" y1="194" y2="187"/>
    <line opacity="0.85" stroke="black" stroke-linecap="round" stroke-linejoin="round" stroke-width="14.401045615604017" x1="1654" x2="1654" y1="187" y2="187"/>
    <line opacity="0.85" stroke="black" stroke-linecap="round" stroke-linejoin="round" stroke-width="15.0" x1="1654" x2="1649" y1="187" y2="181"/>
    <line opacity="0.85" stroke="black" stroke-linecap="round" stroke-linejoin="round" stroke-width="15.0" x1="1649" x2="1235" y1="181" y2="134"/>
    <line opacity="0.85" stroke="black" stroke-linecap="round" stroke-linejoin="round" stroke-width="15.0" x1="1235" x2="1206" y1="134" y2="133"/>
    <line opacity="0.85" stroke="black" stroke-linecap="round" stroke-linejoin="round" stroke-width="15.0" x1="1206" x2="1200" y1="133" y2="137"/>
    <line opacity="0.85" stroke="black" stroke-linecap="round" stroke-linejoin="round" stroke-width="15.0" x1="1200" x2="1200" y1="137" y2="137"/>
    <line opacity="0.85" stroke="black" stroke-linecap="round" stroke-linejoin="round" stroke-width="15.0" x1="1200" x2="1128" y1="137" y2="133"/>
    <line opacity="0.85" stroke="black" stroke-linecap="round" stroke-linejoin="round" stroke-width="15.0" x1="1128" x2="1057" y1="133" y2="137"/>
    <line opacity="0.85" stroke="black" stroke-linecap="round" stroke-linejoin="round" stroke-width="10.83802762121257" x1="233" x2="984" y1="629" y2="408"/>
    <line opacity="0.85" stroke="black" stroke-linecap="round" stroke-linejoin="round" stroke-width="14.43802762121257" x1="984" x2="1015" y1="408" y2="402"/>
    <line opacity="0.85" stroke="black" stroke-linecap="round" stroke-linejoin="round" stroke-width="15.0" x1="1015" x2="1031" y1="402" y2="403"/>
    <line opacity="0.85" stroke="black" stroke-linecap="round" stroke-linejoin="round" stroke-width="15.0" x1="1031" x2="1046" y1="403" y2="408"/>
    <line opacity="0.85" stroke="black" stroke-linecap="round" stroke-linejoin="round" stroke-width="15.0" x1="1046" x2="1053" y1="408" y2="415"/>
    <line opacity="0.85" stroke="black" stroke-linecap="round" stroke-linejoin="round" stroke-width="15.0" x1="1053" x2="1060" y1="415" y2="442"/>
    <line opacity="0.85" stroke="black" stroke-linecap="round" stroke-linejoin="round" stroke-width="15.0" x1="1060" x2="1072" y1="442" y2="858"/>
    <line opacity="0.85" stroke="black" stroke-linecap="round" stroke-linejoin="round" stroke-width="15.0" x1="1072" x2="1076" y1="858" y2="880"/>
    <line opacity="0.85" stroke="black" stroke-linecap="round" stroke-linejoin="round" stroke-width="15.0" x1="1076" x2="1082" y1="880" y2="893"/>
    <line opacity="0.85" stroke="black" stroke-linecap="round" stroke-linejoin="round" stroke-width="15.0" x1="1082" x2="1093" y1="893" y2="906"/>
    <line opacity="0.85" stroke="black" stroke-linecap="round" stroke-linejoin="round" stroke-width="15.0" x1="1093" x2="1113" y1="906" y2="917"/>
    <line opacity="0.85" stroke="black" stroke-linecap="round" stroke-linejoin="round" stroke-width="15.0" x1="1113" x2="1144" y1="917" y2="918"/>
    <line opacity="0.85" stroke="black" stroke-linecap="round" stroke-linejoin="round" stroke-width="15.0" x1="1144" x2="1166" y1="918" y2="908"/>
    <line opacity="0.85" stroke="black" stroke-linecap="round" stroke-linejoin="round" stroke-width="15.0" x1="1166" x2="1177" y1="908" y2="895"/>
    <line opacity="0.85" stroke="black" stroke-linecap="round" stroke-linejoin="round" stroke-width="15.0" x1="1177" x2="1186" y1="895" y2="874"/>
    <line opacity="0.85" stroke="black" stroke-linecap="round" stroke-linejoin="round" stroke-width="15.0" x1="1186" x2="1190" y1="874" y2="791"/>
    <line opacity="0.85" stroke="black" stroke-linecap="round" stroke-linejoin="round" stroke-width="15.0" x1="1190" x2="1190" y1="791" y2="790"/>
    <line opacity="0.85" stroke="black" stroke-linecap="round" stroke-linejoin="round" stroke-width="15.0" x1="1190" x2="1201" y1="790" y2="435"/>
    <line opacity="0.85" stroke="black" stroke-linecap="round" stroke-linejoin="round" stroke-width="15.0" x1="1201" x2="1203" y1="435" y2="423"/>
    <line opacity="0.85" stroke="black" stroke-linecap="round" stroke-linejoin="round" stroke-width="15.0" x1="1203" x2="1213" y1="423" y2="409"/>
    <line opacity="0.85" stroke="black" stroke-linecap="round" stroke-linejoin="round" stroke-width="15.0" x1="1213" x2="1235" y1="409" y2="402"/>
    <line opacity="0.85" stroke="black" stroke-linecap="round" stroke-linejoin="round" stroke-width="15.0" x1="1235" x2="1284" y1="402" y2="410"/>
    <line opacity="0.85" stroke="black" stroke-linecap="round" stroke-linejoin="round" stroke-width="15.0" x1="1284" x2="2026" y1="410" y2="628"/>
    <line opacity="0.85" stroke="black" stroke-linecap="round" stroke-linejoin="round" stroke-width="15.0" x1="2026" x2="2026" y1="628" y2="628"/>
    <line opacity="0.85" stroke="black" stroke-linecap="round" stroke-linejoin="round" stroke-width="13.813396851361748" x1="2026" x2="2045" y1="628" y2="629"/>
    <line opacity="0.85" stroke="black" stroke-linecap="round" stroke-linejoin="round" stroke-width="11.31491235086762" x1="2045" x2="2059" y1="629" y2="639"/>
    <line opacity="0.85" stroke="black" stroke-linecap="round" stroke-linejoin="round" stroke-width="7.627094567950465" x1="2059" x2="2062" y1="639" y2="647"/>
    <line opacity="0.85" stroke="black" stroke-linecap="round" stroke-linejoin="round" stroke-width="7.507106438394633" x1="607" x2="612" y1="186" y2="193"/>
    <line opacity="0.85" stroke="black" stroke-linecap="round" stroke-linejoin="round" stroke-width="9.107106438394633" x1="612" x2="624" y1="193" y2="195"/>
    <line opacity="0.85" stroke="black" stroke-linecap="round" stroke-linejoin="round" stroke-width="10.707106438394632" x1="624" x2="945" y1="195" y2="162"/>
    <line opacity="0.85" stroke="black" stroke-linecap="round" stroke-linejoin="round" stroke-width="9.02195939411912" x1="945" x2="989" y1="162" y2="160"/>
    <line opacity="0.85" stroke="black" stroke-linecap="round" stroke-linejoin="round" stroke-width="10.11754603249048" x1="989" x2="992" y1="160" y2="163"/>
    <line opacity="0.85" stroke="black" stroke-linecap="round" stroke-linejoin="round" stroke-width="11.40198705286167" x1="992" x2="992" y1="163" y2="169"/>
    <line opacity="0.85" stroke="black" stroke-linecap="round" stroke-linejoin="round" stroke-width="12.48526862586142" x1="992" x2="988" y1="169" y2="173"/>
    <line opacity="0.85" stroke="black" stroke-linecap="round" stroke-linejoin="round" stroke-width="13.68526862586142" x1="988" x2="969" y1="173" y2="184"/>
    <line opacity="0.85" stroke="black" stroke-linecap="round" stroke-linejoin="round" stroke-width="15.0" x1="969" x2="716" y1="184" y2="294"/>
    <line opacity="0.85" stroke="black" stroke-linecap="round" stroke-linejoin="round" stroke-width="15.0" x1="716" x2="678" y1="294" y2="298"/>
    <line opacity="0.85" stroke="black" stroke-linecap="round" stroke-linejoin="round" stroke-width="15.0" x1="678" x2="678" y1="298" y2="298"/>
    <line opacity="0.85" stroke="black" stroke-linecap="round" stroke-linejoin="round" stroke-width="15.0" x1="678" x2="673" y1="298" y2="292"/>
    <line opacity="0.85" stroke="black" stroke-linecap="round" stroke-linejoin="round" stroke-width="15.0" x1="673" x2="659" y1="292" y2="292"/>
    <line opacity="0.85" stroke="black" stroke-linecap="round" stroke-linejoin="round" stroke-width="15.0" x1="659" x2="659" y1="292" y2="292"/>
    <line opacity="0.85" stroke="black" stroke-linecap="round" stroke-linejoin="round" stroke-width="14.435002688562438" x1="659" x2="653" y1="292" y2="283"/>
    <line opacity="0.85" stroke="black" stroke-linecap="round" stroke-linejoin="round" stroke-width="12.189405415830878" x1="653" x2="606" y1="283" y2="276"/>
    <line opacity="0.85" stroke="black" stroke-linecap="round" stroke-linejoin="round" stroke-width="10.065055213255302" x1="606" x2="595" y1="276" y2="279"/>
    <line opacity="0.85" stroke="black" stroke-linecap="round" stroke-linejoin="round" stroke-width="9.913616815687627" x1="595" x2="590" y1="279" y2="284"/>
    <line opacity="0.85" stroke="black" stroke-linecap="round" stroke-linejoin="round" stroke-width="8.313616815687627" x1="590" x2="583" y1="284" y2="300"/>
    <line opacity="0.85" stroke="black" stroke-linecap="round" stroke-linejoin="round" stroke-width="10.642628194015847" x1="636" x2="654" y1="315" y2="310"/>
    <line opacity="0.85" stroke="black" stroke-linecap="round" stroke-linejoin="round" stroke-width="15.0" x1="654" x2="654" y1="310" y2="310"/>
    <line opacity="0.85" stroke="black" stroke-linecap="round" stroke-linejoin="round" stroke-width="15.0" x1="654" x2="659" y1="310" y2="292"/>
    <line opacity="0.85" stroke="black" stroke-linecap="round" stroke-linejoin="round" stroke-width="8.049844718999243" x1="678" x2="673" y1="298" y2="307"/>
    <line opacity="0.85" stroke="black" stroke-linecap="round" stroke-linejoin="round" stroke-width="13.431294337828728" x1="673" x2="654" y1="307" y2="310"/>
    <line opacity="0.85" stroke="black" stroke-linecap="round" stroke-linejoin="round" stroke-width="2.683281572999748" x1="1048" x2="1041" y1="148" y2="154"/>
    <line opacity="0.85" stroke="black" stroke-linecap="round" stroke-linejoin="round" stroke-width="6.371355310873649" x1="1200" x2="1211" y1="137" y2="150"/>
    <line opacity="0.85" stroke="black" stroke-linecap="round" stroke-linejoin="round" stroke-width="7.636266374941001" x1="1211" x2="1211" y1="150" y2="150"/>
    <line opacity="0.85" stroke="black" stroke-linecap="round" stroke-linejoin="round" stroke-width="8.836266374941001" x1="1211" x2="1213" y1="150" y2="147"/>
    <line opacity="0.85" stroke="black" stroke-linecap="round" stroke-linejoin="round" stroke-width="3.664911064067352" x1="1213" x2="1216" y1="147" y2="148"/>
    <line opacity="0.85" stroke="black" stroke-linecap="round" stroke-linejoin="round" stroke-width="3.664911064067352" x1="1216" x2="1213" y1="148" y2="150"/>
    <line opacity="0.85" stroke="black" stroke-linecap="round" stroke-linejoin="round" stroke-width="3.664911064067352" x1="1213" x2="1211" y1="150" y2="150"/>
    <line opacity="0.85" stroke="black" stroke-linecap="round" stroke-linejoin="round" stroke-width="3.664911064067352" x1="1211" x2="1211" y1="150" y2="150"/>
    <line opacity="0.85" stroke="black" stroke-linecap="round" stroke-linejoin="round" stroke-width="3.6649110640673523" x1="1211" x2="1214" y1="150" y2="154"/>
    <line opacity="0.85" stroke="black" stroke-linecap="round" stroke-linejoin="round" stroke-width="3.264911064067352" x1="1214" x2="1216" y1="154" y2="148"/>
    <line opacity="0.85" stroke="black" stroke-linecap="round" stroke-linejoin="round" stroke-width="11.04496240176261" x1="1654" x2="1668" y1="187" y2="189"/>
    <line opacity="0.85" stroke="black" stroke-linecap="round" stroke-linejoin="round" stroke-width="14.462563899889622" x1="1668" x2="1677" y1="189" y2="207"/>
    <line opacity="0.85" stroke="black" stroke-linecap="round" stroke-linejoin="round" stroke-width="15.0" x1="1677" x2="1688" y1="207" y2="287"/>
    <line opacity="0.85" stroke="black" stroke-linecap="round" stroke-linejoin="round" stroke-width="15.0" x1="1688" x2="1688" y1="287" y2="294"/>
    <line opacity="0.85" stroke="black" stroke-linecap="round" stroke-linejoin="round" stroke-width="15.0" x1="1688" x2="1678" y1="294" y2="300"/>
    <line opacity="0.85" stroke="black" stroke-linecap="round" stroke-linejoin="round" stroke-width="15.0" x1="1678" x2="1678" y1="300" y2="300"/>
    <line opacity="0.85" stroke="black" stroke-linecap="round" stroke-linejoin="round" stroke-width="13.911151858884011" x1="1678" x2="1670" y1="300" y2="283"/>
    <line opacity="0.85" stroke="black" stroke-linecap="round" stroke-linejoin="round" stroke-width="12.093550360756998" x1="1670" x2="1658" y1="283" y2="276"/>
    <line opacity="0.85" stroke="black" stroke-linecap="round" stroke-linejoin="round" stroke-width="12.244988758324673" x1="1658" x2="1607" y1="276" y2="283"/>
    <line opacity="0.85" stroke="black" stroke-linecap="round" stroke-linejoin="round" stroke-width="12.396427155892347" x1="1607" x2="1602" y1="283" y2="292"/>
    <line opacity="0.85" stroke="black" stroke-linecap="round" stroke-linejoin="round" stroke-width="14.435002688562438" x1="1602" x2="1602" y1="292" y2="292"/>
    <line opacity="0.85" stroke="black" stroke-linecap="round" stroke-linejoin="round" stroke-width="15.0" x1="1602" x2="1588" y1="292" y2="292"/>
    <line opacity="0.85" stroke="black" stroke-linecap="round" stroke-linejoin="round" stroke-width="15.0" x1="1588" x2="1583" y1="292" y2="298"/>
    <line opacity="0.85" stroke="black" stroke-linecap="round" stroke-linejoin="round" stroke-width="5.3814496188294845" x1="1607" x2="1602" y1="310" y2="292"/>
    <line opacity="0.85" stroke="black" stroke-linecap="round" stroke-linejoin="round" stroke-width="7.199862819254631" x1="1678" x2="1655" y1="300" y2="307"/>
    <line opacity="0.85" stroke="black" stroke-linecap="round" stroke-linejoin="round" stroke-width="10.399862819254631" x1="1655" x2="1631" y1="307" y2="310"/>
    <line opacity="0.85" stroke="black" stroke-linecap="round" stroke-linejoin="round" stroke-width="15.0" x1="1631" x2="1626" y1="310" y2="315"/>
    <line opacity="0.85" stroke="black" stroke-linecap="round" stroke-linejoin="round" stroke-width="10.705419281044167" x1="2026" x2="2029" y1="628" y2="634"/>
    <line opacity="0.85" stroke="black" stroke-linecap="round" stroke-linejoin="round" stroke-width="14.14634938786122" x1="2029" x2="2031" y1="634" y2="660"/>
    <line opacity="0.85" stroke="black" stroke-linecap="round" stroke-linejoin="round" stroke-width="15.0" x1="2031" x2="2037" y1="660" y2="669"/>
    <line opacity="0.85" stroke="black" stroke-linecap="round" stroke-linejoin="round" stroke-width="15.0" x1="2037" x2="2043" y1="669" y2="672"/>
    <line opacity="0.85" stroke="black" stroke-linecap="round" stroke-linejoin="round" stroke-width="15.0" x1="2043" x2="2064" y1="672" y2="677"/>
    <line opacity="0.85" stroke="black" stroke-linecap="round" stroke-linejoin="round" stroke-width="15.0" x1="2064" x2="2087" y1="677" y2="678"/>
    <line opacity="0.85" stroke="black" stroke-linecap="round" stroke-linejoin="round" stroke-width="15.0" x1="2087" x2="2103" y1="678" y2="676"/>
    <line opacity="0.85" stroke="black" stroke-linecap="round" stroke-linejoin="round" stroke-width="15.0" x1="2103" x2="2120" y1="676" y2="669"/>
    <line opacity="0.85" stroke="black" stroke-linecap="round" stroke-linejoin="round" stroke-width="15.0" x1="2120" x2="2125" y1="669" y2="657"/>
    <line opacity="0.85" stroke="black" stroke-linecap="round" stroke-linejoin="round" stroke-width="15.0" x1="2125" x2="2115" y1="657" y2="549"/>
    <line opacity="0.85" stroke="black" stroke-linecap="round" stroke-linejoin="round" stroke-width="15.0" x1="2115" x2="2114" y1="549" y2="548"/>
    <line opacity="0.85" stroke="black" stroke-linecap="round" stroke-linejoin="round" stroke-width="14.73954312071844" x1="2114" x2="2112" y1="548" y2="548"/>
    <line opacity="0.85" stroke="black" stroke-linecap="round" stroke-linejoin="round" stroke-width="7.442220510185596" x1="2220" x2="2205" y1="935" y2="946"/>
    <line opacity="0.85" stroke="black" stroke-linecap="round" stroke-linejoin="round" stroke-width="13.442220510185596" x1="2205" x2="2144" y1="946" y2="946"/>
    <line opacity="0.85" stroke="black" stroke-linecap="round" stroke-linejoin="round" stroke-width="13.842220510185596" x1="2144" x2="2129" y1="946" y2="932"/>
  </g>
</svg>
