<?xml version="1.0" encoding="utf-8" ?>
<svg xmlns="http://www.w3.org/2000/svg" xmlns:ev="http://www.w3.org/2001/xml-events" xmlns:xlink="http://www.w3.org/1999/xlink" baseProfile="full" height="100%" preserveAspectRatio="xMidYMid meet" version="1.1" viewBox="-50 -50 1130 1202" width="100%">
  <defs/>
  <g>
    <line opacity="0.85" stroke="black" stroke-linecap="round" stroke-linejoin="round" stroke-width="10.198495552142061" x1="195" x2="194" y1="466" y2="479"/>
    <line opacity="0.85" stroke="black" stroke-linecap="round" stroke-linejoin="round" stroke-width="13.616097050269072" x1="194" x2="213" y1="479" y2="668"/>
    <line opacity="0.85" stroke="black" stroke-linecap="round" stroke-linejoin="round" stroke-width="15.0" x1="213" x2="226" y1="668" y2="766"/>
    <line opacity="0.85" stroke="black" stroke-linecap="round" stroke-linejoin="round" stroke-width="15.0" x1="226" x2="239" y1="766" y2="782"/>
    <line opacity="0.85" stroke="black" stroke-linecap="round" stroke-linejoin="round" stroke-width="15.0" x1="239" x2="501" y1="782" y2="1009"/>
    <line opacity="0.85" stroke="black" stroke-linecap="round" stroke-linejoin="round" stroke-width="15.0" x1="501" x2="510" y1="1009" y2="1012"/>
    <line opacity="0.85" stroke="black" stroke-linecap="round" stroke-linejoin="round" stroke-width="15.0" x1="510" x2="525" y1="1012" y2="1011"/>
    <line opacity="0.85" stroke="black" stroke-linecap="round" stroke-linejoin="round" stroke-width="15.0" x1="525" x2="618" y1="1011" y2="950"/>
    <line opacity="0.85" stroke="black" stroke-linecap="round" stroke-linejoin="round" stroke-width="15.0" x1="618" x2="621" y1="950" y2="942"/>
    <line opacity="0.85" stroke="black" stroke-linecap="round" stroke-linejoin="round" stroke-width="15.0" x1="621" x2="621" y1="942" y2="891"/>
    <line opacity="0.85" stroke="black" stroke-linecap="round" stroke-linejoin="round" stroke-width="15.0" x1="621" x2="625" y1="891" y2="841"/>
    <line opacity="0.85" stroke="black" stroke-linecap="round" stroke-linejoin="round" stroke-width="15.0" x1="625" x2="634" y1="841" y2="791"/>
    <line opacity="0.85" stroke="black" stroke-linecap="round" stroke-linejoin="round" stroke-width="15.0" x1="634" x2="659" y1="791" y2="701"/>
    <line opacity="0.85" stroke="black" stroke-linecap="round" stroke-linejoin="round" stroke-width="15.0" x1="659" x2="687" y1="701" y2="633"/>
    <line opacity="0.85" stroke="black" stroke-linecap="round" stroke-linejoin="round" stroke-width="15.0" x1="687" x2="687" y1="633" y2="632"/>
    <line opacity="0.85" stroke="black" stroke-linecap="round" stroke-linejoin="round" stroke-width="15.0" x1="687" x2="704" y1="632" y2="595"/>
    <line opacity="0.85" stroke="black" stroke-linecap="round" stroke-linejoin="round" stroke-width="15.0" x1="704" x2="711" y1="595" y2="542"/>
    <line opacity="0.85" stroke="black" stroke-linecap="round" stroke-linejoin="round" stroke-width="15.0" x1="711" x2="733" y1="542" y2="319"/>
    <line opacity="0.85" stroke="black" stroke-linecap="round" stroke-linejoin="round" stroke-width="15.0" x1="733" x2="731" y1="319" y2="300"/>
    <line opacity="0.85" stroke="black" stroke-linecap="round" stroke-linejoin="round" stroke-width="15.0" x1="731" x2="724" y1="300" y2="284"/>
    <line opacity="0.85" stroke="black" stroke-linecap="round" stroke-linejoin="round" stroke-width="15.0" x1="724" x2="712" y1="284" y2="272"/>
    <line opacity="0.85" stroke="black" stroke-linecap="round" stroke-linejoin="round" stroke-width="15.0" x1="712" x2="465" y1="272" y2="144"/>
    <line opacity="0.85" stroke="black" stroke-linecap="round" stroke-linejoin="round" stroke-width="15.0" x1="465" x2="448" y1="144" y2="141"/>
    <line opacity="0.85" stroke="black" stroke-linecap="round" stroke-linejoin="round" stroke-width="15.0" x1="448" x2="430" y1="141" y2="144"/>
    <line opacity="0.85" stroke="black" stroke-linecap="round" stroke-linejoin="round" stroke-width="15.0" x1="430" x2="379" y1="144" y2="160"/>
    <line opacity="0.85" stroke="black" stroke-linecap="round" stroke-linejoin="round" stroke-width="15.0" x1="379" x2="372" y1="160" y2="167"/>
    <line opacity="0.85" stroke="black" stroke-linecap="round" stroke-linejoin="round" stroke-width="15.0" x1="372" x2="372" y1="167" y2="167"/>
    <line opacity="0.85" stroke="black" stroke-linecap="round" stroke-linejoin="round" stroke-width="15.0" x1="372" x2="360" y1="167" y2="176"/>
    <line opacity="0.85" stroke="black" stroke-linecap="round" stroke-linejoin="round" stroke-width="15.0" x1="360" x2="355" y1="176" y2="189"/>
    <line opacity="0.85" stroke="black" stroke-linecap="round" stroke-linejoin="round" stroke-width="15.0" x1="355" x2="341" y1="189" y2="356"/>
    <line opacity="0.85" stroke="black" stroke-linecap="round" stroke-linejoin="round" stroke-width="15.0" x1="341" x2="337" y1="356" y2="368"/>
    <line opacity="0.85" stroke="black" stroke-linecap="round" stroke-linejoin="round" stroke-width="15.0" x1="337" x2="328" y1="368" y2="379"/>
    <line opacity="0.85" stroke="black" stroke-linecap="round" stroke-linejoin="round" stroke-width="15.0" x1="328" x2="318" y1="379" y2="385"/>
    <line opacity="0.85" stroke="black" stroke-linecap="round" stroke-linejoin="round" stroke-width="15.0" x1="318" x2="199" y1="385" y2="433"/>
    <line opacity="0.85" stroke="black" stroke-linecap="round" stroke-linejoin="round" stroke-width="15.0" x1="199" x2="192" y1="433" y2="448"/>
    <line opacity="0.85" stroke="black" stroke-linecap="round" stroke-linejoin="round" stroke-width="15.0" x1="192" x2="195" y1="448" y2="466"/>
    <line opacity="0.85" stroke="black" stroke-linecap="round" stroke-linejoin="round" stroke-width="15.0" x1="195" x2="195" y1="466" y2="466"/>
    <line opacity="0.85" stroke="black" stroke-linecap="round" stroke-linejoin="round" stroke-width="14.238647666077943" x1="195" x2="209" y1="466" y2="470"/>
    <line opacity="0.85" stroke="black" stroke-linecap="round" stroke-linejoin="round" stroke-width="12.238647666077943" x1="209" x2="457" y1="470" y2="628"/>
    <line opacity="0.85" stroke="black" stroke-linecap="round" stroke-linejoin="round" stroke-width="9.907275723440897" x1="457" x2="482" y1="628" y2="630"/>
    <line opacity="0.85" stroke="black" stroke-linecap="round" stroke-linejoin="round" stroke-width="7.78292552086532" x1="482" x2="536" y1="630" y2="600"/>
    <line opacity="0.85" stroke="black" stroke-linecap="round" stroke-linejoin="round" stroke-width="7.9899472609267885" x1="536" x2="538" y1="600" y2="599"/>
    <line opacity="0.85" stroke="black" stroke-linecap="round" stroke-linejoin="round" stroke-width="7.78292552086532" x1="538" x2="611" y1="599" y2="558"/>
    <line opacity="0.85" stroke="black" stroke-linecap="round" stroke-linejoin="round" stroke-width="7.832167771112384" x1="611" x2="627" y1="558" y2="544"/>
    <line opacity="0.85" stroke="black" stroke-linecap="round" stroke-linejoin="round" stroke-width="7.9899472609267885" x1="627" x2="635" y1="544" y2="532"/>
    <line opacity="0.85" stroke="black" stroke-linecap="round" stroke-linejoin="round" stroke-width="7.940705010679723" x1="635" x2="641" y1="532" y2="515"/>
    <line opacity="0.85" stroke="black" stroke-linecap="round" stroke-linejoin="round" stroke-width="7.940705010679724" x1="641" x2="660" y1="515" y2="361"/>
    <line opacity="0.85" stroke="black" stroke-linecap="round" stroke-linejoin="round" stroke-width="8.147726750741192" x1="660" x2="655" y1="361" y2="337"/>
    <line opacity="0.85" stroke="black" stroke-linecap="round" stroke-linejoin="round" stroke-width="7.940705010679724" x1="655" x2="647" y1="337" y2="323"/>
    <line opacity="0.85" stroke="black" stroke-linecap="round" stroke-linejoin="round" stroke-width="7.78292552086532" x1="647" x2="634" y1="323" y2="311"/>
    <line opacity="0.85" stroke="black" stroke-linecap="round" stroke-linejoin="round" stroke-width="7.782925520865319" x1="634" x2="396" y1="311" y2="177"/>
    <line opacity="0.85" stroke="black" stroke-linecap="round" stroke-linejoin="round" stroke-width="9.82150105353541" x1="396" x2="381" y1="177" y2="173"/>
    <line opacity="0.85" stroke="black" stroke-linecap="round" stroke-linejoin="round" stroke-width="8.172258803288347" x1="381" x2="372" y1="173" y2="167"/>
    <line opacity="0.85" stroke="black" stroke-linecap="round" stroke-linejoin="round" stroke-width="5.49146276043266" x1="362" x2="363" y1="444" y2="471"/>
    <line opacity="0.85" stroke="black" stroke-linecap="round" stroke-linejoin="round" stroke-width="6.756373824500012" x1="363" x2="370" y1="471" y2="482"/>
    <line opacity="0.85" stroke="black" stroke-linecap="round" stroke-linejoin="round" stroke-width="8.453430099347726" x1="370" x2="376" y1="482" y2="484"/>
    <line opacity="0.85" stroke="black" stroke-linecap="round" stroke-linejoin="round" stroke-width="7.653430099347727" x1="376" x2="383" y1="484" y2="481"/>
    <line opacity="0.85" stroke="black" stroke-linecap="round" stroke-linejoin="round" stroke-width="8.77245928413527" x1="383" x2="387" y1="481" y2="473"/>
    <line opacity="0.85" stroke="black" stroke-linecap="round" stroke-linejoin="round" stroke-width="9.684466728861345" x1="387" x2="386" y1="473" y2="447"/>
    <line opacity="0.85" stroke="black" stroke-linecap="round" stroke-linejoin="round" stroke-width="10.819555664793993" x1="386" x2="386" y1="447" y2="447"/>
    <line opacity="0.85" stroke="black" stroke-linecap="round" stroke-linejoin="round" stroke-width="11.522499389946281" x1="386" x2="362" y1="447" y2="444"/>
    <line opacity="0.85" stroke="black" stroke-linecap="round" stroke-linejoin="round" stroke-width="12.72249938994628" x1="362" x2="362" y1="444" y2="444"/>
    <line opacity="0.85" stroke="black" stroke-linecap="round" stroke-linejoin="round" stroke-width="12.315315617826942" x1="362" x2="364" y1="444" y2="433"/>
    <line opacity="0.85" stroke="black" stroke-linecap="round" stroke-linejoin="round" stroke-width="12.554065922853804" x1="364" x2="367" y1="433" y2="433"/>
    <line opacity="0.85" stroke="black" stroke-linecap="round" stroke-linejoin="round" stroke-width="12.954065922853804" x1="367" x2="364" y1="433" y2="433"/>
    <line opacity="0.85" stroke="black" stroke-linecap="round" stroke-linejoin="round" stroke-width="12.708131845707605" x1="364" x2="364" y1="433" y2="433"/>
    <line opacity="0.85" stroke="black" stroke-linecap="round" stroke-linejoin="round" stroke-width="12.062197768561406" x1="364" x2="346" y1="433" y2="419"/>
    <line opacity="0.85" stroke="black" stroke-linecap="round" stroke-linejoin="round" stroke-width="12.062197768561406" x1="346" x2="330" y1="419" y2="416"/>
    <line opacity="0.85" stroke="black" stroke-linecap="round" stroke-linejoin="round" stroke-width="11.594578526499525" x1="330" x2="255" y1="416" y2="447"/>
    <line opacity="0.85" stroke="black" stroke-linecap="round" stroke-linejoin="round" stroke-width="11.194578526499525" x1="255" x2="249" y1="447" y2="450"/>
    <line opacity="0.85" stroke="black" stroke-linecap="round" stroke-linejoin="round" stroke-width="11.440512603645724" x1="249" x2="247" y1="450" y2="455"/>
    <line opacity="0.85" stroke="black" stroke-linecap="round" stroke-linejoin="round" stroke-width="11.96972825379167" x1="247" x2="247" y1="455" y2="455"/>
    <line opacity="0.85" stroke="black" stroke-linecap="round" stroke-linejoin="round" stroke-width="12.21566233093787" x1="247" x2="244" y1="455" y2="453"/>
    <line opacity="0.85" stroke="black" stroke-linecap="round" stroke-linejoin="round" stroke-width="12.146023272796702" x1="244" x2="247" y1="453" y2="455"/>
    <line opacity="0.85" stroke="black" stroke-linecap="round" stroke-linejoin="round" stroke-width="12.008764972593655" x1="247" x2="260" y1="455" y2="466"/>
    <line opacity="0.85" stroke="black" stroke-linecap="round" stroke-linejoin="round" stroke-width="11.762830895447456" x1="260" x2="467" y1="466" y2="596"/>
    <line opacity="0.85" stroke="black" stroke-linecap="round" stroke-linejoin="round" stroke-width="11.23361524530151" x1="467" x2="475" y1="596" y2="598"/>
    <line opacity="0.85" stroke="black" stroke-linecap="round" stroke-linejoin="round" stroke-width="11.23361524530151" x1="475" x2="511" y1="598" y2="579"/>
    <line opacity="0.85" stroke="black" stroke-linecap="round" stroke-linejoin="round" stroke-width="11.370873545504557" x1="511" x2="518" y1="579" y2="572"/>
    <line opacity="0.85" stroke="black" stroke-linecap="round" stroke-linejoin="round" stroke-width="10.5503523558932" x1="518" x2="518" y1="572" y2="572"/>
    <line opacity="0.85" stroke="black" stroke-linecap="round" stroke-linejoin="round" stroke-width="9.996286433039398" x1="518" x2="508" y1="572" y2="560"/>
    <line opacity="0.85" stroke="black" stroke-linecap="round" stroke-linejoin="round" stroke-width="10.242220510185597" x1="508" x2="504" y1="560" y2="534"/>
    <line opacity="0.85" stroke="black" stroke-linecap="round" stroke-linejoin="round" stroke-width="10.242220510185597" x1="504" x2="506" y1="534" y2="530"/>
    <line opacity="0.85" stroke="black" stroke-linecap="round" stroke-linejoin="round" stroke-width="10.174601268123716" x1="506" x2="506" y1="530" y2="530"/>
    <line opacity="0.85" stroke="black" stroke-linecap="round" stroke-linejoin="round" stroke-width="10.886446680791922" x1="506" x2="505" y1="530" y2="515"/>
    <line opacity="0.85" stroke="black" stroke-linecap="round" stroke-linejoin="round" stroke-width="11.440512603645724" x1="505" x2="499" y1="515" y2="510"/>
    <line opacity="0.85" stroke="black" stroke-linecap="round" stroke-linejoin="round" stroke-width="11.601762298618862" x1="499" x2="405" y1="510" y2="454"/>
    <line opacity="0.85" stroke="black" stroke-linecap="round" stroke-linejoin="round" stroke-width="9.201762298618863" x1="405" x2="386" y1="454" y2="447"/>
    <line opacity="0.85" stroke="black" stroke-linecap="round" stroke-linejoin="round" stroke-width="6.005188120555317" x1="375" x2="365" y1="394" y2="385"/>
    <line opacity="0.85" stroke="black" stroke-linecap="round" stroke-linejoin="round" stroke-width="8.337568878493437" x1="365" x2="363" y1="385" y2="373"/>
    <line opacity="0.85" stroke="black" stroke-linecap="round" stroke-linejoin="round" stroke-width="10.337568878493437" x1="363" x2="368" y1="373" y2="347"/>
    <line opacity="0.85" stroke="black" stroke-linecap="round" stroke-linejoin="round" stroke-width="10.903254303442676" x1="368" x2="378" y1="347" y2="212"/>
    <line opacity="0.85" stroke="black" stroke-linecap="round" stroke-linejoin="round" stroke-width="10.903254303442676" x1="378" x2="383" y1="212" y2="201"/>
    <line opacity="0.85" stroke="black" stroke-linecap="round" stroke-linejoin="round" stroke-width="11.081569138526994" x1="383" x2="389" y1="201" y2="198"/>
    <line opacity="0.85" stroke="black" stroke-linecap="round" stroke-linejoin="round" stroke-width="11.081569138526994" x1="389" x2="396" y1="198" y2="202"/>
    <line opacity="0.85" stroke="black" stroke-linecap="round" stroke-linejoin="round" stroke-width="11.235635061380796" x1="396" x2="396" y1="202" y2="202"/>
    <line opacity="0.85" stroke="black" stroke-linecap="round" stroke-linejoin="round" stroke-width="11.126959284437644" x1="396" x2="513" y1="202" y2="265"/>
    <line opacity="0.85" stroke="black" stroke-linecap="round" stroke-linejoin="round" stroke-width="10.972893361583843" x1="513" x2="525" y1="265" y2="272"/>
    <line opacity="0.85" stroke="black" stroke-linecap="round" stroke-linejoin="round" stroke-width="10.640512603645723" x1="525" x2="528" y1="272" y2="278"/>
    <line opacity="0.85" stroke="black" stroke-linecap="round" stroke-linejoin="round" stroke-width="10.462197768561404" x1="528" x2="528" y1="278" y2="278"/>
    <line opacity="0.85" stroke="black" stroke-linecap="round" stroke-linejoin="round" stroke-width="10.991413418707351" x1="528" x2="538" y1="278" y2="279"/>
    <line opacity="0.85" stroke="black" stroke-linecap="round" stroke-linejoin="round" stroke-width="11.520629068853298" x1="538" x2="552" y1="279" y2="290"/>
    <line opacity="0.85" stroke="black" stroke-linecap="round" stroke-linejoin="round" stroke-width="11.169871319100363" x1="552" x2="552" y1="290" y2="290"/>
    <line opacity="0.85" stroke="black" stroke-linecap="round" stroke-linejoin="round" stroke-width="10.819113569347428" x1="552" x2="546" y1="290" y2="310"/>
    <line opacity="0.85" stroke="black" stroke-linecap="round" stroke-linejoin="round" stroke-width="10.10726815667922" x1="546" x2="538" y1="310" y2="310"/>
    <line opacity="0.85" stroke="black" stroke-linecap="round" stroke-linejoin="round" stroke-width="9.423986583679472" x1="538" x2="526" y1="310" y2="294"/>
    <line opacity="0.85" stroke="black" stroke-linecap="round" stroke-linejoin="round" stroke-width="6.740705010679724" x1="526" x2="528" y1="294" y2="278"/>
    <line opacity="0.85" stroke="black" stroke-linecap="round" stroke-linejoin="round" stroke-width="5.532380757938121" x1="396" x2="385" y1="202" y2="332"/>
    <line opacity="0.85" stroke="black" stroke-linecap="round" stroke-linejoin="round" stroke-width="6.974601268123717" x1="385" x2="389" y1="332" y2="358"/>
    <line opacity="0.85" stroke="black" stroke-linecap="round" stroke-linejoin="round" stroke-width="8.416821778309313" x1="389" x2="403" y1="358" y2="373"/>
    <line opacity="0.85" stroke="black" stroke-linecap="round" stroke-linejoin="round" stroke-width="6.884441020371192" x1="403" x2="489" y1="373" y2="423"/>
    <line opacity="0.85" stroke="black" stroke-linecap="round" stroke-linejoin="round" stroke-width="6.084441020371191" x1="489" x2="501" y1="423" y2="427"/>
    <line opacity="0.85" stroke="black" stroke-linecap="round" stroke-linejoin="round" stroke-width="6.181497295218906" x1="501" x2="501" y1="427" y2="427"/>
    <line opacity="0.85" stroke="black" stroke-linecap="round" stroke-linejoin="round" stroke-width="6.181497295218906" x1="501" x2="502" y1="427" y2="420"/>
    <line opacity="0.85" stroke="black" stroke-linecap="round" stroke-linejoin="round" stroke-width="6.339276785033309" x1="502" x2="495" y1="420" y2="409"/>
    <line opacity="0.85" stroke="black" stroke-linecap="round" stroke-linejoin="round" stroke-width="7.1885190352803745" x1="495" x2="495" y1="409" y2="399"/>
    <line opacity="0.85" stroke="black" stroke-linecap="round" stroke-linejoin="round" stroke-width="7.83073954546597" x1="495" x2="499" y1="399" y2="392"/>
    <line opacity="0.85" stroke="black" stroke-linecap="round" stroke-linejoin="round" stroke-width="7.78292552086532" x1="499" x2="506" y1="392" y2="392"/>
    <line opacity="0.85" stroke="black" stroke-linecap="round" stroke-linejoin="round" stroke-width="7.940705010679725" x1="506" x2="507" y1="392" y2="393"/>
    <line opacity="0.85" stroke="black" stroke-linecap="round" stroke-linejoin="round" stroke-width="7.940705010679723" x1="507" x2="514" y1="393" y2="402"/>
    <line opacity="0.85" stroke="black" stroke-linecap="round" stroke-linejoin="round" stroke-width="7.940705010679724" x1="514" x2="516" y1="402" y2="415"/>
    <line opacity="0.85" stroke="black" stroke-linecap="round" stroke-linejoin="round" stroke-width="7.298484500494128" x1="516" x2="512" y1="415" y2="422"/>
    <line opacity="0.85" stroke="black" stroke-linecap="round" stroke-linejoin="round" stroke-width="6.449242250247064" x1="512" x2="501" y1="422" y2="427"/>
    <line opacity="0.85" stroke="black" stroke-linecap="round" stroke-linejoin="round" stroke-width="6.29146276043266" x1="501" x2="501" y1="427" y2="427"/>
    <line opacity="0.85" stroke="black" stroke-linecap="round" stroke-linejoin="round" stroke-width="6.845528683286462" x1="501" x2="508" y1="427" y2="434"/>
    <line opacity="0.85" stroke="black" stroke-linecap="round" stroke-linejoin="round" stroke-width="7.3503523558931985" x1="508" x2="622" y1="434" y2="500"/>
    <line opacity="0.85" stroke="black" stroke-linecap="round" stroke-linejoin="round" stroke-width="8.589960161330312" x1="622" x2="622" y1="500" y2="500"/>
    <line opacity="0.85" stroke="black" stroke-linecap="round" stroke-linejoin="round" stroke-width="9.944026084184115" x1="622" x2="626" y1="500" y2="491"/>
    <line opacity="0.85" stroke="black" stroke-linecap="round" stroke-linejoin="round" stroke-width="10.764547273795472" x1="626" x2="640" y1="491" y2="352"/>
    <line opacity="0.85" stroke="black" stroke-linecap="round" stroke-linejoin="round" stroke-width="10.764547273795472" x1="640" x2="626" y1="352" y2="329"/>
    <line opacity="0.85" stroke="black" stroke-linecap="round" stroke-linejoin="round" stroke-width="11.293762923941419" x1="626" x2="559" y1="329" y2="291"/>
    <line opacity="0.85" stroke="black" stroke-linecap="round" stroke-linejoin="round" stroke-width="9.254155118504304" x1="559" x2="552" y1="291" y2="290"/>
    <line opacity="0.85" stroke="black" stroke-linecap="round" stroke-linejoin="round" stroke-width="5.9759037808038515" x1="469" x2="468" y1="296" y2="287"/>
    <line opacity="0.85" stroke="black" stroke-linecap="round" stroke-linejoin="round" stroke-width="7.575903780803851" x1="468" x2="453" y1="287" y2="272"/>
    <line opacity="0.85" stroke="black" stroke-linecap="round" stroke-linejoin="round" stroke-width="9.018124290989448" x1="453" x2="439" y1="272" y2="267"/>
    <line opacity="0.85" stroke="black" stroke-linecap="round" stroke-linejoin="round" stroke-width="7.575903780803852" x1="439" x2="429" y1="267" y2="268"/>
    <line opacity="0.85" stroke="black" stroke-linecap="round" stroke-linejoin="round" stroke-width="7.575903780803852" x1="429" x2="421" y1="268" y2="274"/>
    <line opacity="0.85" stroke="black" stroke-linecap="round" stroke-linejoin="round" stroke-width="7.526661530556787" x1="421" x2="413" y1="274" y2="289"/>
    <line opacity="0.85" stroke="black" stroke-linecap="round" stroke-linejoin="round" stroke-width="7.526661530556787" x1="413" x2="412" y1="289" y2="314"/>
    <line opacity="0.85" stroke="black" stroke-linecap="round" stroke-linejoin="round" stroke-width="7.733683270618255" x1="412" x2="415" y1="314" y2="329"/>
    <line opacity="0.85" stroke="black" stroke-linecap="round" stroke-linejoin="round" stroke-width="7.733683270618256" x1="415" x2="429" y1="329" y2="357"/>
    <line opacity="0.85" stroke="black" stroke-linecap="round" stroke-linejoin="round" stroke-width="7.89146276043266" x1="429" x2="439" y1="357" y2="367"/>
    <line opacity="0.85" stroke="black" stroke-linecap="round" stroke-linejoin="round" stroke-width="7.940705010679724" x1="439" x2="457" y1="367" y2="376"/>
    <line opacity="0.85" stroke="black" stroke-linecap="round" stroke-linejoin="round" stroke-width="7.9899472609267885" x1="457" x2="468" y1="376" y2="374"/>
    <line opacity="0.85" stroke="black" stroke-linecap="round" stroke-linejoin="round" stroke-width="7.940705010679725" x1="468" x2="480" y1="374" y2="362"/>
    <line opacity="0.85" stroke="black" stroke-linecap="round" stroke-linejoin="round" stroke-width="8.931589512613417" x1="480" x2="485" y1="362" y2="340"/>
    <line opacity="0.85" stroke="black" stroke-linecap="round" stroke-linejoin="round" stroke-width="9.764694524732704" x1="485" x2="480" y1="340" y2="333"/>
    <line opacity="0.85" stroke="black" stroke-linecap="round" stroke-linejoin="round" stroke-width="10.269518197339442" x1="480" x2="480" y1="333" y2="333"/>
    <line opacity="0.85" stroke="black" stroke-linecap="round" stroke-linejoin="round" stroke-width="10.774341869946179" x1="480" x2="473" y1="333" y2="338"/>
    <line opacity="0.85" stroke="black" stroke-linecap="round" stroke-linejoin="round" stroke-width="11.32840779279998" x1="473" x2="465" y1="338" y2="337"/>
    <line opacity="0.85" stroke="black" stroke-linecap="round" stroke-linejoin="round" stroke-width="10.934910586117807" x1="465" x2="454" y1="337" y2="325"/>
    <line opacity="0.85" stroke="black" stroke-linecap="round" stroke-linejoin="round" stroke-width="10.764547273795472" x1="454" x2="451" y1="325" y2="307"/>
    <line opacity="0.85" stroke="black" stroke-linecap="round" stroke-linejoin="round" stroke-width="11.494922371312862" x1="451" x2="457" y1="307" y2="297"/>
    <line opacity="0.85" stroke="black" stroke-linecap="round" stroke-linejoin="round" stroke-width="12.225297468830252" x1="457" x2="469" y1="297" y2="296"/>
    <line opacity="0.85" stroke="black" stroke-linecap="round" stroke-linejoin="round" stroke-width="12.403612303914569" x1="469" x2="469" y1="296" y2="296"/>
    <line opacity="0.85" stroke="black" stroke-linecap="round" stroke-linejoin="round" stroke-width="12.797109510596744" x1="469" x2="477" y1="296" y2="307"/>
    <line opacity="0.85" stroke="black" stroke-linecap="round" stroke-linejoin="round" stroke-width="10.534367810799791" x1="477" x2="480" y1="307" y2="333"/>
    <line opacity="0.85" stroke="black" stroke-linecap="round" stroke-linejoin="round" stroke-width="3.5962864330393973" x1="569" x2="559" y1="510" y2="507"/>
    <line opacity="0.85" stroke="black" stroke-linecap="round" stroke-linejoin="round" stroke-width="5.85902813283635" x1="559" x2="389" y1="507" y2="406"/>
    <line opacity="0.85" stroke="black" stroke-linecap="round" stroke-linejoin="round" stroke-width="1.1313708498984762" x1="708" x2="658" y1="301" y2="319"/>
    <line opacity="0.85" stroke="black" stroke-linecap="round" stroke-linejoin="round" stroke-width="5.423843518370781" x1="599" x2="599" y1="381" y2="373"/>
    <line opacity="0.85" stroke="black" stroke-linecap="round" stroke-linejoin="round" stroke-width="7.02384351837078" x1="599" x2="583" y1="373" y2="357"/>
    <line opacity="0.85" stroke="black" stroke-linecap="round" stroke-linejoin="round" stroke-width="8.466064028556376" x1="583" x2="569" y1="357" y2="353"/>
    <line opacity="0.85" stroke="black" stroke-linecap="round" stroke-linejoin="round" stroke-width="7.575903780803852" x1="569" x2="559" y1="353" y2="354"/>
    <line opacity="0.85" stroke="black" stroke-linecap="round" stroke-linejoin="round" stroke-width="7.526661530556787" x1="559" x2="545" y1="354" y2="370"/>
    <line opacity="0.85" stroke="black" stroke-linecap="round" stroke-linejoin="round" stroke-width="7.684441020371191" x1="545" x2="542" y1="370" y2="394"/>
    <line opacity="0.85" stroke="black" stroke-linecap="round" stroke-linejoin="round" stroke-width="7.526661530556787" x1="542" x2="546" y1="394" y2="416"/>
    <line opacity="0.85" stroke="black" stroke-linecap="round" stroke-linejoin="round" stroke-width="7.526661530556788" x1="546" x2="553" y1="416" y2="433"/>
    <line opacity="0.85" stroke="black" stroke-linecap="round" stroke-linejoin="round" stroke-width="7.526661530556788" x1="553" x2="563" y1="433" y2="447"/>
    <line opacity="0.85" stroke="black" stroke-linecap="round" stroke-linejoin="round" stroke-width="7.526661530556787" x1="563" x2="573" y1="447" y2="456"/>
    <line opacity="0.85" stroke="black" stroke-linecap="round" stroke-linejoin="round" stroke-width="7.575903780803851" x1="573" x2="587" y1="456" y2="461"/>
    <line opacity="0.85" stroke="black" stroke-linecap="round" stroke-linejoin="round" stroke-width="7.782925520865319" x1="587" x2="598" y1="461" y2="460"/>
    <line opacity="0.85" stroke="black" stroke-linecap="round" stroke-linejoin="round" stroke-width="7.940705010679725" x1="598" x2="607" y1="460" y2="453"/>
    <line opacity="0.85" stroke="black" stroke-linecap="round" stroke-linejoin="round" stroke-width="8.28733888249396" x1="607" x2="615" y1="453" y2="432"/>
    <line opacity="0.85" stroke="black" stroke-linecap="round" stroke-linejoin="round" stroke-width="9.087338882493961" x1="615" x2="615" y1="432" y2="424"/>
    <line opacity="0.85" stroke="black" stroke-linecap="round" stroke-linejoin="round" stroke-width="9.838096632246897" x1="615" x2="611" y1="424" y2="420"/>
    <line opacity="0.85" stroke="black" stroke-linecap="round" stroke-linejoin="round" stroke-width="10.342920304853633" x1="611" x2="611" y1="420" y2="420"/>
    <line opacity="0.85" stroke="black" stroke-linecap="round" stroke-linejoin="round" stroke-width="10.896986227707435" x1="611" x2="596" y1="420" y2="423"/>
    <line opacity="0.85" stroke="black" stroke-linecap="round" stroke-linejoin="round" stroke-width="11.440512603645724" x1="596" x2="584" y1="423" y2="409"/>
    <line opacity="0.85" stroke="black" stroke-linecap="round" stroke-linejoin="round" stroke-width="11.303254303442676" x1="584" x2="582" y1="409" y2="392"/>
    <line opacity="0.85" stroke="black" stroke-linecap="round" stroke-linejoin="round" stroke-width="11.235635061380796" x1="582" x2="586" y1="392" y2="384"/>
    <line opacity="0.85" stroke="black" stroke-linecap="round" stroke-linejoin="round" stroke-width="11.413949896465114" x1="586" x2="599" y1="384" y2="381"/>
    <line opacity="0.85" stroke="black" stroke-linecap="round" stroke-linejoin="round" stroke-width="11.592264731549433" x1="599" x2="599" y1="381" y2="381"/>
    <line opacity="0.85" stroke="black" stroke-linecap="round" stroke-linejoin="round" stroke-width="11.659883973611313" x1="599" x2="608" y1="381" y2="394"/>
    <line opacity="0.85" stroke="black" stroke-linecap="round" stroke-linejoin="round" stroke-width="9.39714227381436" x1="608" x2="611" y1="394" y2="420"/>
    <line opacity="0.85" stroke="black" stroke-linecap="round" stroke-linejoin="round" stroke-width="6.203308173100866" x1="587" x2="599" y1="519" y2="522"/>
    <line opacity="0.85" stroke="black" stroke-linecap="round" stroke-linejoin="round" stroke-width="8.466049872897818" x1="599" x2="608" y1="522" y2="520"/>
    <line opacity="0.85" stroke="black" stroke-linecap="round" stroke-linejoin="round" stroke-width="10.62011579575162" x1="608" x2="617" y1="520" y2="514"/>
    <line opacity="0.85" stroke="black" stroke-linecap="round" stroke-linejoin="round" stroke-width="8.970873545504556" x1="617" x2="622" y1="514" y2="500"/>
    <line opacity="0.85" stroke="black" stroke-linecap="round" stroke-linejoin="round" stroke-width="7.06476151587624" x1="506" x2="531" y1="530" y2="533"/>
    <line opacity="0.85" stroke="black" stroke-linecap="round" stroke-linejoin="round" stroke-width="9.218827438730042" x1="531" x2="531" y1="533" y2="533"/>
    <line opacity="0.85" stroke="black" stroke-linecap="round" stroke-linejoin="round" stroke-width="11.618827438730042" x1="531" x2="551" y1="533" y2="541"/>
    <line opacity="0.85" stroke="black" stroke-linecap="round" stroke-linejoin="round" stroke-width="11.618827438730042" x1="551" x2="558" y1="541" y2="549"/>
    <line opacity="0.85" stroke="black" stroke-linecap="round" stroke-linejoin="round" stroke-width="11.440512603645724" x1="558" x2="558" y1="549" y2="549"/>
    <line opacity="0.85" stroke="black" stroke-linecap="round" stroke-linejoin="round" stroke-width="11.262197768561405" x1="558" x2="552" y1="549" y2="557"/>
    <line opacity="0.85" stroke="black" stroke-linecap="round" stroke-linejoin="round" stroke-width="11.108131845707604" x1="552" x2="543" y1="557" y2="562"/>
    <line opacity="0.85" stroke="black" stroke-linecap="round" stroke-linejoin="round" stroke-width="10.496986227707435" x1="543" x2="535" y1="562" y2="564"/>
    <line opacity="0.85" stroke="black" stroke-linecap="round" stroke-linejoin="round" stroke-width="9.885840609707266" x1="535" x2="531" y1="564" y2="561"/>
    <line opacity="0.85" stroke="black" stroke-linecap="round" stroke-linejoin="round" stroke-width="10.415056259853213" x1="531" x2="531" y1="561" y2="561"/>
    <line opacity="0.85" stroke="black" stroke-linecap="round" stroke-linejoin="round" stroke-width="10.790812465134117" x1="531" x2="532" y1="561" y2="565"/>
    <line opacity="0.85" stroke="black" stroke-linecap="round" stroke-linejoin="round" stroke-width="11.190812465134117" x1="532" x2="528" y1="565" y2="569"/>
    <line opacity="0.85" stroke="black" stroke-linecap="round" stroke-linejoin="round" stroke-width="9.401958083134284" x1="528" x2="518" y1="569" y2="572"/>
    <line opacity="0.85" stroke="black" stroke-linecap="round" stroke-linejoin="round" stroke-width="1.788854381999832" x1="531" x2="531" y1="561" y2="533"/>
    <line opacity="0.85" stroke="black" stroke-linecap="round" stroke-linejoin="round" stroke-width="1.788854381999832" x1="563" x2="558" y1="552" y2="549"/>
    <line opacity="0.85" stroke="black" stroke-linecap="round" stroke-linejoin="round" stroke-width="2.864911064067352" x1="507" x2="473" y1="984" y2="653"/>
    <line opacity="0.85" stroke="black" stroke-linecap="round" stroke-linejoin="round" stroke-width="3.6649110640673523" x1="473" x2="475" y1="653" y2="650"/>
  </g>
</svg>
