<?xml version="1.0" encoding="utf-8" ?>
<svg xmlns="http://www.w3.org/2000/svg" xmlns:ev="http://www.w3.org/2001/xml-events" xmlns:xlink="http://www.w3.org/1999/xlink" baseProfile="full" height="100%" version="1.1" width="100%">
  <defs/>
  <polyline fill="none" opacity="0.85" points="195,466 194,479 213,668 226,766 239,782 501,1009 510,1012 525,1011 618,950 621,942 621,891 625,841 634,791 659,701 687,633 687,632 704,595 711,542 733,319 731,300 724,284 712,272 465,144 448,141 430,144 379,160 372,167 372,167 360,176 355,189 341,356 337,368 328,379 318,385 199,433 192,448 195,466 195,466 209,470 457,628 482,630 536,600 538,599 611,558 627,544 635,532 641,515 660,361 655,337 647,323 634,311 396,177 381,173 372,167" stroke="black" stroke-linecap="round" stroke-linejoin="round" stroke-width="5.644444444444445"/>
  <polyline fill="none" opacity="0.85" points="362,444 363,471 370,482 376,484 383,481 387,473 386,447 386,447 362,444 362,444 364,433 367,433 364,433 364,433 346,419 330,416 255,447 249,450 247,455 247,455 244,453 247,455 260,466 467,596 475,598 511,579 518,572 518,572 508,560 504,534 506,530 506,530 505,515 499,510 405,454 386,447" stroke="black" stroke-linecap="round" stroke-linejoin="round" stroke-width="5.699999999999998"/>
  <polyline fill="none" opacity="0.85" points="375,394 365,385 363,373 368,347 378,212 383,201 389,198 396,202 396,202 513,265 525,272 528,278 528,278 538,279 552,290 552,290 546,310 538,310 526,294 528,278" stroke="black" stroke-linecap="round" stroke-linejoin="round" stroke-width="5.639999999999999"/>
  <polyline fill="none" opacity="0.85" points="396,202 385,332 389,358 403,373 489,423 501,427 501,427 502,420 495,409 495,399 499,392 506,392 507,393 514,402 516,415 512,422 501,427 501,427 508,434 622,500 622,500 626,491 640,352 626,329 559,291 552,290" stroke="black" stroke-linecap="round" stroke-linejoin="round" stroke-width="5.738461538461537"/>
  <polyline fill="none" opacity="0.85" points="469,296 468,287 453,272 439,267 429,268 421,274 413,289 412,314 415,329 429,357 439,367 457,376 468,374 480,362 485,340 480,333 480,333 473,338 465,337 454,325 451,307 457,297 469,296 469,296 477,307 480,333" stroke="black" stroke-linecap="round" stroke-linejoin="round" stroke-width="5.692307692307692"/>
  <polyline fill="none" opacity="0.85" points="569,510 559,507 389,406" stroke="black" stroke-linecap="round" stroke-linejoin="round" stroke-width="4.266666666666667"/>
  <polyline fill="none" opacity="0.85" points="708,301 658,319" stroke="black" stroke-linecap="round" stroke-linejoin="round" stroke-width="3.4000000000000004"/>
  <polyline fill="none" opacity="0.85" points="599,381 599,373 583,357 569,353 559,354 545,370 542,394 546,416 553,433 563,447 573,456 587,461 598,460 607,453 615,432 615,424 611,420 611,420 596,423 584,409 582,392 586,384 599,381 599,381 608,394 611,420" stroke="black" stroke-linecap="round" stroke-linejoin="round" stroke-width="5.692307692307692"/>
  <polyline fill="none" opacity="0.85" points="587,519 599,522 608,520 617,514 622,500" stroke="black" stroke-linecap="round" stroke-linejoin="round" stroke-width="5.680000000000001"/>
  <polyline fill="none" opacity="0.85" points="506,530 531,533 531,533 551,541 558,549 558,549 552,557 543,562 535,564 531,561 531,561 532,565 528,569 518,572" stroke="black" stroke-linecap="round" stroke-linejoin="round" stroke-width="5.857142857142857"/>
  <polyline fill="none" opacity="0.85" points="531,561 531,533" stroke="black" stroke-linecap="round" stroke-linejoin="round" stroke-width="6.0"/>
  <polyline fill="none" opacity="0.85" points="563,552 558,549" stroke="black" stroke-linecap="round" stroke-linejoin="round" stroke-width="5.4"/>
  <polyline fill="none" opacity="0.85" points="507,984 473,653 475,650" stroke="black" stroke-linecap="round" stroke-linejoin="round" stroke-width="5.066666666666667"/>
</svg>
