<?xml version="1.0" encoding="utf-8" ?>
<svg xmlns="http://www.w3.org/2000/svg" xmlns:ev="http://www.w3.org/2001/xml-events" xmlns:xlink="http://www.w3.org/1999/xlink" baseProfile="full" height="100%" preserveAspectRatio="xMidYMid meet" version="1.1" viewBox="-50 -50 1486 1258" width="100%">
  <defs/>
  <g>
    <line opacity="0.85" stroke="black" stroke-linecap="round" stroke-linejoin="round" stroke-width="10.838705486268994" x1="94" x2="91" y1="212" y2="217"/>
    <line opacity="0.85" stroke="black" stroke-linecap="round" stroke-linejoin="round" stroke-width="13.7507494419812" x1="91" x2="93" y1="217" y2="224"/>
    <line opacity="0.85" stroke="black" stroke-linecap="round" stroke-linejoin="round" stroke-width="14.950749441981202" x1="93" x2="93" y1="224" y2="224"/>
    <line opacity="0.85" stroke="black" stroke-linecap="round" stroke-linejoin="round" stroke-width="11.824087911424414" x1="93" x2="104" y1="224" y2="224"/>
    <line opacity="0.85" stroke="black" stroke-linecap="round" stroke-linejoin="round" stroke-width="10.012942293424247" x1="104" x2="104" y1="224" y2="224"/>
    <line opacity="0.85" stroke="black" stroke-linecap="round" stroke-linejoin="round" stroke-width="11.427559868268828" x1="104" x2="102" y1="224" y2="217"/>
    <line opacity="0.85" stroke="black" stroke-linecap="round" stroke-linejoin="round" stroke-width="12.842177443113407" x1="102" x2="94" y1="217" y2="212"/>
    <line opacity="0.85" stroke="black" stroke-linecap="round" stroke-linejoin="round" stroke-width="15.0" x1="94" x2="94" y1="212" y2="212"/>
    <line opacity="0.85" stroke="black" stroke-linecap="round" stroke-linejoin="round" stroke-width="15.0" x1="94" x2="101" y1="212" y2="193"/>
    <line opacity="0.85" stroke="black" stroke-linecap="round" stroke-linejoin="round" stroke-width="15.0" x1="101" x2="113" y1="193" y2="186"/>
    <line opacity="0.85" stroke="black" stroke-linecap="round" stroke-linejoin="round" stroke-width="15.0" x1="113" x2="113" y1="186" y2="186"/>
    <line opacity="0.85" stroke="black" stroke-linecap="round" stroke-linejoin="round" stroke-width="15.0" x1="113" x2="126" y1="186" y2="174"/>
    <line opacity="0.85" stroke="black" stroke-linecap="round" stroke-linejoin="round" stroke-width="15.0" x1="126" x2="151" y1="174" y2="165"/>
    <line opacity="0.85" stroke="black" stroke-linecap="round" stroke-linejoin="round" stroke-width="15.0" x1="151" x2="191" y1="165" y2="159"/>
    <line opacity="0.85" stroke="black" stroke-linecap="round" stroke-linejoin="round" stroke-width="15.0" x1="191" x2="237" y1="159" y2="157"/>
    <line opacity="0.85" stroke="black" stroke-linecap="round" stroke-linejoin="round" stroke-width="15.0" x1="237" x2="438" y1="157" y2="164"/>
    <line opacity="0.85" stroke="black" stroke-linecap="round" stroke-linejoin="round" stroke-width="15.0" x1="438" x2="637" y1="164" y2="181"/>
    <line opacity="0.85" stroke="black" stroke-linecap="round" stroke-linejoin="round" stroke-width="15.0" x1="637" x2="769" y1="181" y2="200"/>
    <line opacity="0.85" stroke="black" stroke-linecap="round" stroke-linejoin="round" stroke-width="15.0" x1="769" x2="861" y1="200" y2="219"/>
    <line opacity="0.85" stroke="black" stroke-linecap="round" stroke-linejoin="round" stroke-width="15.0" x1="861" x2="937" y1="219" y2="243"/>
    <line opacity="0.85" stroke="black" stroke-linecap="round" stroke-linejoin="round" stroke-width="15.0" x1="937" x2="986" y1="243" y2="265"/>
    <line opacity="0.85" stroke="black" stroke-linecap="round" stroke-linejoin="round" stroke-width="15.0" x1="986" x2="1016" y1="265" y2="283"/>
    <line opacity="0.85" stroke="black" stroke-linecap="round" stroke-linejoin="round" stroke-width="15.0" x1="1016" x2="1017" y1="283" y2="283"/>
    <line opacity="0.85" stroke="black" stroke-linecap="round" stroke-linejoin="round" stroke-width="15.0" x1="1017" x2="1053" y1="283" y2="310"/>
    <line opacity="0.85" stroke="black" stroke-linecap="round" stroke-linejoin="round" stroke-width="15.0" x1="1053" x2="1071" y1="310" y2="328"/>
    <line opacity="0.85" stroke="black" stroke-linecap="round" stroke-linejoin="round" stroke-width="15.0" x1="1071" x2="1093" y1="328" y2="357"/>
    <line opacity="0.85" stroke="black" stroke-linecap="round" stroke-linejoin="round" stroke-width="15.0" x1="1093" x2="1113" y1="357" y2="401"/>
    <line opacity="0.85" stroke="black" stroke-linecap="round" stroke-linejoin="round" stroke-width="15.0" x1="1113" x2="1124" y1="401" y2="452"/>
    <line opacity="0.85" stroke="black" stroke-linecap="round" stroke-linejoin="round" stroke-width="15.0" x1="1124" x2="1132" y1="452" y2="557"/>
    <line opacity="0.85" stroke="black" stroke-linecap="round" stroke-linejoin="round" stroke-width="15.0" x1="1132" x2="1132" y1="557" y2="636"/>
    <line opacity="0.85" stroke="black" stroke-linecap="round" stroke-linejoin="round" stroke-width="15.0" x1="1132" x2="1128" y1="636" y2="700"/>
    <line opacity="0.85" stroke="black" stroke-linecap="round" stroke-linejoin="round" stroke-width="15.0" x1="1128" x2="1118" y1="700" y2="782"/>
    <line opacity="0.85" stroke="black" stroke-linecap="round" stroke-linejoin="round" stroke-width="15.0" x1="1118" x2="1112" y1="782" y2="807"/>
    <line opacity="0.85" stroke="black" stroke-linecap="round" stroke-linejoin="round" stroke-width="15.0" x1="1112" x2="1103" y1="807" y2="830"/>
    <line opacity="0.85" stroke="black" stroke-linecap="round" stroke-linejoin="round" stroke-width="15.0" x1="1103" x2="1091" y1="830" y2="847"/>
    <line opacity="0.85" stroke="black" stroke-linecap="round" stroke-linejoin="round" stroke-width="15.0" x1="1091" x2="1066" y1="847" y2="866"/>
    <line opacity="0.85" stroke="black" stroke-linecap="round" stroke-linejoin="round" stroke-width="15.0" x1="1066" x2="1023" y1="866" y2="877"/>
    <line opacity="0.85" stroke="black" stroke-linecap="round" stroke-linejoin="round" stroke-width="15.0" x1="1023" x2="724" y1="877" y2="864"/>
    <line opacity="0.85" stroke="black" stroke-linecap="round" stroke-linejoin="round" stroke-width="15.0" x1="724" x2="490" y1="864" y2="860"/>
    <line opacity="0.85" stroke="black" stroke-linecap="round" stroke-linejoin="round" stroke-width="15.0" x1="490" x2="490" y1="860" y2="860"/>
    <line opacity="0.85" stroke="black" stroke-linecap="round" stroke-linejoin="round" stroke-width="15.0" x1="490" x2="316" y1="860" y2="859"/>
    <line opacity="0.85" stroke="black" stroke-linecap="round" stroke-linejoin="round" stroke-width="15.0" x1="316" x2="316" y1="859" y2="859"/>
    <line opacity="0.85" stroke="black" stroke-linecap="round" stroke-linejoin="round" stroke-width="15.0" x1="316" x2="287" y1="859" y2="859"/>
    <line opacity="0.85" stroke="black" stroke-linecap="round" stroke-linejoin="round" stroke-width="15.0" x1="287" x2="287" y1="859" y2="859"/>
    <line opacity="0.85" stroke="black" stroke-linecap="round" stroke-linejoin="round" stroke-width="15.0" x1="287" x2="169" y1="859" y2="860"/>
    <line opacity="0.85" stroke="black" stroke-linecap="round" stroke-linejoin="round" stroke-width="15.0" x1="169" x2="137" y1="860" y2="857"/>
    <line opacity="0.85" stroke="black" stroke-linecap="round" stroke-linejoin="round" stroke-width="15.0" x1="137" x2="92" y1="857" y2="845"/>
    <line opacity="0.85" stroke="black" stroke-linecap="round" stroke-linejoin="round" stroke-width="15.0" x1="92" x2="81" y1="845" y2="834"/>
    <line opacity="0.85" stroke="black" stroke-linecap="round" stroke-linejoin="round" stroke-width="15.0" x1="81" x2="81" y1="834" y2="834"/>
    <line opacity="0.85" stroke="black" stroke-linecap="round" stroke-linejoin="round" stroke-width="13.276757212885567" x1="81" x2="191" y1="834" y2="609"/>
    <line opacity="0.85" stroke="black" stroke-linecap="round" stroke-linejoin="round" stroke-width="11.299048448885904" x1="191" x2="205" y1="609" y2="567"/>
    <line opacity="0.85" stroke="black" stroke-linecap="round" stroke-linejoin="round" stroke-width="9.674145349566484" x1="205" x2="216" y1="567" y2="506"/>
    <line opacity="0.85" stroke="black" stroke-linecap="round" stroke-linejoin="round" stroke-width="8.049242250247064" x1="216" x2="215" y1="506" y2="451"/>
    <line opacity="0.85" stroke="black" stroke-linecap="round" stroke-linejoin="round" stroke-width="8.049242250247065" x1="215" x2="202" y1="451" y2="393"/>
    <line opacity="0.85" stroke="black" stroke-linecap="round" stroke-linejoin="round" stroke-width="7.714153314314417" x1="202" x2="172" y1="393" y2="319"/>
    <line opacity="0.85" stroke="black" stroke-linecap="round" stroke-linejoin="round" stroke-width="7.556373824500012" x1="172" x2="125" y1="319" y2="233"/>
    <line opacity="0.85" stroke="black" stroke-linecap="round" stroke-linejoin="round" stroke-width="8.110439747353814" x1="125" x2="119" y1="233" y2="217"/>
    <line opacity="0.85" stroke="black" stroke-linecap="round" stroke-linejoin="round" stroke-width="9.710439747353814" x1="119" x2="117" y1="217" y2="190"/>
    <line opacity="0.85" stroke="black" stroke-linecap="round" stroke-linejoin="round" stroke-width="8.06119749710675" x1="117" x2="113" y1="190" y2="186"/>
    <line opacity="0.85" stroke="black" stroke-linecap="round" stroke-linejoin="round" stroke-width="9.907354217838884" x1="93" x2="98" y1="224" y2="250"/>
    <line opacity="0.85" stroke="black" stroke-linecap="round" stroke-linejoin="round" stroke-width="13.485062981838546" x1="98" x2="131" y1="250" y2="319"/>
    <line opacity="0.85" stroke="black" stroke-linecap="round" stroke-linejoin="round" stroke-width="15.0" x1="131" x2="150" y1="319" y2="369"/>
    <line opacity="0.85" stroke="black" stroke-linecap="round" stroke-linejoin="round" stroke-width="15.0" x1="150" x2="151" y1="369" y2="373"/>
    <line opacity="0.85" stroke="black" stroke-linecap="round" stroke-linejoin="round" stroke-width="15.0" x1="151" x2="164" y1="373" y2="420"/>
    <line opacity="0.85" stroke="black" stroke-linecap="round" stroke-linejoin="round" stroke-width="15.0" x1="164" x2="170" y1="420" y2="471"/>
    <line opacity="0.85" stroke="black" stroke-linecap="round" stroke-linejoin="round" stroke-width="15.0" x1="170" x2="170" y1="471" y2="513"/>
    <line opacity="0.85" stroke="black" stroke-linecap="round" stroke-linejoin="round" stroke-width="15.0" x1="170" x2="166" y1="513" y2="543"/>
    <line opacity="0.85" stroke="black" stroke-linecap="round" stroke-linejoin="round" stroke-width="15.0" x1="166" x2="156" y1="543" y2="584"/>
    <line opacity="0.85" stroke="black" stroke-linecap="round" stroke-linejoin="round" stroke-width="15.0" x1="156" x2="141" y1="584" y2="625"/>
    <line opacity="0.85" stroke="black" stroke-linecap="round" stroke-linejoin="round" stroke-width="15.0" x1="141" x2="117" y1="625" y2="673"/>
    <line opacity="0.85" stroke="black" stroke-linecap="round" stroke-linejoin="round" stroke-width="15.0" x1="117" x2="89" y1="673" y2="719"/>
    <line opacity="0.85" stroke="black" stroke-linecap="round" stroke-linejoin="round" stroke-width="15.0" x1="89" x2="77" y1="719" y2="746"/>
    <line opacity="0.85" stroke="black" stroke-linecap="round" stroke-linejoin="round" stroke-width="15.0" x1="77" x2="65" y1="746" y2="791"/>
    <line opacity="0.85" stroke="black" stroke-linecap="round" stroke-linejoin="round" stroke-width="15.0" x1="65" x2="67" y1="791" y2="811"/>
    <line opacity="0.85" stroke="black" stroke-linecap="round" stroke-linejoin="round" stroke-width="15.0" x1="67" x2="67" y1="811" y2="811"/>
    <line opacity="0.85" stroke="black" stroke-linecap="round" stroke-linejoin="round" stroke-width="14.588767473721658" x1="67" x2="76" y1="811" y2="807"/>
    <line opacity="0.85" stroke="black" stroke-linecap="round" stroke-linejoin="round" stroke-width="12.660300959969058" x1="76" x2="83" y1="807" y2="796"/>
    <line opacity="0.85" stroke="black" stroke-linecap="round" stroke-linejoin="round" stroke-width="10.30050298532439" x1="83" x2="166" y1="796" y2="630"/>
    <line opacity="0.85" stroke="black" stroke-linecap="round" stroke-linejoin="round" stroke-width="7.940705010679723" x1="166" x2="187" y1="630" y2="575"/>
    <line opacity="0.85" stroke="black" stroke-linecap="round" stroke-linejoin="round" stroke-width="8.098484500494129" x1="187" x2="200" y1="575" y2="506"/>
    <line opacity="0.85" stroke="black" stroke-linecap="round" stroke-linejoin="round" stroke-width="8.049242250247064" x1="200" x2="199" y1="506" y2="451"/>
    <line opacity="0.85" stroke="black" stroke-linecap="round" stroke-linejoin="round" stroke-width="8.049242250247065" x1="199" x2="180" y1="451" y2="375"/>
    <line opacity="0.85" stroke="black" stroke-linecap="round" stroke-linejoin="round" stroke-width="7.649242250247065" x1="180" x2="146" y1="375" y2="299"/>
    <line opacity="0.85" stroke="black" stroke-linecap="round" stroke-linejoin="round" stroke-width="6.049242250247065" x1="146" x2="104" y1="299" y2="224"/>
    <line opacity="0.85" stroke="black" stroke-linecap="round" stroke-linejoin="round" stroke-width="13.615361924162121" x1="395" x2="396" y1="247" y2="414"/>
    <line opacity="0.85" stroke="black" stroke-linecap="round" stroke-linejoin="round" stroke-width="15.0" x1="396" x2="393" y1="414" y2="417"/>
    <line opacity="0.85" stroke="black" stroke-linecap="round" stroke-linejoin="round" stroke-width="15.0" x1="393" x2="393" y1="417" y2="417"/>
    <line opacity="0.85" stroke="black" stroke-linecap="round" stroke-linejoin="round" stroke-width="15.0" x1="393" x2="387" y1="417" y2="414"/>
    <line opacity="0.85" stroke="black" stroke-linecap="round" stroke-linejoin="round" stroke-width="15.0" x1="387" x2="354" y1="414" y2="412"/>
    <line opacity="0.85" stroke="black" stroke-linecap="round" stroke-linejoin="round" stroke-width="15.0" x1="354" x2="324" y1="412" y2="414"/>
    <line opacity="0.85" stroke="black" stroke-linecap="round" stroke-linejoin="round" stroke-width="15.0" x1="324" x2="324" y1="414" y2="414"/>
    <line opacity="0.85" stroke="black" stroke-linecap="round" stroke-linejoin="round" stroke-width="15.0" x1="324" x2="309" y1="414" y2="416"/>
    <line opacity="0.85" stroke="black" stroke-linecap="round" stroke-linejoin="round" stroke-width="15.0" x1="309" x2="299" y1="416" y2="421"/>
    <line opacity="0.85" stroke="black" stroke-linecap="round" stroke-linejoin="round" stroke-width="15.0" x1="299" x2="292" y1="421" y2="427"/>
    <line opacity="0.85" stroke="black" stroke-linecap="round" stroke-linejoin="round" stroke-width="15.0" x1="292" x2="289" y1="427" y2="438"/>
    <line opacity="0.85" stroke="black" stroke-linecap="round" stroke-linejoin="round" stroke-width="15.0" x1="289" x2="289" y1="438" y2="438"/>
    <line opacity="0.85" stroke="black" stroke-linecap="round" stroke-linejoin="round" stroke-width="14.149023836826583" x1="289" x2="282" y1="438" y2="442"/>
    <line opacity="0.85" stroke="black" stroke-linecap="round" stroke-linejoin="round" stroke-width="12.61527197676323" x1="282" x2="284" y1="442" y2="445"/>
    <line opacity="0.85" stroke="black" stroke-linecap="round" stroke-linejoin="round" stroke-width="13.599768462770955" x1="284" x2="284" y1="445" y2="445"/>
    <line opacity="0.85" stroke="black" stroke-linecap="round" stroke-linejoin="round" stroke-width="14.58426494877868" x1="284" x2="281" y1="445" y2="444"/>
    <line opacity="0.85" stroke="black" stroke-linecap="round" stroke-linejoin="round" stroke-width="14.441819342455757" x1="281" x2="277" y1="444" y2="452"/>
    <line opacity="0.85" stroke="black" stroke-linecap="round" stroke-linejoin="round" stroke-width="15.0" x1="277" x2="272" y1="452" y2="477"/>
    <line opacity="0.85" stroke="black" stroke-linecap="round" stroke-linejoin="round" stroke-width="15.0" x1="272" x2="280" y1="477" y2="752"/>
    <line opacity="0.85" stroke="black" stroke-linecap="round" stroke-linejoin="round" stroke-width="15.0" x1="280" x2="280" y1="752" y2="752"/>
    <line opacity="0.85" stroke="black" stroke-linecap="round" stroke-linejoin="round" stroke-width="15.0" x1="280" x2="198" y1="752" y2="754"/>
    <line opacity="0.85" stroke="black" stroke-linecap="round" stroke-linejoin="round" stroke-width="15.0" x1="198" x2="191" y1="754" y2="753"/>
    <line opacity="0.85" stroke="black" stroke-linecap="round" stroke-linejoin="round" stroke-width="15.0" x1="191" x2="184" y1="753" y2="747"/>
    <line opacity="0.85" stroke="black" stroke-linecap="round" stroke-linejoin="round" stroke-width="15.0" x1="184" x2="186" y1="747" y2="729"/>
    <line opacity="0.85" stroke="black" stroke-linecap="round" stroke-linejoin="round" stroke-width="15.0" x1="186" x2="212" y1="729" y2="655"/>
    <line opacity="0.85" stroke="black" stroke-linecap="round" stroke-linejoin="round" stroke-width="15.0" x1="212" x2="236" y1="655" y2="574"/>
    <line opacity="0.85" stroke="black" stroke-linecap="round" stroke-linejoin="round" stroke-width="15.0" x1="236" x2="247" y1="574" y2="524"/>
    <line opacity="0.85" stroke="black" stroke-linecap="round" stroke-linejoin="round" stroke-width="15.0" x1="247" x2="249" y1="524" y2="490"/>
    <line opacity="0.85" stroke="black" stroke-linecap="round" stroke-linejoin="round" stroke-width="15.0" x1="249" x2="244" y1="490" y2="454"/>
    <line opacity="0.85" stroke="black" stroke-linecap="round" stroke-linejoin="round" stroke-width="15.0" x1="244" x2="232" y1="454" y2="412"/>
    <line opacity="0.85" stroke="black" stroke-linecap="round" stroke-linejoin="round" stroke-width="15.0" x1="232" x2="210" y1="412" y2="352"/>
    <line opacity="0.85" stroke="black" stroke-linecap="round" stroke-linejoin="round" stroke-width="15.0" x1="210" x2="174" y1="352" y2="270"/>
    <line opacity="0.85" stroke="black" stroke-linecap="round" stroke-linejoin="round" stroke-width="15.0" x1="174" x2="173" y1="270" y2="253"/>
    <line opacity="0.85" stroke="black" stroke-linecap="round" stroke-linejoin="round" stroke-width="15.0" x1="173" x2="180" y1="253" y2="249"/>
    <line opacity="0.85" stroke="black" stroke-linecap="round" stroke-linejoin="round" stroke-width="15.0" x1="180" x2="240" y1="249" y2="242"/>
    <line opacity="0.85" stroke="black" stroke-linecap="round" stroke-linejoin="round" stroke-width="15.0" x1="240" x2="310" y1="242" y2="242"/>
    <line opacity="0.85" stroke="black" stroke-linecap="round" stroke-linejoin="round" stroke-width="15.0" x1="310" x2="395" y1="242" y2="247"/>
    <line opacity="0.85" stroke="black" stroke-linecap="round" stroke-linejoin="round" stroke-width="15.0" x1="395" x2="395" y1="247" y2="247"/>
    <line opacity="0.85" stroke="black" stroke-linecap="round" stroke-linejoin="round" stroke-width="15.0" x1="395" x2="424" y1="247" y2="248"/>
    <line opacity="0.85" stroke="black" stroke-linecap="round" stroke-linejoin="round" stroke-width="15.0" x1="424" x2="424" y1="248" y2="248"/>
    <line opacity="0.85" stroke="black" stroke-linecap="round" stroke-linejoin="round" stroke-width="15.0" x1="424" x2="540" y1="248" y2="252"/>
    <line opacity="0.85" stroke="black" stroke-linecap="round" stroke-linejoin="round" stroke-width="15.0" x1="540" x2="567" y1="252" y2="255"/>
    <line opacity="0.85" stroke="black" stroke-linecap="round" stroke-linejoin="round" stroke-width="15.0" x1="567" x2="571" y1="255" y2="258"/>
    <line opacity="0.85" stroke="black" stroke-linecap="round" stroke-linejoin="round" stroke-width="15.0" x1="571" x2="571" y1="258" y2="258"/>
    <line opacity="0.85" stroke="black" stroke-linecap="round" stroke-linejoin="round" stroke-width="15.0" x1="571" x2="588" y1="258" y2="257"/>
    <line opacity="0.85" stroke="black" stroke-linecap="round" stroke-linejoin="round" stroke-width="15.0" x1="588" x2="650" y1="257" y2="266"/>
    <line opacity="0.85" stroke="black" stroke-linecap="round" stroke-linejoin="round" stroke-width="15.0" x1="650" x2="811" y1="266" y2="298"/>
    <line opacity="0.85" stroke="black" stroke-linecap="round" stroke-linejoin="round" stroke-width="15.0" x1="811" x2="882" y1="298" y2="324"/>
    <line opacity="0.85" stroke="black" stroke-linecap="round" stroke-linejoin="round" stroke-width="15.0" x1="882" x2="937" y1="324" y2="357"/>
    <line opacity="0.85" stroke="black" stroke-linecap="round" stroke-linejoin="round" stroke-width="15.0" x1="937" x2="967" y1="357" y2="388"/>
    <line opacity="0.85" stroke="black" stroke-linecap="round" stroke-linejoin="round" stroke-width="15.0" x1="967" x2="984" y1="388" y2="422"/>
    <line opacity="0.85" stroke="black" stroke-linecap="round" stroke-linejoin="round" stroke-width="15.0" x1="984" x2="1008" y1="422" y2="521"/>
    <line opacity="0.85" stroke="black" stroke-linecap="round" stroke-linejoin="round" stroke-width="15.0" x1="1008" x2="1015" y1="521" y2="604"/>
    <line opacity="0.85" stroke="black" stroke-linecap="round" stroke-linejoin="round" stroke-width="15.0" x1="1015" x2="1009" y1="604" y2="660"/>
    <line opacity="0.85" stroke="black" stroke-linecap="round" stroke-linejoin="round" stroke-width="15.0" x1="1009" x2="1001" y1="660" y2="688"/>
    <line opacity="0.85" stroke="black" stroke-linecap="round" stroke-linejoin="round" stroke-width="15.0" x1="1001" x2="989" y1="688" y2="714"/>
    <line opacity="0.85" stroke="black" stroke-linecap="round" stroke-linejoin="round" stroke-width="15.0" x1="989" x2="969" y1="714" y2="736"/>
    <line opacity="0.85" stroke="black" stroke-linecap="round" stroke-linejoin="round" stroke-width="15.0" x1="969" x2="941" y1="736" y2="750"/>
    <line opacity="0.85" stroke="black" stroke-linecap="round" stroke-linejoin="round" stroke-width="15.0" x1="941" x2="919" y1="750" y2="756"/>
    <line opacity="0.85" stroke="black" stroke-linecap="round" stroke-linejoin="round" stroke-width="15.0" x1="919" x2="873" y1="756" y2="760"/>
    <line opacity="0.85" stroke="black" stroke-linecap="round" stroke-linejoin="round" stroke-width="15.0" x1="873" x2="728" y1="760" y2="753"/>
    <line opacity="0.85" stroke="black" stroke-linecap="round" stroke-linejoin="round" stroke-width="15.0" x1="728" x2="575" y1="753" y2="751"/>
    <line opacity="0.85" stroke="black" stroke-linecap="round" stroke-linejoin="round" stroke-width="15.0" x1="575" x2="571" y1="751" y2="748"/>
    <line opacity="0.85" stroke="black" stroke-linecap="round" stroke-linejoin="round" stroke-width="15.0" x1="571" x2="571" y1="748" y2="748"/>
    <line opacity="0.85" stroke="black" stroke-linecap="round" stroke-linejoin="round" stroke-width="15.0" x1="571" x2="562" y1="748" y2="751"/>
    <line opacity="0.85" stroke="black" stroke-linecap="round" stroke-linejoin="round" stroke-width="15.0" x1="562" x2="423" y1="751" y2="750"/>
    <line opacity="0.85" stroke="black" stroke-linecap="round" stroke-linejoin="round" stroke-width="15.0" x1="423" x2="423" y1="750" y2="750"/>
    <line opacity="0.85" stroke="black" stroke-linecap="round" stroke-linejoin="round" stroke-width="15.0" x1="423" x2="424" y1="750" y2="497"/>
    <line opacity="0.85" stroke="black" stroke-linecap="round" stroke-linejoin="round" stroke-width="15.0" x1="424" x2="419" y1="497" y2="491"/>
    <line opacity="0.85" stroke="black" stroke-linecap="round" stroke-linejoin="round" stroke-width="15.0" x1="419" x2="419" y1="491" y2="491"/>
    <line opacity="0.85" stroke="black" stroke-linecap="round" stroke-linejoin="round" stroke-width="15.0" x1="419" x2="404" y1="491" y2="492"/>
    <line opacity="0.85" stroke="black" stroke-linecap="round" stroke-linejoin="round" stroke-width="15.0" x1="404" x2="395" y1="492" y2="499"/>
    <line opacity="0.85" stroke="black" stroke-linecap="round" stroke-linejoin="round" stroke-width="15.0" x1="395" x2="395" y1="499" y2="499"/>
    <line opacity="0.85" stroke="black" stroke-linecap="round" stroke-linejoin="round" stroke-width="15.0" x1="395" x2="386" y1="499" y2="498"/>
    <line opacity="0.85" stroke="black" stroke-linecap="round" stroke-linejoin="round" stroke-width="15.0" x1="386" x2="386" y1="498" y2="498"/>
    <line opacity="0.85" stroke="black" stroke-linecap="round" stroke-linejoin="round" stroke-width="15.0" x1="386" x2="381" y1="498" y2="489"/>
    <line opacity="0.85" stroke="black" stroke-linecap="round" stroke-linejoin="round" stroke-width="13.177708763999663" x1="381" x2="387" y1="489" y2="453"/>
    <line opacity="0.85" stroke="black" stroke-linecap="round" stroke-linejoin="round" stroke-width="14.438887339186024" x1="387" x2="386" y1="453" y2="431"/>
    <line opacity="0.85" stroke="black" stroke-linecap="round" stroke-linejoin="round" stroke-width="15.0" x1="386" x2="393" y1="431" y2="420"/>
    <line opacity="0.85" stroke="black" stroke-linecap="round" stroke-linejoin="round" stroke-width="15.0" x1="393" x2="393" y1="420" y2="420"/>
    <line opacity="0.85" stroke="black" stroke-linecap="round" stroke-linejoin="round" stroke-width="15.0" x1="393" x2="393" y1="420" y2="417"/>
    <line opacity="0.85" stroke="black" stroke-linecap="round" stroke-linejoin="round" stroke-width="15.0" x1="393" x2="393" y1="417" y2="420"/>
    <line opacity="0.85" stroke="black" stroke-linecap="round" stroke-linejoin="round" stroke-width="15.0" x1="393" x2="404" y1="420" y2="425"/>
    <line opacity="0.85" stroke="black" stroke-linecap="round" stroke-linejoin="round" stroke-width="15.0" x1="404" x2="419" y1="425" y2="426"/>
    <line opacity="0.85" stroke="black" stroke-linecap="round" stroke-linejoin="round" stroke-width="15.0" x1="419" x2="419" y1="426" y2="426"/>
    <line opacity="0.85" stroke="black" stroke-linecap="round" stroke-linejoin="round" stroke-width="15.0" x1="419" x2="424" y1="426" y2="419"/>
    <line opacity="0.85" stroke="black" stroke-linecap="round" stroke-linejoin="round" stroke-width="12.61087125650943" x1="424" x2="424" y1="419" y2="248"/>
    <line opacity="0.85" stroke="black" stroke-linecap="round" stroke-linejoin="round" stroke-width="6.665833206136471" x1="81" x2="73" y1="834" y2="830"/>
    <line opacity="0.85" stroke="black" stroke-linecap="round" stroke-linejoin="round" stroke-width="10.625631180781138" x1="73" x2="67" y1="830" y2="811"/>
    <line opacity="0.85" stroke="black" stroke-linecap="round" stroke-linejoin="round" stroke-width="3.942920304853633" x1="284" x2="291" y1="445" y2="449"/>
    <line opacity="0.85" stroke="black" stroke-linecap="round" stroke-linejoin="round" stroke-width="6.275301062791754" x1="291" x2="291" y1="449" y2="449"/>
    <line opacity="0.85" stroke="black" stroke-linecap="round" stroke-linejoin="round" stroke-width="8.708406074911041" x1="291" x2="292" y1="449" y2="442"/>
    <line opacity="0.85" stroke="black" stroke-linecap="round" stroke-linejoin="round" stroke-width="8.987445164176528" x1="292" x2="289" y1="442" y2="438"/>
    <line opacity="0.85" stroke="black" stroke-linecap="round" stroke-linejoin="round" stroke-width="9.535238483362209" x1="289" x2="289" y1="438" y2="438"/>
    <line opacity="0.85" stroke="black" stroke-linecap="round" stroke-linejoin="round" stroke-width="10.290053542609357" x1="289" x2="298" y1="438" y2="439"/>
    <line opacity="0.85" stroke="black" stroke-linecap="round" stroke-linejoin="round" stroke-width="9.399893294856831" x1="298" x2="299" y1="439" y2="439"/>
    <line opacity="0.85" stroke="black" stroke-linecap="round" stroke-linejoin="round" stroke-width="8.566788282737544" x1="299" x2="304" y1="439" y2="441"/>
    <line opacity="0.85" stroke="black" stroke-linecap="round" stroke-linejoin="round" stroke-width="7.575903780803852" x1="304" x2="308" y1="441" y2="456"/>
    <line opacity="0.85" stroke="black" stroke-linecap="round" stroke-linejoin="round" stroke-width="7.733683270618256" x1="308" x2="303" y1="456" y2="473"/>
    <line opacity="0.85" stroke="black" stroke-linecap="round" stroke-linejoin="round" stroke-width="7.526661530556787" x1="303" x2="298" y1="473" y2="475"/>
    <line opacity="0.85" stroke="black" stroke-linecap="round" stroke-linejoin="round" stroke-width="6.978868211371108" x1="298" x2="293" y1="475" y2="471"/>
    <line opacity="0.85" stroke="black" stroke-linecap="round" stroke-linejoin="round" stroke-width="5.378868211371108" x1="293" x2="291" y1="471" y2="449"/>
    <line opacity="0.85" stroke="black" stroke-linecap="round" stroke-linejoin="round" stroke-width="6.994733192202055" x1="324" x2="331" y1="414" y2="436"/>
    <line opacity="0.85" stroke="black" stroke-linecap="round" stroke-linejoin="round" stroke-width="8.64397544244912" x1="331" x2="330" y1="436" y2="461"/>
    <line opacity="0.85" stroke="black" stroke-linecap="round" stroke-linejoin="round" stroke-width="10.086195952634716" x1="330" x2="324" y1="461" y2="477"/>
    <line opacity="0.85" stroke="black" stroke-linecap="round" stroke-linejoin="round" stroke-width="7.733683270618256" x1="324" x2="306" y1="477" y2="506"/>
    <line opacity="0.85" stroke="black" stroke-linecap="round" stroke-linejoin="round" stroke-width="9.907275723440897" x1="306" x2="303" y1="506" y2="517"/>
    <line opacity="0.85" stroke="black" stroke-linecap="round" stroke-linejoin="round" stroke-width="12.08086817626354" x1="303" x2="308" y1="517" y2="752"/>
    <line opacity="0.85" stroke="black" stroke-linecap="round" stroke-linejoin="round" stroke-width="14.431625926016475" x1="308" x2="308" y1="752" y2="752"/>
    <line opacity="0.85" stroke="black" stroke-linecap="round" stroke-linejoin="round" stroke-width="12.989405415830879" x1="308" x2="280" y1="752" y2="752"/>
    <line opacity="0.85" stroke="black" stroke-linecap="round" stroke-linejoin="round" stroke-width="12.573592452822643" x1="308" x2="395" y1="752" y2="750"/>
    <line opacity="0.85" stroke="black" stroke-linecap="round" stroke-linejoin="round" stroke-width="15.0" x1="395" x2="395" y1="750" y2="750"/>
    <line opacity="0.85" stroke="black" stroke-linecap="round" stroke-linejoin="round" stroke-width="15.0" x1="395" x2="395" y1="750" y2="665"/>
    <line opacity="0.85" stroke="black" stroke-linecap="round" stroke-linejoin="round" stroke-width="15.0" x1="395" x2="395" y1="665" y2="665"/>
    <line opacity="0.85" stroke="black" stroke-linecap="round" stroke-linejoin="round" stroke-width="15.0" x1="395" x2="381" y1="665" y2="664"/>
    <line opacity="0.85" stroke="black" stroke-linecap="round" stroke-linejoin="round" stroke-width="15.0" x1="381" x2="368" y1="664" y2="650"/>
    <line opacity="0.85" stroke="black" stroke-linecap="round" stroke-linejoin="round" stroke-width="15.0" x1="368" x2="361" y1="650" y2="631"/>
    <line opacity="0.85" stroke="black" stroke-linecap="round" stroke-linejoin="round" stroke-width="15.0" x1="361" x2="356" y1="631" y2="601"/>
    <line opacity="0.85" stroke="black" stroke-linecap="round" stroke-linejoin="round" stroke-width="15.0" x1="356" x2="356" y1="601" y2="551"/>
    <line opacity="0.85" stroke="black" stroke-linecap="round" stroke-linejoin="round" stroke-width="15.0" x1="356" x2="361" y1="551" y2="515"/>
    <line opacity="0.85" stroke="black" stroke-linecap="round" stroke-linejoin="round" stroke-width="15.0" x1="361" x2="366" y1="515" y2="506"/>
    <line opacity="0.85" stroke="black" stroke-linecap="round" stroke-linejoin="round" stroke-width="14.220213361446095" x1="366" x2="386" y1="506" y2="498"/>
    <line opacity="0.85" stroke="black" stroke-linecap="round" stroke-linejoin="round" stroke-width="4.800000000000001" x1="395" x2="395" y1="665" y2="499"/>
    <line opacity="0.85" stroke="black" stroke-linecap="round" stroke-linejoin="round" stroke-width="7.798276658819187" x1="419" x2="424" y1="491" y2="467"/>
    <line opacity="0.85" stroke="black" stroke-linecap="round" stroke-linejoin="round" stroke-width="11.877492269693416" x1="424" x2="424" y1="467" y2="450"/>
    <line opacity="0.85" stroke="black" stroke-linecap="round" stroke-linejoin="round" stroke-width="15.0" x1="424" x2="419" y1="450" y2="426"/>
    <line opacity="0.85" stroke="black" stroke-linecap="round" stroke-linejoin="round" stroke-width="3.4176014981270124" x1="423" x2="395" y1="750" y2="750"/>
    <line opacity="0.85" stroke="black" stroke-linecap="round" stroke-linejoin="round" stroke-width="14.160701700396555" x1="571" x2="572" y1="258" y2="431"/>
    <line opacity="0.85" stroke="black" stroke-linecap="round" stroke-linejoin="round" stroke-width="15.0" x1="572" x2="572" y1="431" y2="431"/>
    <line opacity="0.85" stroke="black" stroke-linecap="round" stroke-linejoin="round" stroke-width="15.0" x1="572" x2="592" y1="431" y2="430"/>
    <line opacity="0.85" stroke="black" stroke-linecap="round" stroke-linejoin="round" stroke-width="15.0" x1="592" x2="603" y1="430" y2="433"/>
    <line opacity="0.85" stroke="black" stroke-linecap="round" stroke-linejoin="round" stroke-width="15.0" x1="603" x2="603" y1="433" y2="433"/>
    <line opacity="0.85" stroke="black" stroke-linecap="round" stroke-linejoin="round" stroke-width="15.0" x1="603" x2="623" y1="433" y2="433"/>
    <line opacity="0.85" stroke="black" stroke-linecap="round" stroke-linejoin="round" stroke-width="15.0" x1="623" x2="624" y1="433" y2="433"/>
    <line opacity="0.85" stroke="black" stroke-linecap="round" stroke-linejoin="round" stroke-width="15.0" x1="624" x2="651" y1="433" y2="436"/>
    <line opacity="0.85" stroke="black" stroke-linecap="round" stroke-linejoin="round" stroke-width="15.0" x1="651" x2="665" y1="436" y2="440"/>
    <line opacity="0.85" stroke="black" stroke-linecap="round" stroke-linejoin="round" stroke-width="15.0" x1="665" x2="672" y1="440" y2="446"/>
    <line opacity="0.85" stroke="black" stroke-linecap="round" stroke-linejoin="round" stroke-width="15.0" x1="672" x2="677" y1="446" y2="464"/>
    <line opacity="0.85" stroke="black" stroke-linecap="round" stroke-linejoin="round" stroke-width="15.0" x1="677" x2="667" y1="464" y2="507"/>
    <line opacity="0.85" stroke="black" stroke-linecap="round" stroke-linejoin="round" stroke-width="15.0" x1="667" x2="655" y1="507" y2="520"/>
    <line opacity="0.85" stroke="black" stroke-linecap="round" stroke-linejoin="round" stroke-width="15.0" x1="655" x2="617" y1="520" y2="536"/>
    <line opacity="0.85" stroke="black" stroke-linecap="round" stroke-linejoin="round" stroke-width="15.0" x1="617" x2="589" y1="536" y2="554"/>
    <line opacity="0.85" stroke="black" stroke-linecap="round" stroke-linejoin="round" stroke-width="15.0" x1="589" x2="572" y1="554" y2="558"/>
    <line opacity="0.85" stroke="black" stroke-linecap="round" stroke-linejoin="round" stroke-width="15.0" x1="572" x2="572" y1="558" y2="558"/>
    <line opacity="0.85" stroke="black" stroke-linecap="round" stroke-linejoin="round" stroke-width="15.0" x1="572" x2="572" y1="558" y2="515"/>
    <line opacity="0.85" stroke="black" stroke-linecap="round" stroke-linejoin="round" stroke-width="15.0" x1="572" x2="572" y1="515" y2="515"/>
    <line opacity="0.85" stroke="black" stroke-linecap="round" stroke-linejoin="round" stroke-width="15.0" x1="572" x2="572" y1="515" y2="502"/>
    <line opacity="0.85" stroke="black" stroke-linecap="round" stroke-linejoin="round" stroke-width="15.0" x1="572" x2="572" y1="502" y2="502"/>
    <line opacity="0.85" stroke="black" stroke-linecap="round" stroke-linejoin="round" stroke-width="15.0" x1="572" x2="572" y1="502" y2="431"/>
    <line opacity="0.85" stroke="black" stroke-linecap="round" stroke-linejoin="round" stroke-width="7.218343113749816" x1="572" x2="586" y1="502" y2="503"/>
    <line opacity="0.85" stroke="black" stroke-linecap="round" stroke-linejoin="round" stroke-width="7.218343113749816" x1="586" x2="595" y1="503" y2="499"/>
    <line opacity="0.85" stroke="black" stroke-linecap="round" stroke-linejoin="round" stroke-width="7.218343113749816" x1="595" x2="597" y1="499" y2="503"/>
    <line opacity="0.85" stroke="black" stroke-linecap="round" stroke-linejoin="round" stroke-width="4.484441020371191" x1="597" x2="597" y1="503" y2="503"/>
    <line opacity="0.85" stroke="black" stroke-linecap="round" stroke-linejoin="round" stroke-width="4.3266615305567875" x1="597" x2="596" y1="503" y2="497"/>
    <line opacity="0.85" stroke="black" stroke-linecap="round" stroke-linejoin="round" stroke-width="4.3266615305567875" x1="596" x2="601" y1="497" y2="487"/>
    <line opacity="0.85" stroke="black" stroke-linecap="round" stroke-linejoin="round" stroke-width="4.726661530556788" x1="601" x2="601" y1="487" y2="487"/>
    <line opacity="0.85" stroke="black" stroke-linecap="round" stroke-linejoin="round" stroke-width="6.3266615305567875" x1="601" x2="602" y1="487" y2="442"/>
    <line opacity="0.85" stroke="black" stroke-linecap="round" stroke-linejoin="round" stroke-width="8.484441020371191" x1="602" x2="603" y1="442" y2="438"/>
    <line opacity="0.85" stroke="black" stroke-linecap="round" stroke-linejoin="round" stroke-width="7.0422205101855955" x1="603" x2="603" y1="438" y2="433"/>
    <line opacity="0.85" stroke="black" stroke-linecap="round" stroke-linejoin="round" stroke-width="4.464911064067352" x1="608" x2="603" y1="445" y2="438"/>
    <line opacity="0.85" stroke="black" stroke-linecap="round" stroke-linejoin="round" stroke-width="4.864911064067352" x1="603" x2="603" y1="438" y2="438"/>
    <line opacity="0.85" stroke="black" stroke-linecap="round" stroke-linejoin="round" stroke-width="5.264911064067353" x1="603" x2="602" y1="438" y2="442"/>
    <line opacity="0.85" stroke="black" stroke-linecap="round" stroke-linejoin="round" stroke-width="5.264911064067352" x1="602" x2="602" y1="442" y2="442"/>
    <line opacity="0.85" stroke="black" stroke-linecap="round" stroke-linejoin="round" stroke-width="4.929822128134704" x1="602" x2="608" y1="442" y2="445"/>
    <line opacity="0.85" stroke="black" stroke-linecap="round" stroke-linejoin="round" stroke-width="4.929822128134704" x1="608" x2="608" y1="445" y2="445"/>
    <line opacity="0.85" stroke="black" stroke-linecap="round" stroke-linejoin="round" stroke-width="5.729822128134704" x1="608" x2="612" y1="445" y2="471"/>
    <line opacity="0.85" stroke="black" stroke-linecap="round" stroke-linejoin="round" stroke-width="6.529822128134704" x1="612" x2="608" y1="471" y2="488"/>
    <line opacity="0.85" stroke="black" stroke-linecap="round" stroke-linejoin="round" stroke-width="6.707131574252949" x1="608" x2="608" y1="488" y2="488"/>
    <line opacity="0.85" stroke="black" stroke-linecap="round" stroke-linejoin="round" stroke-width="5.442220510185596" x1="608" x2="601" y1="488" y2="487"/>
    <line opacity="0.85" stroke="black" stroke-linecap="round" stroke-linejoin="round" stroke-width="2.8492422502470642" x1="608" x2="603" y1="488" y2="502"/>
    <line opacity="0.85" stroke="black" stroke-linecap="round" stroke-linejoin="round" stroke-width="2.8492422502470642" x1="603" x2="597" y1="502" y2="503"/>
    <line opacity="0.85" stroke="black" stroke-linecap="round" stroke-linejoin="round" stroke-width="4.29146276043266" x1="597" x2="597" y1="503" y2="503"/>
    <line opacity="0.85" stroke="black" stroke-linecap="round" stroke-linejoin="round" stroke-width="4.533683270618256" x1="597" x2="599" y1="503" y2="507"/>
    <line opacity="0.85" stroke="black" stroke-linecap="round" stroke-linejoin="round" stroke-width="7.192572866078795" x1="599" x2="593" y1="507" y2="511"/>
    <line opacity="0.85" stroke="black" stroke-linecap="round" stroke-linejoin="round" stroke-width="7.192572866078795" x1="593" x2="572" y1="511" y2="515"/>
    <line opacity="0.85" stroke="black" stroke-linecap="round" stroke-linejoin="round" stroke-width="1.0" x1="595" x2="597" y1="502" y2="503"/>
    <line opacity="0.85" stroke="black" stroke-linecap="round" stroke-linejoin="round" stroke-width="4.800000000000001" x1="571" x2="572" y1="748" y2="558"/>
    <line opacity="0.85" stroke="black" stroke-linecap="round" stroke-linejoin="round" stroke-width="11.734276312920498" x1="287" x2="296" y1="859" y2="1096"/>
    <line opacity="0.85" stroke="black" stroke-linecap="round" stroke-linejoin="round" stroke-width="15.0" x1="296" x2="298" y1="1096" y2="1100"/>
    <line opacity="0.85" stroke="black" stroke-linecap="round" stroke-linejoin="round" stroke-width="15.0" x1="298" x2="307" y1="1100" y2="1102"/>
    <line opacity="0.85" stroke="black" stroke-linecap="round" stroke-linejoin="round" stroke-width="15.0" x1="307" x2="329" y1="1102" y2="1101"/>
    <line opacity="0.85" stroke="black" stroke-linecap="round" stroke-linejoin="round" stroke-width="15.0" x1="329" x2="329" y1="1101" y2="1101"/>
    <line opacity="0.85" stroke="black" stroke-linecap="round" stroke-linejoin="round" stroke-width="13.635202996254025" x1="329" x2="328" y1="1101" y2="983"/>
    <line opacity="0.85" stroke="black" stroke-linecap="round" stroke-linejoin="round" stroke-width="11.635202996254025" x1="328" x2="345" y1="983" y2="980"/>
    <line opacity="0.85" stroke="black" stroke-linecap="round" stroke-linejoin="round" stroke-width="9.866843748374077" x1="345" x2="345" y1="980" y2="980"/>
    <line opacity="0.85" stroke="black" stroke-linecap="round" stroke-linejoin="round" stroke-width="8.146298525094778" x1="345" x2="342" y1="980" y2="935"/>
    <line opacity="0.85" stroke="black" stroke-linecap="round" stroke-linejoin="round" stroke-width="8.146298525094778" x1="342" x2="338" y1="935" y2="929"/>
    <line opacity="0.85" stroke="black" stroke-linecap="round" stroke-linejoin="round" stroke-width="7.8112095891621305" x1="338" x2="326" y1="929" y2="924"/>
    <line opacity="0.85" stroke="black" stroke-linecap="round" stroke-linejoin="round" stroke-width="7.8112095891621305" x1="326" x2="321" y1="924" y2="918"/>
    <line opacity="0.85" stroke="black" stroke-linecap="round" stroke-linejoin="round" stroke-width="9.956700531117121" x1="321" x2="315" y1="918" y2="872"/>
    <line opacity="0.85" stroke="black" stroke-linecap="round" stroke-linejoin="round" stroke-width="8.259644256269407" x1="315" x2="316" y1="872" y2="859"/>
    <line opacity="0.85" stroke="black" stroke-linecap="round" stroke-linejoin="round" stroke-width="10.995310262126676" x1="490" x2="489" y1="860" y2="894"/>
    <line opacity="0.85" stroke="black" stroke-linecap="round" stroke-linejoin="round" stroke-width="14.573019026126339" x1="489" x2="494" y1="894" y2="918"/>
    <line opacity="0.85" stroke="black" stroke-linecap="round" stroke-linejoin="round" stroke-width="15.0" x1="494" x2="512" y1="918" y2="929"/>
    <line opacity="0.85" stroke="black" stroke-linecap="round" stroke-linejoin="round" stroke-width="15.0" x1="512" x2="519" y1="929" y2="952"/>
    <line opacity="0.85" stroke="black" stroke-linecap="round" stroke-linejoin="round" stroke-width="15.0" x1="519" x2="515" y1="952" y2="983"/>
    <line opacity="0.85" stroke="black" stroke-linecap="round" stroke-linejoin="round" stroke-width="15.0" x1="515" x2="498" y1="983" y2="986"/>
    <line opacity="0.85" stroke="black" stroke-linecap="round" stroke-linejoin="round" stroke-width="15.0" x1="498" x2="498" y1="986" y2="986"/>
    <line opacity="0.85" stroke="black" stroke-linecap="round" stroke-linejoin="round" stroke-width="14.528397502718272" x1="498" x2="493" y1="986" y2="980"/>
    <line opacity="0.85" stroke="black" stroke-linecap="round" stroke-linejoin="round" stroke-width="10.588854381999832" x1="493" x2="345" y1="980" y2="980"/>
    <line opacity="0.85" stroke="black" stroke-linecap="round" stroke-linejoin="round" stroke-width="10.822154055254966" x1="498" x2="497" y1="986" y2="1084"/>
    <line opacity="0.85" stroke="black" stroke-linecap="round" stroke-linejoin="round" stroke-width="14.399862819254631" x1="497" x2="496" y1="1084" y2="1094"/>
    <line opacity="0.85" stroke="black" stroke-linecap="round" stroke-linejoin="round" stroke-width="15.0" x1="496" x2="491" y1="1094" y2="1101"/>
    <line opacity="0.85" stroke="black" stroke-linecap="round" stroke-linejoin="round" stroke-width="14.217464317381644" x1="491" x2="329" y1="1101" y2="1101"/>
    <line opacity="0.85" stroke="black" stroke-linecap="round" stroke-linejoin="round" stroke-width="4.464911064067352" x1="371" x2="360" y1="1027" y2="1035"/>
    <line opacity="0.85" stroke="black" stroke-linecap="round" stroke-linejoin="round" stroke-width="6.064911064067353" x1="360" x2="361" y1="1035" y2="1047"/>
    <line opacity="0.85" stroke="black" stroke-linecap="round" stroke-linejoin="round" stroke-width="7.761967338915067" x1="361" x2="371" y1="1047" y2="1054"/>
    <line opacity="0.85" stroke="black" stroke-linecap="round" stroke-linejoin="round" stroke-width="7.761967338915067" x1="371" x2="379" y1="1054" y2="1051"/>
    <line opacity="0.85" stroke="black" stroke-linecap="round" stroke-linejoin="round" stroke-width="8.19411254969543" x1="379" x2="383" y1="1051" y2="1041"/>
    <line opacity="0.85" stroke="black" stroke-linecap="round" stroke-linejoin="round" stroke-width="8.194112549695427" x1="383" x2="379" y1="1041" y2="1030"/>
    <line opacity="0.85" stroke="black" stroke-linecap="round" stroke-linejoin="round" stroke-width="6.594112549695428" x1="379" x2="372" y1="1030" y2="1027"/>
    <line opacity="0.85" stroke="black" stroke-linecap="round" stroke-linejoin="round" stroke-width="4.3071315742529475" x1="450" x2="439" y1="1027" y2="1035"/>
    <line opacity="0.85" stroke="black" stroke-linecap="round" stroke-linejoin="round" stroke-width="5.907131574252948" x1="439" x2="440" y1="1035" y2="1047"/>
    <line opacity="0.85" stroke="black" stroke-linecap="round" stroke-linejoin="round" stroke-width="7.556373824500011" x1="440" x2="450" y1="1047" y2="1054"/>
    <line opacity="0.85" stroke="black" stroke-linecap="round" stroke-linejoin="round" stroke-width="7.556373824500012" x1="450" x2="457" y1="1054" y2="1052"/>
    <line opacity="0.85" stroke="black" stroke-linecap="round" stroke-linejoin="round" stroke-width="7.940705010679724" x1="457" x2="462" y1="1052" y2="1041"/>
    <line opacity="0.85" stroke="black" stroke-linecap="round" stroke-linejoin="round" stroke-width="8.098484500494129" x1="462" x2="460" y1="1041" y2="1032"/>
    <line opacity="0.85" stroke="black" stroke-linecap="round" stroke-linejoin="round" stroke-width="6.498484500494129" x1="460" x2="451" y1="1032" y2="1027"/>
  </g>
</svg>
