<?xml version="1.0" encoding="utf-8" ?>
<svg xmlns="http://www.w3.org/2000/svg" xmlns:ev="http://www.w3.org/2001/xml-events" xmlns:xlink="http://www.w3.org/1999/xlink" baseProfile="tiny" height="100%" version="1.2" viewBox="175,124,577,908" width="100%">
  <defs/>
  <path d="M473.0,646.0 L471.0,648.0 L505.0,982.0 L506.0,989.0 L510.0,991.0 L512.0,984.0 L477.0,648.0" fill="none" stroke="black" stroke-linecap="round" stroke-linejoin="round" stroke-width="3.0"/>
  <path d="M238.0,451.0 L238.0,458.0 L471.0,605.0 L483.0,601.0 L570.0,553.0 L569.0,547.0 L530.0,525.0 L524.0,528.0 L510.0,526.0 L511.0,523.0 L515.0,522.0 L516.0,516.0 L393.0,442.0 L389.0,440.0 L380.0,443.0 L369.0,442.0 L368.0,438.0 L373.0,435.0 L373.0,431.0 L339.0,410.0" fill="none" stroke="black" stroke-linecap="round" stroke-linejoin="round" stroke-width="3.0"/>
  <path d="M531.0,559.0 L532.0,563.0 L534.0,567.0 L530.0,571.0 L525.0,574.0 L522.0,575.0 L520.0,575.0 L519.0,571.0 L523.0,571.0 L525.0,570.0 L530.0,567.0" fill="none" stroke="black" stroke-linecap="round" stroke-linejoin="round" stroke-width="3.0"/>
  <path d="M535.0,537.0 L540.0,541.0 L552.0,548.0 L553.0,548.0 L555.0,549.0 L555.0,552.0 L542.0,558.0 L537.0,562.0 L535.0,563.0 L534.0,558.0 L535.0,550.0 L533.0,540.0" fill="none" stroke="black" stroke-linecap="round" stroke-linejoin="round" stroke-width="3.0"/>
  <path d="M510.0,535.0 L515.0,537.0 L525.0,536.0 L528.0,537.0 L529.0,548.0 L529.0,559.0 L528.0,562.0 L527.0,564.0 L523.0,568.0 L520.0,568.0 L518.0,567.0 L513.0,562.0 L510.0,555.0 L509.0,549.0 L508.0,539.0" fill="none" stroke="black" stroke-linecap="round" stroke-linejoin="round" stroke-width="3.0"/>
  <path d="M365.0,450.0 L367.0,450.0 L373.0,452.0 L381.0,451.0 L384.0,452.0 L385.0,459.0 L385.0,475.0 L383.0,479.0 L379.0,483.0 L376.0,483.0 L369.0,476.0 L368.0,474.0 L366.0,468.0 L366.0,460.0 L364.0,452.0" fill="none" stroke="black" stroke-linecap="round" stroke-linejoin="round" stroke-width="3.0"/>
  <path d="M253.0,454.0 L338.0,420.0 L360.0,434.0 L357.0,439.0 L360.0,468.0 L364.0,479.0 L373.0,488.0 L382.0,488.0 L390.0,478.0 L391.0,461.0 L389.0,453.0 L391.0,451.0 L503.0,519.0 L500.0,526.0 L503.0,535.0 L505.0,558.0 L508.0,565.0 L516.0,572.0 L472.0,595.0 L254.0,458.0" fill="none" stroke="black" stroke-linecap="round" stroke-linejoin="round" stroke-width="3.0"/>
  <path d="M244.0,452.0 L309.0,424.0 L339.0,414.0 L363.0,429.0 L365.0,443.0 L391.0,446.0 L404.0,452.0 L504.0,512.0 L508.0,516.0 L508.0,529.0 L535.0,531.0 L556.0,543.0 L566.0,552.0 L560.0,554.0 L554.0,545.0 L536.0,535.0 L532.0,535.0 L531.0,541.0 L529.0,534.0 L507.0,533.0 L504.0,528.0 L504.0,516.0 L402.0,454.0 L392.0,450.0 L363.0,448.0 L360.0,430.0 L340.0,418.0 L330.0,419.0 L253.0,451.0 L248.0,457.0" fill="none" stroke="black" stroke-linecap="round" stroke-linejoin="round" stroke-width="3.0"/>
  <path d="M385.0,403.0 L384.0,408.0 L387.0,411.0 L570.0,519.0 L575.0,518.0 L576.0,512.0 L574.0,510.0 L391.0,402.0" fill="none" stroke="black" stroke-linecap="round" stroke-linejoin="round" stroke-width="3.0"/>
  <path d="M501.0,389.0 L497.0,391.0 L496.0,392.0 L496.0,393.0 L494.0,395.0 L493.0,398.0 L493.0,410.0 L494.0,413.0 L497.0,419.0 L502.0,424.0 L505.0,426.0 L508.0,427.0 L513.0,427.0 L515.0,425.0 L516.0,425.0 L517.0,424.0 L519.0,420.0 L520.0,417.0 L520.0,409.0 L518.0,402.0 L516.0,398.0 L514.0,395.0 L511.0,392.0 L508.0,390.0 L505.0,389.0" fill="none" stroke="black" stroke-linecap="round" stroke-linejoin="round" stroke-width="3.0"/>
  <path d="M502.0,395.0 L504.0,395.0 L506.0,396.0 L511.0,401.0 L513.0,405.0 L514.0,409.0 L514.0,417.0 L513.0,419.0 L511.0,421.0 L507.0,421.0 L502.0,416.0 L499.0,410.0 L498.0,404.0 L498.0,402.0 L499.0,401.0 L499.0,398.0" fill="none" stroke="black" stroke-linecap="round" stroke-linejoin="round" stroke-width="3.0"/>
  <path d="M587.0,386.0 L585.0,390.0 L584.0,394.0 L584.0,401.0 L587.0,411.0 L589.0,415.0 L595.0,421.0 L599.0,423.0 L603.0,423.0 L606.0,422.0 L610.0,420.0 L610.0,406.0 L609.0,401.0 L606.0,393.0 L603.0,387.0 L600.0,384.0 L594.0,384.0 L590.0,385.0 L589.0,386.0" fill="none" stroke="black" stroke-linecap="round" stroke-linejoin="round" stroke-width="3.0"/>
  <path d="M591.0,387.0 L595.0,387.0 L597.0,388.0 L602.0,393.0 L606.0,401.0 L607.0,405.0 L607.0,415.0 L606.0,418.0 L603.0,421.0 L600.0,421.0 L598.0,420.0 L593.0,415.0 L591.0,412.0 L589.0,408.0 L587.0,401.0 L587.0,394.0 L588.0,391.0 L589.0,389.0" fill="none" stroke="black" stroke-linecap="round" stroke-linejoin="round" stroke-width="3.0"/>
  <path d="M563.0,351.0 L553.0,356.0 L549.0,360.0 L543.0,371.0 L540.0,387.0 L540.0,396.0 L543.0,415.0 L546.0,424.0 L553.0,438.0 L560.0,448.0 L570.0,458.0 L584.0,465.0 L597.0,465.0 L604.0,462.0 L612.0,454.0 L618.0,440.0 L619.0,435.0 L619.0,414.0 L616.0,400.0 L613.0,391.0 L607.0,379.0 L602.0,371.0 L595.0,363.0 L586.0,356.0 L575.0,351.0" fill="none" stroke="black" stroke-linecap="round" stroke-linejoin="round" stroke-width="3.0"/>
  <path d="M601.0,378.0 L602.0,382.0 L607.0,387.0 L610.0,393.0 L613.0,402.0 L614.0,407.0 L614.0,421.0 L611.0,422.0 L609.0,424.0 L605.0,426.0 L597.0,426.0 L594.0,424.0 L587.0,417.0 L583.0,409.0 L581.0,402.0 L581.0,392.0 L585.0,384.0 L586.0,383.0 L588.0,382.0 L596.0,380.0" fill="none" stroke="black" stroke-linecap="round" stroke-linejoin="round" stroke-width="3.0"/>
  <path d="M563.0,357.0 L574.0,357.0 L577.0,358.0 L586.0,363.0 L595.0,372.0 L597.0,379.0 L588.0,378.0 L586.0,379.0 L581.0,384.0 L578.0,393.0 L578.0,402.0 L579.0,407.0 L582.0,415.0 L585.0,420.0 L592.0,427.0 L599.0,430.0 L607.0,429.0 L609.0,428.0 L613.0,423.0 L614.0,428.0 L613.0,429.0 L613.0,435.0 L611.0,443.0 L607.0,451.0 L601.0,457.0 L597.0,459.0 L589.0,460.0 L584.0,459.0 L576.0,455.0 L571.0,451.0 L562.0,441.0 L552.0,423.0 L547.0,406.0 L546.0,399.0 L546.0,383.0 L549.0,372.0 L552.0,366.0 L559.0,359.0" fill="none" stroke="black" stroke-linecap="round" stroke-linejoin="round" stroke-width="3.0"/>
  <path d="M713.0,299.0 L711.0,297.0 L709.0,297.0 L704.0,300.0 L694.0,303.0 L691.0,305.0 L676.0,311.0 L671.0,312.0 L659.0,317.0 L658.0,321.0 L662.0,322.0 L664.0,322.0 L687.0,312.0 L692.0,311.0 L710.0,303.0 L713.0,302.0" fill="none" stroke="black" stroke-linecap="round" stroke-linejoin="round" stroke-width="3.0"/>
  <path d="M430.0,266.0 L423.0,270.0 L418.0,275.0 L413.0,284.0 L410.0,296.0 L410.0,317.0 L414.0,334.0 L419.0,346.0 L426.0,358.0 L438.0,371.0 L442.0,374.0 L453.0,379.0 L457.0,380.0 L468.0,379.0 L474.0,376.0 L481.0,369.0 L485.0,362.0 L488.0,352.0 L489.0,344.0 L488.0,325.0 L482.0,304.0 L472.0,286.0 L467.0,280.0 L457.0,271.0 L452.0,268.0 L443.0,265.0 L434.0,265.0" fill="none" stroke="black" stroke-linecap="round" stroke-linejoin="round" stroke-width="3.0"/>
  <path d="M461.0,301.0 L464.0,301.0 L466.0,302.0 L472.0,308.0 L475.0,314.0 L477.0,321.0 L477.0,327.0 L476.0,331.0 L475.0,333.0 L473.0,335.0 L469.0,335.0 L466.0,333.0 L463.0,330.0 L461.0,327.0 L458.0,321.0 L457.0,317.0 L457.0,306.0 L458.0,304.0" fill="none" stroke="black" stroke-linecap="round" stroke-linejoin="round" stroke-width="3.0"/>
  <path d="M471.0,292.0 L473.0,294.0 L472.0,297.0 L471.0,297.0 L469.0,299.0 L460.0,299.0 L459.0,300.0 L457.0,300.0 L455.0,304.0 L454.0,308.0 L454.0,315.0 L457.0,327.0 L459.0,330.0 L463.0,334.0 L468.0,337.0 L474.0,337.0 L476.0,336.0 L479.0,333.0 L483.0,333.0 L485.0,335.0 L483.0,338.0 L483.0,337.0 L481.0,336.0 L475.0,340.0 L466.0,340.0 L462.0,337.0 L457.0,332.0 L455.0,329.0 L452.0,322.0 L451.0,318.0 L451.0,314.0 L450.0,313.0 L450.0,310.0 L453.0,301.0 L454.0,299.0 L456.0,297.0 L458.0,296.0 L463.0,295.0 L469.0,295.0" fill="none" stroke="black" stroke-linecap="round" stroke-linejoin="round" stroke-width="3.0"/>
  <path d="M433.0,271.0 L443.0,271.0 L455.0,277.0 L468.0,291.0 L470.0,290.0 L470.0,293.0 L459.0,292.0 L456.0,293.0 L450.0,299.0 L448.0,305.0 L448.0,319.0 L450.0,326.0 L455.0,335.0 L461.0,341.0 L467.0,344.0 L475.0,344.0 L484.0,340.0 L481.0,356.0 L478.0,363.0 L472.0,370.0 L464.0,374.0 L457.0,374.0 L447.0,370.0 L432.0,356.0 L425.0,345.0 L418.0,327.0 L415.0,306.0 L417.0,291.0 L421.0,281.0 L429.0,273.0" fill="none" stroke="black" stroke-linecap="round" stroke-linejoin="round" stroke-width="3.0"/>
  <path d="M383.0,196.0 L375.0,210.0 L360.0,370.0 L365.0,393.0 L374.0,401.0 L381.0,399.0 L370.0,384.0 L369.0,371.0 L384.0,211.0 L392.0,204.0 L383.0,332.0 L384.0,351.0 L392.0,368.0 L620.0,504.0 L611.0,515.0 L601.0,519.0 L584.0,517.0 L584.0,525.0 L602.0,528.0 L617.0,522.0 L632.0,496.0 L646.0,366.0 L645.0,349.0 L638.0,335.0 L622.0,321.0 L403.0,199.0" fill="none" stroke="black" stroke-linecap="round" stroke-linejoin="round" stroke-width="3.0"/>
  <path d="M531.0,282.0 L533.0,282.0 L546.0,289.0 L547.0,290.0 L548.0,292.0 L549.0,297.0 L549.0,301.0 L548.0,305.0 L547.0,307.0 L545.0,309.0 L541.0,309.0 L539.0,308.0 L534.0,303.0 L531.0,297.0 L530.0,294.0" fill="none" stroke="black" stroke-linecap="round" stroke-linejoin="round" stroke-width="3.0"/>
  <path d="M399.0,208.0 L524.0,277.0 L526.0,280.0 L524.0,283.0 L525.0,298.0 L531.0,309.0 L537.0,314.0 L546.0,315.0 L552.0,310.0 L555.0,294.0 L621.0,331.0 L631.0,341.0 L636.0,351.0 L637.0,365.0 L621.0,497.0 L408.0,373.0 L395.0,362.0 L389.0,346.0" fill="none" stroke="black" stroke-linecap="round" stroke-linejoin="round" stroke-width="3.0"/>
  <path d="M384.0,199.0 L391.0,198.0 L610.0,318.0 L635.0,337.0 L643.0,362.0 L630.0,483.0 L624.0,509.0 L615.0,519.0 L602.0,525.0 L594.0,525.0 L591.0,519.0 L604.0,521.0 L614.0,516.0 L626.0,494.0 L640.0,365.0 L634.0,340.0 L624.0,329.0 L557.0,292.0 L551.0,300.0 L550.0,289.0 L542.0,283.0 L529.0,282.0 L524.0,273.0 L392.0,202.0 L382.0,207.0 L367.0,384.0 L378.0,396.0 L375.0,398.0 L366.0,389.0 L362.0,374.0 L377.0,215.0" fill="none" stroke="black" stroke-linecap="round" stroke-linejoin="round" stroke-width="3.0"/>
  <path d="M443.0,144.0 L382.0,162.0 L375.0,169.0 L389.0,174.0 L370.0,171.0 L360.0,182.0 L338.0,372.0 L317.0,389.0 L203.0,434.0 L195.0,461.0 L208.0,469.0 L197.0,469.0 L232.0,773.0 L493.0,1002.0 L521.0,1011.0 L619.0,947.0 L620.0,877.0 L635.0,780.0 L662.0,691.0 L705.0,590.0 L732.0,313.0 L725.0,288.0 L711.0,274.0 L469.0,148.0" fill="none" stroke="black" stroke-linecap="round" stroke-linejoin="round" stroke-width="3.0"/>
  <path d="M377.0,177.0 L402.0,184.0 L631.0,313.0 L649.0,330.0 L657.0,350.0 L658.0,369.0 L640.0,514.0 L633.0,533.0 L604.0,561.0 L480.0,629.0 L467.0,629.0 L450.0,622.0 L210.0,468.0 L201.0,454.0 L202.0,444.0 L208.0,438.0 L321.0,394.0 L337.0,384.0 L346.0,372.0 L351.0,352.0 L364.0,191.0" fill="none" stroke="black" stroke-linecap="round" stroke-linejoin="round" stroke-width="3.0"/>
  <path d="M441.0,150.0 L465.0,153.0 L709.0,280.0 L727.0,313.0 L699.0,592.0 L658.0,685.0 L631.0,774.0 L616.0,862.0 L615.0,944.0 L521.0,1006.0 L497.0,997.0 L237.0,769.0 L204.0,470.0 L466.0,635.0 L523.0,613.0 L609.0,565.0 L635.0,541.0 L646.0,514.0 L664.0,368.0 L658.0,334.0 L634.0,308.0 L381.0,172.0" fill="none" stroke="black" stroke-linecap="round" stroke-linejoin="round" stroke-width="3.0"/>
  <path d="M440.0,134.0 L371.0,156.0 L351.0,177.0 L329.0,369.0 L199.0,425.0 L187.0,439.0 L185.0,456.0 L221.0,773.0 L490.0,1012.0 L522.0,1022.0 L630.0,951.0 L632.0,860.0 L646.0,779.0 L670.0,698.0 L714.0,597.0 L742.0,306.0 L734.0,284.0 L718.0,267.0 L475.0,140.0" fill="none" stroke="black" stroke-linecap="round" stroke-linejoin="round" stroke-width="3.0"/>
  <path d="M443.0,140.0 L469.0,144.0 L711.0,270.0 L729.0,288.0 L736.0,313.0 L709.0,590.0 L666.0,691.0 L639.0,780.0 L624.0,877.0 L623.0,947.0 L521.0,1015.0 L493.0,1006.0 L228.0,773.0 L192.0,444.0 L203.0,430.0 L317.0,385.0 L334.0,372.0 L356.0,182.0 L382.0,158.0" fill="none" stroke="black" stroke-linecap="round" stroke-linejoin="round" stroke-width="3.0"/>
  <path d="M390.0,408.0 L392.0,406.0 L403.0,412.0 L414.0,420.0 L428.0,427.0 L436.0,433.0 L445.0,437.0 L448.0,440.0 L506.0,473.0 L509.0,476.0 L534.0,490.0 L537.0,493.0 L560.0,505.0 L563.0,508.0 L571.0,511.0 L567.0,514.0 L549.0,502.0 L535.0,495.0 L532.0,492.0 L515.0,483.0 L495.0,470.0 L473.0,458.0 L441.0,438.0 L434.0,435.0 L424.0,428.0 L417.0,425.0" fill="none" stroke="black" stroke-linecap="round" stroke-linejoin="round" stroke-width="2.0"/>
</svg>
